<svg xmlns="http://www.w3.org/2000/svg" xmlns:xlink="http://www.w3.org/1999/xlink" id="eG32xmfFBgV1" viewBox="0 0 512 512" shape-rendering="geometricPrecision" text-rendering="geometricPrecision"><path id="eG32xmfFBgV2" d="M168,179L168,192.4C168,221.3,183.2,248.2,208,263L208,263L208,295L304,295L304,263L304,263C328.8,248.1,344,221.3,344,192.4L344,179L168,179Z" fill="rgb(218,146,42)" stroke="none" stroke-width="1"/><path id="eG32xmfFBgV3" d="M185,295L327,295C332,295,336,299,336,304L336,497C336,504.7,329.7,511,322,511L190,511C182.3,511,176,504.7,176,497L176,304C176,299,180,295,185,295Z" fill="rgb(234,234,232)" stroke="none" stroke-width="1"/><rect id="eG32xmfFBgV4" width="40" height="64" rx="0" ry="0" transform="matrix(1 0 0 1 424 71)" fill="rgb(131,75,16)" stroke="none" stroke-width="1"/><path id="eG32xmfFBgV5" d="M424.8,47L464,47C472.8,47,480,54.2,480,63L480,63C480,71.8,472.8,79,464,79L424.8,79C416,79,408.8,71.8,408.8,63L408.8,63C408.8,54.2,416,47,424.8,47Z" fill="rgb(152,87,19)" stroke="none" stroke-width="1"/><path id="eG32xmfFBgV6" d="M344,179C344,192.7,313,204.1,272,206.5C266.8,206.8,261.5,207,256,207C250.5,207,245.2,206.8,240,206.5C199,204.1,168,192.7,168,179C168,163.5,207.4,151,256,151C304.6,151,344,163.5,344,179Z" fill="rgb(195,131,37)" stroke="none" stroke-width="1"/><path id="eG32xmfFBgV7" d="M272,175L272,206.5C266.8,206.8,261.5,207,256,207C250.5,207,245.2,206.8,240,206.5L240,175L272,175Z" fill="rgb(168,168,168)" stroke="none" stroke-width="1"/><path id="eG32xmfFBgV8" d="M184,295L328,295C332.4,295,336,298.6,336,303L336,343L336,343L176,343L176,343L176,303C176,298.6,179.6,295,184,295Z" fill="rgb(152,87,19)" stroke="none" stroke-width="1"/><rect id="eG32xmfFBgV9" width="40" height="16" rx="0" ry="0" transform="matrix(1 0 0 1 176 311)" fill="rgb(131,75,16)" stroke="none" stroke-width="1"/><rect id="eG32xmfFBgV10" width="88" height="16" rx="0" ry="0" transform="matrix(1 0 0 1 248 311)" fill="rgb(131,75,16)" stroke="none" stroke-width="1"/><path id="eG32xmfFBgV11" d="M176,479L336,479L336,479L336,497C336,504.7,329.7,511,322,511L190,511C182.3,511,176,504.7,176,497L176,479L176,479Z" fill="rgb(203,203,203)" stroke="none" stroke-width="1"/><path id="eG32xmfFBgV12" d="M176,479L215,440C225.9,429.1,240.6,423,256,423L256,423C271.4,423,286.1,429.1,297,440L336,479L176,479Z" fill="rgb(116,70,48)" stroke="none" stroke-width="1"/><rect id="eG32xmfFBgV13" width="16" height="16" rx="0" ry="0" transform="matrix(1 0 0 1 232 447)" fill="rgb(91,55,38)" stroke="none" stroke-width="1"/><rect id="eG32xmfFBgV14" width="16" height="16" rx="0" ry="0" transform="matrix(1 0 0 1 280 367)" fill="rgb(91,55,38)" stroke="none" stroke-width="1"/><rect id="eG32xmfFBgV15" width="16" height="16" rx="0" ry="0" transform="matrix(1 0 0 1 216 367)" fill="rgb(91,55,38)" stroke="none" stroke-width="1"/><rect id="eG32xmfFBgV16" width="16" height="16" rx="0" ry="0" transform="matrix(1 0 0 1 248 383)" fill="rgb(91,55,38)" stroke="none" stroke-width="1"/><rect id="eG32xmfFBgV17" width="16" height="16" rx="0" ry="0" transform="matrix(1 0 0 1 296 399)" fill="rgb(91,55,38)" stroke="none" stroke-width="1"/><path id="eG32xmfFBgV18" d="M266.1,161.8L269.2,143.5L333.2,119.5C334.1,119.2,335,119,336,119L424,119L424,135L337.5,135L266.1,161.8Z" fill="rgb(168,168,168)" stroke="none" stroke-width="1"/><rect id="eG32xmfFBgV19" width="32" height="40" rx="0" ry="0" transform="matrix(1 0 0 1 240 135)" fill="rgb(203,203,203)" stroke="none" stroke-width="1"/><g id="eG32xmfFBgV20" transform="matrix(1 0 0 1 0 10)"><path id="eG32xmfFBgV21" d="M264.5,21.2C260.5,27.5,253.9,30.7,248.8,29.3C248,29.1,247.2,28.7,246.5,28.3C246.4,28.2,246.2,28.1,246.1,28C241.2,24.4,240.8,16,245.3,8.9C249.8,2,257.3,-1.2,262.6,1.4C263.4,1.8,264.2,2.4,264.9,3.1C268.8,7.1,268.7,14.7,264.5,21.2Z" fill="rgb(98,59,40)" stroke="none" stroke-width="1"/><path id="eG32xmfFBgV22" d="M264.9,3.1L263.6,4.4C260.5,7.4,258.4,11.4,257.7,15.6C256.8,20.7,254.1,25.2,250,28.4L248.9,29.3C248.1,29.1,247.3,28.7,246.6,28.3C246.5,28.2,246.3,28.1,246.2,28L247.6,26.9C251.7,23.8,254.4,19.2,255.3,14.1C256,9.8,258.1,5.9,261.2,2.9L262.7,1.5C263.5,1.9,264.3,2.4,264.9,3.1L264.9,3.1Z" fill="rgb(133,80,55)" stroke="none" stroke-width="1"/><path id="eG32xmfFBgV23" d="M243.9,40.1C243.2,40.5,242.4,40.8,241.5,41C241.4,41,241.2,41.1,241.1,41.1C235.1,42.1,228.9,36.4,227,28.2C225.2,20.2,228.3,12.6,233.9,10.7C234.2,10.6,234.5,10.5,234.8,10.5C235.4,10.4,236.1,10.3,236.7,10.3C242.2,10.4,247.6,15.8,249.3,23.3C250.9,30.5,248.5,37.4,243.9,40.1Z" fill="rgb(116,70,48)" stroke="none" stroke-width="1"/><path id="eG32xmfFBgV24" d="M244.1,38.7L243.9,40.1C243.2,40.5,242.4,40.8,241.5,41C241.4,41,241.2,41.1,241.1,41.1L241.3,39.3C241.4,38.4,241.5,37.6,241.5,36.7C241.5,32.4,240.2,28.3,237.7,24.8C235.2,21.3,233.9,17,233.9,12.7L233.9,10.6C234.2,10.5,234.5,10.4,234.8,10.4C235.4,10.3,236.1,10.2,236.7,10.2L236.7,12.1C236.7,12.2,236.7,12.2,236.7,12.3C236.7,16.6,238,20.7,240.5,24.2C243.4,28.4,244.7,33.5,244.1,38.7Z" fill="rgb(143,86,59)" stroke="none" stroke-width="1"/><path id="eG32xmfFBgV25" d="M250.2,8.7C249.8,8.7,249.5,8.4,249.5,8C249.5,7.8,249.6,7.6,249.7,7.5C250,7.2,250.4,6.9,250.7,6.6C251,6.4,251.5,6.4,251.7,6.7C251.9,7,251.9,7.5,251.6,7.7C251.3,8,251,8.2,250.7,8.5C250.5,8.6,250.4,8.7,250.2,8.7Z" fill="rgb(116,70,48)" stroke="none" stroke-width="1"/><path id="eG32xmfFBgV26" d="M246.9,13.1C246.5,13.1,246.2,12.8,246.2,12.4C246.2,12.3,246.2,12.2,246.3,12.1C246.8,11.1,247.4,10.2,248.1,9.3C248.3,9,248.8,8.9,249.1,9.2C249.4,9.4,249.5,9.9,249.2,10.2C249.2,10.2,249.2,10.2,249.2,10.2C248.6,11,248,11.9,247.6,12.8C247.4,13,247.1,13.1,246.9,13.1Z" fill="rgb(116,70,48)" stroke="none" stroke-width="1"/><path id="eG32xmfFBgV27" d="M233.3,35.4C233.1,35.4,232.9,35.3,232.8,35.2C232.5,34.9,232.2,34.5,232,34.1C231.8,33.8,231.8,33.3,232.2,33.1C232.5,32.9,233,32.9,233.2,33.3C233.4,33.6,233.7,34,234,34.3C234.3,34.6,234.2,35,233.9,35.3C233.6,35.4,233.5,35.4,233.3,35.4L233.3,35.4Z" fill="rgb(139,84,58)" stroke="none" stroke-width="1"/><path id="eG32xmfFBgV28" d="M237.6,38.9C237.5,38.9,237.4,38.9,237.3,38.8C236.3,38.3,235.4,37.6,234.6,36.9C234.3,36.6,234.3,36.2,234.5,35.9C234.8,35.6,235.2,35.6,235.5,35.8C236.3,36.5,237.1,37,238,37.5C238.3,37.7,238.5,38.1,238.3,38.5C238.1,38.8,237.9,38.9,237.6,38.9L237.6,38.9Z" fill="rgb(139,84,58)" stroke="none" stroke-width="1"/></g><g id="eG32xmfFBgV29"><path id="eG32xmfFBgV30" d="M249.7,20.1C256.8,17.7,263.9,19.2,267,23.5C267.5,24.2,267.9,25,268.2,25.8C268.2,25.9,268.3,26.1,268.3,26.2C270,32.1,265,38.9,257.1,41.6C249.3,44.3,241.4,42.1,238.9,36.7C238.5,35.8,238.2,34.9,238.2,34C237.6,28.6,242.4,22.6,249.7,20.1Z" transform="matrix(1 0 0 1 0.920368 0)" fill="rgb(98,59,40)" stroke="none" stroke-width="1"/><path id="eG32xmfFBgV31" d="M238.2,34.1L240.1,33.9C244.4,33.4,248.5,31.6,251.7,28.8C255.5,25.4,260.5,23.5,265.7,23.6L267.1,23.6C267.6,24.3,268,25.1,268.3,25.9C268.3,26,268.4,26.2,268.4,26.3L266.6,26.3C261.4,26.2,256.5,28.1,252.6,31.5C249.4,34.4,245.3,36.2,241,36.6L239,36.8C238.5,35.9,238.3,35,238.2,34.1L238.2,34.1Z" fill="rgb(133,80,55)" stroke="none" stroke-width="1"/><path id="eG32xmfFBgV32" d="M277.6,18.1C278.4,18.2,279.3,18.5,280,18.9C280.1,19,280.3,19,280.4,19.1C285.7,22.1,287.1,30.4,283.4,38C279.8,45.4,272.7,49.5,267.1,47.5C266.8,47.4,266.5,47.3,266.3,47.2C265.7,46.9,265.2,46.6,264.7,46.2C260.4,42.7,259.5,35.1,262.9,28.2C266.2,21.3,272.3,17.3,277.6,18.1Z" fill="rgb(116,70,48)" stroke="none" stroke-width="1"/><path id="eG32xmfFBgV33" d="M276.6,19.1L277.6,18.1C278.4,18.2,279.3,18.5,280,18.9C280.1,19,280.3,19,280.4,19.1L279.1,20.4C278.5,21,277.9,21.7,277.4,22.3C274.8,25.6,273.2,29.7,273,34C272.8,38.3,271.2,42.5,268.5,45.8L267.2,47.4C266.9,47.3,266.6,47.2,266.4,47.1C265.8,46.8,265.3,46.5,264.8,46.1L266,44.6C266,44.5,266.1,44.5,266.1,44.4C268.7,41.1,270.3,37,270.5,32.7C270.7,27.6,272.9,22.7,276.6,19.1Z" fill="rgb(143,86,59)" stroke="none" stroke-width="1"/><path id="eG32xmfFBgV34" d="M253.2,38.8C253.5,39,253.6,39.5,253.3,39.8C253.2,40,253,40.1,252.8,40.1C252.4,40.1,251.9,40.2,251.5,40.2C251.1,40.2,250.8,39.9,250.8,39.5C250.8,39.1,251.1,38.8,251.5,38.8C251.9,38.8,252.3,38.8,252.7,38.8C252.9,38.7,253,38.7,253.2,38.8Z" fill="rgb(116,70,48)" stroke="none" stroke-width="1"/><path id="eG32xmfFBgV35" d="M258.5,37.4C258.8,37.6,258.9,38.1,258.6,38.4C258.5,38.5,258.4,38.6,258.3,38.6C257.3,39.1,256.2,39.4,255.1,39.7C254.7,39.8,254.3,39.6,254.2,39.2C254.1,38.8,254.3,38.4,254.7,38.3C254.7,38.3,254.7,38.3,254.7,38.3C255.7,38.1,256.7,37.7,257.6,37.3C258,37.2,258.3,37.2,258.5,37.4Z" fill="rgb(116,70,48)" stroke="none" stroke-width="1"/><path id="eG32xmfFBgV36" d="M283,28.3C283.2,28.4,283.3,28.6,283.3,28.8C283.3,29.2,283.3,29.7,283.3,30.1C283.3,30.5,282.9,30.8,282.6,30.8C282.3,30.8,281.9,30.4,281.9,30.1C281.9,29.7,281.9,29.3,281.9,28.9C281.9,28.5,282.2,28.2,282.6,28.2C282.7,28.2,282.9,28.2,283,28.3L283,28.3Z" fill="rgb(139,84,58)" stroke="none" stroke-width="1"/><path id="eG32xmfFBgV37" d="M281.8,22.9C281.9,23,282,23.1,282,23.2C282.4,24.2,282.8,25.3,283,26.4C283.1,26.8,282.8,27.2,282.4,27.2C282,27.3,281.6,27,281.6,26.6C281.4,25.6,281.1,24.6,280.7,23.7C280.5,23.3,280.7,22.9,281.1,22.8C281.3,22.7,281.6,22.7,281.8,22.9L281.8,22.9Z" fill="rgb(139,84,58)" stroke="none" stroke-width="1"/></g></svg>