<svg id="Layer_1" data-name="Layer 1" xmlns="http://www.w3.org/2000/svg" viewBox="0 0 200 200"><defs><style>.cls-1{fill:#0090e3;}.cls-2{fill:#fff;}.cls-3{fill:#fb0;}.cls-4{fill:none;stroke:#0090e3;stroke-miterlimit:10;stroke-width:3px;}</style></defs><path class="cls-1" d="M100.09,0V3A97,97,0,0,1,194.61,78.6a97,97,0,0,1-73.21,116,97,97,0,0,1-116-73.21A97,97,0,0,1,78.6,5.39,97.52,97.52,0,0,1,100.09,3V0m0,0a100,100,0,1,0,97.45,78A100.37,100.37,0,0,0,100.09,0Z"/><path d="M32.47,69.19a10.2,10.2,0,0,1-.73,4.06c-1.84,5.16-6,6.67-10.25,5.15-5.1-1.82-6.63-6.47-5-11a9.12,9.12,0,0,1,2-3.44l2.43,1.64a7.88,7.88,0,0,0-1.57,2.64c-.95,2.68-.08,5.34,3.24,6.52,3,1.07,5.51,0,6.58-3a8.79,8.79,0,0,0,.52-3Z"/><path d="M36.69,47.94c4.3,2.91,5.14,7.29,2.55,11.13s-7.12,4.18-10.86,1.65c-3.93-2.67-5.17-7.17-2.55-11C28.56,45.65,33.07,45.49,36.69,47.94Zm-6.25,9.6c2.57,1.74,5.2,1.76,6.55-.22s.22-4.45-2.33-6.18c-2.35-1.59-5.14-1.83-6.53.21S27.89,55.82,30.44,57.54Z"/><path d="M54,34.87c-1.25-1.43-2.76-3.18-4.2-5l-.06,0c.89,1.88,1.8,4.05,2.49,5.88l2.39,6L52.39,43.6l-5.17-3.71c-1.57-1.12-3.41-2.53-5-3.9l0,0c1.27,1.72,2.75,3.67,3.9,5.28l3.57,4.85-2.58,2.09-9.18-13,3.71-3,4.54,3.14c1.53,1.11,3.16,2.34,4.6,3.56l0,0c-.8-1.71-1.7-3.68-2.4-5.38l-2-5.15L50,25.46,60.67,37.24,58,39.44Z"/><path d="M60.31,19.93a28.39,28.39,0,0,1,4.15-2.1,8.74,8.74,0,0,1,4.66-1,3.46,3.46,0,0,1,3,2.12A3.58,3.58,0,0,1,71,23.09l0,.05a4,4,0,0,1,4.42,2.37,4.21,4.21,0,0,1-.21,3.74C74.5,30.54,72.92,31.77,70,33a26.56,26.56,0,0,1-3.67,1.29Zm5.63,4.22L67,23.69c1.74-.73,2.37-1.84,1.91-2.92s-1.55-1.34-3.05-.71a9.92,9.92,0,0,0-1.37.68Zm2.73,6.48a12.27,12.27,0,0,0,1.29-.5c1.5-.63,2.59-1.75,1.94-3.29s-2.19-1.5-3.84-.81l-1.13.48Z"/><path d="M83.79,12.07,87,27.6l-3.53.72L80.27,12.79Z"/><path d="M104.87,10.71a31,31,0,0,1,4.84.29c3,.38,4.85,1.16,6.22,2.5a7,7,0,0,1,1.9,6.27,8,8,0,0,1-3.43,6c-1.83,1.16-4.43,1.49-7.51,1.1a31.31,31.31,0,0,1-4-.76ZM106.79,24a6.61,6.61,0,0,0,1.23.23c3.21.44,5.54-1.07,6-4.82.44-3.26-1.25-5.24-4.3-5.63a6.92,6.92,0,0,0-1.63-.06Z"/><path d="M133.84,27.07l-5.42-2.14L127,28.43l6,2.39L132,33.55l-9.4-3.71,5.82-14.74,9.1,3.59-1.08,2.74-5.75-2.27-1.21,3.06,5.42,2.14Z"/><path d="M142.9,35.27l-3.27,2.66-3-2.15,13.13-10.1,3.84,2.72-5.19,15.76-3.14-2.24,1.36-4Zm4.83.15,1.15-3.31c.31-.93.77-2.05,1.12-2.95l0,0c-.74.63-1.62,1.47-2.37,2.07l-2.71,2.19Z"/><path d="M164.51,38l2.36,2.71-9.68,8.44,4.14,4.75-2.27,2-6.5-7.46Z"/><path class="cls-2" d="M99.94,164.51a64.49,64.49,0,0,1-62.85-50.28A64.49,64.49,0,0,1,85.77,37.09a64.5,64.5,0,0,1,28.46,125.82A65.08,65.08,0,0,1,99.94,164.51Z"/><path class="cls-1" d="M100.06,34v3A63,63,0,0,1,161.45,86.1a63,63,0,0,1-47.55,75.35A63,63,0,0,1,38.55,113.9,63,63,0,0,1,86.1,38.55a63.36,63.36,0,0,1,14-1.56V34m0,0a66,66,0,1,0,64.31,51.45A66.13,66.13,0,0,0,100.06,34Z"/><path class="cls-3" d="M126.54,60.43l-15.23,3.44a7.72,7.72,0,1,0-14.8-3.62,8,8,0,0,0-10.1,2.29,7.72,7.72,0,1,0-11.8,9.64L59.38,75.62a6.75,6.75,0,0,0-5.1,8.08l2.84,12.56A1.6,1.6,0,0,0,59,97.47l2.67-.6,9.57,42.29a5.56,5.56,0,0,0,6.64,4.19l24.24-5.49L114.71,135,139,129.54a5.57,5.57,0,0,0,4.19-6.64l-3.54-15.62a1.6,1.6,0,1,0-3.13.71L140,123.61a2.34,2.34,0,0,1-1.76,2.79l-22.68,5.13L105.49,87l25-5.64,3.3,14.59a1.61,1.61,0,1,0,3.14-.71l-3.3-14.59,2.67-.6a1.61,1.61,0,0,0,1.21-1.93l-2.84-12.55A6.76,6.76,0,0,0,126.54,60.43ZM99.94,135l-22.66,5.19a2.33,2.33,0,0,1-2.8-1.75L64.79,96.21l24.94-5.72ZM89.09,87.37l-26.52,6L59.9,94,57.42,83a3.53,3.53,0,0,1,2.67-4.23L85.69,73a9.51,9.51,0,0,1-7.38,9.74A1.61,1.61,0,0,0,79,85.85a12.71,12.71,0,0,0,8.31-6.25l1.76,7.77ZM85,69.17l.14.63-4.39,1a4.5,4.5,0,1,1,3.4-5.38Zm27.46,63.07L103,134.37,89,72.23l9.42-2.13ZM97.67,67l-9.42,2.13-.14-.63a4.82,4.82,0,1,1,9.41-2.13Zm3-1.34-.85-3.76a4.51,4.51,0,1,1,5.39,3.4l-4.4,1ZM134,77.22l-2.67.61-26.52,6L103,76.05a12.69,12.69,0,0,0,10.19,2.06A1.61,1.61,0,0,0,112.5,75a9.48,9.48,0,0,1-10.85-5.61l25.6-5.79a3.53,3.53,0,0,1,4.23,2.67Z"/><path class="cls-3" d="M87.38,101.68a1.6,1.6,0,0,0-1.22,1.92l3.3,14.59a1.61,1.61,0,0,0,3.14-.71l-3.3-14.59A1.6,1.6,0,0,0,87.38,101.68Z"/><path class="cls-3" d="M86,95.61a1.61,1.61,0,0,0-1.21,1.92v0a1.6,1.6,0,1,0,3.13-.71v0A1.61,1.61,0,0,0,86,95.61Z"/><path class="cls-3" d="M136.82,97.06a1.63,1.63,0,0,0-1.22-.21,1.58,1.58,0,0,0-1,.71,1.61,1.61,0,0,0,2.72,1.72,1.63,1.63,0,0,0,.21-1.22A1.58,1.58,0,0,0,136.82,97.06Z"/><path d="M167.53,130.81a10.38,10.38,0,0,1,.73-4.06c1.84-5.16,6-6.67,10.26-5.15,5.09,1.82,6.63,6.47,5,11a9.28,9.28,0,0,1-2,3.44l-2.44-1.64a7.88,7.88,0,0,0,1.57-2.64c.95-2.68.08-5.34-3.24-6.52-3-1.07-5.5,0-6.58,3a8.79,8.79,0,0,0-.52,3Z"/><path d="M163.31,152.06c-4.3-2.91-5.14-7.29-2.54-11.12s7.11-4.19,10.85-1.66c3.94,2.67,5.17,7.17,2.55,11C171.44,154.35,166.94,154.51,163.31,152.06Zm6.25-9.6c-2.57-1.74-5.2-1.76-6.54.23s-.23,4.44,2.32,6.17c2.36,1.59,5.15,1.84,6.53-.21S172.11,144.19,169.56,142.46Z"/><path d="M146.05,165.13c1.25,1.43,2.76,3.18,4.21,5l.05,0c-.89-1.88-1.79-4.05-2.48-5.88l-2.39-6,2.17-1.76,5.18,3.71c1.57,1.12,3.41,2.53,5,3.9l0,0c-1.28-1.72-2.76-3.66-3.91-5.27l-3.56-4.86,2.57-2.09,9.18,13-3.71,3-4.53-3.14c-1.54-1.11-3.17-2.34-4.61-3.56l0,0c.8,1.7,1.7,3.67,2.41,5.37l2,5.15L150,174.54l-10.64-11.78,2.73-2.2Z"/><path d="M139.69,180.07a28.39,28.39,0,0,1-4.15,2.1,8.74,8.74,0,0,1-4.66,1,3.46,3.46,0,0,1-3-2.12,3.59,3.59,0,0,1,1.1-4.13l0,0a4,4,0,0,1-4.42-2.37,4.21,4.21,0,0,1,.21-3.74c.71-1.29,2.29-2.52,5.19-3.74a28.53,28.53,0,0,1,3.67-1.29Zm-8.36-10.7a12.27,12.27,0,0,0-1.29.5c-1.5.63-2.58,1.75-1.94,3.29s2.19,1.5,3.84.81l1.13-.48Zm2.73,6.49-1.08.45c-1.74.73-2.37,1.84-1.91,2.92s1.55,1.34,3.05.71a9.92,9.92,0,0,0,1.37-.68Z"/><path d="M116.21,187.93,113,172.4l3.53-.72,3.18,15.53Z"/><path d="M95.13,189.3a32.25,32.25,0,0,1-4.84-.29c-3-.39-4.85-1.17-6.22-2.51a7,7,0,0,1-1.9-6.26,8,8,0,0,1,3.43-6c1.83-1.17,4.43-1.5,7.51-1.1a30.19,30.19,0,0,1,4,.75ZM93.21,176a6.65,6.65,0,0,0-1.22-.23c-3.22-.43-5.55,1.07-6,4.82-.44,3.27,1.25,5.24,4.31,5.63a7.65,7.65,0,0,0,1.62.07Z"/><path d="M66.16,172.93l5.43,2.14,1.38-3.5-6.06-2.39L68,166.45l9.4,3.71L71.57,184.9l-9.09-3.59,1.07-2.74,5.76,2.28,1.21-3.07-5.43-2.14Z"/><path d="M57.1,164.73l3.28-2.66,3,2.16-13.13,10.1-3.83-2.73,5.19-15.76,3.14,2.24-1.37,4Zm-4.83-.15-1.15,3.31c-.31.93-.76,2.05-1.12,3l0,0c.74-.63,1.63-1.47,2.37-2.06l2.71-2.2Z"/><path d="M35.49,162l-2.36-2.71,9.68-8.43-4.14-4.76,2.27-2,6.5,7.46Z"/><line class="cls-4" x1="2.08" y1="106.77" x2="34.27" y2="99.49"/><line class="cls-4" x1="159.22" y1="71.74" x2="191.41" y2="64.45"/><line class="cls-4" x1="7.82" y1="132.13" x2="40" y2="124.85"/><line class="cls-4" x1="164.96" y1="97.09" x2="197.15" y2="89.81"/></svg>