<?xml version="1.0" encoding="iso-8859-1"?>
<!-- Generator: Adobe Illustrator 19.0.0, SVG Export Plug-In . SVG Version: 6.00 Build 0)  -->
<svg version="1.1" id="Layer_1" xmlns="http://www.w3.org/2000/svg" xmlns:xlink="http://www.w3.org/1999/xlink" x="0px" y="0px"
	 viewBox="0 0 512 512" style="enable-background:new 0 0 512 512;" xml:space="preserve">
<g>
	<g>
		<path d="M504.5,450H391.266V291.37h7.802c4.142,0,7.5-3.358,7.5-7.5v-35.867c0-4.142-3.358-7.5-7.5-7.5h-64.53
			c13.721-30.75,8.492-69.652,8.232-71.505c-0.521-3.702-3.688-6.456-7.427-6.456h-54.4v-6.241h171.431c4.142,0,7.5-3.358,7.5-7.5
			v-19.61c0-0.02-0.003-0.04-0.003-0.06s0.003-0.04,0.003-0.06V117.01h5.413c6.442,0,11.683-5.241,11.683-11.683V58.683
			c0-6.442-5.241-11.683-11.683-11.683h-25.832c-6.442,0-11.684,5.241-11.684,11.683v46.644c0,6.442,5.241,11.683,11.684,11.683
			h5.419v4.681h-65.756c-4.142,0-7.5,3.358-7.5,7.5c0,4.142,3.358,7.5,7.5,7.5h65.756v4.61H280.942v-3.047
			c0-0.524-0.022-1.044-0.054-1.563h58.817c4.142,0,7.5-3.358,7.5-7.5c0-4.142-3.358-7.5-7.5-7.5h-65.084
			c-0.318-0.356-0.645-0.707-0.986-1.048c-4.699-4.71-10.962-7.305-17.636-7.305c-13.753,0-24.942,11.177-24.942,24.916v24.288
			h-54.4c-3.739,0-6.907,2.754-7.427,6.456c-0.26,1.853-5.49,40.755,8.232,71.505h-64.53c-4.142,0-7.5,3.358-7.5,7.5v35.867
			c0,4.142,3.358,7.5,7.5,7.5h7.802v62.891c0,4.142,3.358,7.5,7.5,7.5c4.142,0,7.5-3.358,7.5-7.5V291.37h11.032v158.627h-11.032
			v-59.15c0-4.142-3.358-7.5-7.5-7.5c-4.142,0-7.5,3.358-7.5,7.5V450H7.5c-4.142,0-7.5,3.358-7.5,7.5c0,4.142,3.358,7.5,7.5,7.5h497
			c4.142,0,7.5-3.358,7.5-7.5C512,453.358,508.642,450,504.5,450z M442.77,102.01V62h19.199v40.01H442.77z M246.058,138.254
			c0-5.467,4.46-9.916,9.942-9.916c2.66,0,5.151,1.029,7.025,2.907c1.881,1.879,2.917,4.368,2.917,7.008v24.288h-19.884V138.254z
			 M183.475,177.542h145.051c0.127,1.814,0.242,3.964,0.317,6.363H183.158C183.232,181.507,183.348,179.357,183.475,177.542z
			 M328.632,198.906c-0.814,13.348-3.563,29.104-10.935,41.598H194.303c-7.372-12.494-10.121-28.25-10.935-41.598H328.632z
			 M120.432,276.37v-20.867h271.136v20.867H120.432z M350.234,450L350.234,450H161.767V291.37h188.467V450z M376.266,449.998
			h-11.032V291.37h11.032V449.998z"/>
	</g>
</g>
<g>
	<g>
		<path d="M336.444,354.836h-17.665c-4.142,0-7.5,3.358-7.5,7.5c0,4.142,3.358,7.5,7.5,7.5h10.165v54.803H183.057v-54.803h96.66
			c4.142,0,7.5-3.358,7.5-7.5c0-4.142-3.358-7.5-7.5-7.5h-104.16c-4.142,0-7.5,3.358-7.5,7.5v69.803c0,4.142,3.358,7.5,7.5,7.5
			h160.887c4.142,0,7.5-3.358,7.5-7.5v-69.803C343.944,358.194,340.586,354.836,336.444,354.836z"/>
	</g>
</g>
<g>
	<g>
		<path d="M256,374.881c-12.335,0-22.371,10.029-22.371,22.357c0,12.327,10.036,22.356,22.371,22.356s22.371-10.029,22.371-22.356
			C278.371,384.91,268.335,374.881,256,374.881z M256,404.594c-4.064,0-7.371-3.3-7.371-7.356c0-4.057,3.307-7.357,7.371-7.357
			c4.064,0,7.371,3.3,7.371,7.357C263.371,401.294,260.064,404.594,256,404.594z"/>
	</g>
</g>
<g>
</g>
<g>
</g>
<g>
</g>
<g>
</g>
<g>
</g>
<g>
</g>
<g>
</g>
<g>
</g>
<g>
</g>
<g>
</g>
<g>
</g>
<g>
</g>
<g>
</g>
<g>
</g>
<g>
</g>
</svg>
