<svg id="Layer_1" data-name="Layer 1" xmlns="http://www.w3.org/2000/svg" viewBox="0 0 512 512"><defs><style>.cls-1{fill:#fff;}</style></defs><path class="cls-1" d="M464,144H424.7A82.66,82.66,0,0,0,440,96c0-44.1-33.4-80-74.5-80-42.3,0-66.8,25.4-109.5,95.8C213.3,41.4,188.8,16,146.5,16,105.4,16,72,51.9,72,96a82.66,82.66,0,0,0,15.3,48H48A48,48,0,0,0,0,192v96a16,16,0,0,0,16,16H32V448a48,48,0,0,0,48,48H432a48,48,0,0,0,48-48V304h16a16,16,0,0,0,16-16V192A48,48,0,0,0,464,144Zm-187.8-3.6c49.5-83.3,66-92.4,89.3-92.4S408,69.5,408,96s-19.1,48-42.5,48H274ZM146.5,48c23.4,0,39.8,9.1,89.3,92.4l2.1,3.6H146.4c-23.4,0-42.5-21.5-42.5-48S123.1,48,146.5,48ZM192,464H80a16,16,0,0,1-16-16V304H192Zm0-192H32V192a16,16,0,0,1,16-16H192Zm96,192H224V176h64Zm160-16a16,16,0,0,1-16,16H320V304H448Zm32-176H320V176H464a16,16,0,0,1,16,16Z"/></svg>
