<svg id="Layer_1" data-name="Layer 1" xmlns="http://www.w3.org/2000/svg" viewBox="0 0 200 200"><defs><style>.cls-1{fill:none;stroke:#000;stroke-miterlimit:10;stroke-width:3px;}</style></defs><path d="M100.09,0V3A97,97,0,0,1,194.61,78.6a97,97,0,0,1-73.21,116,97,97,0,0,1-116-73.21A97,97,0,0,1,78.6,5.39,97.52,97.52,0,0,1,100.09,3V0m0,0a100,100,0,1,0,97.45,78A100.37,100.37,0,0,0,100.09,0Z"/><path d="M29.45,77a10.21,10.21,0,0,1-.26,4.12c-1.26,5.34-5.22,7.3-9.62,6.27-5.26-1.23-7.31-5.67-6.21-10.34a9.36,9.36,0,0,1,1.57-3.64l2.61,1.36a7.66,7.66,0,0,0-1.26,2.79c-.65,2.77.51,5.31,3.95,6.12,3.09.73,5.46-.65,6.19-3.76a8.75,8.75,0,0,0,.18-3Z"/><path d="M31.25,55.37C35.85,57.78,37.18,62,35,66.13s-6.6,5-10.6,2.87c-4.21-2.2-5.95-6.54-3.78-10.68C22.91,54,27.37,53.34,31.25,55.37ZM26.12,65.61c2.75,1.44,5.37,1.16,6.48-1s-.28-4.44-3-5.87c-2.53-1.32-5.32-1.25-6.47.94S23.4,64.18,26.12,65.61Z"/><path d="M46.94,40.46c-1.4-1.29-3.09-2.86-4.73-4.47l-.05,0c1.09,1.77,2.24,3.82,3.13,5.56l3,5.71-2,2L40.81,46.2c-1.68-.93-3.67-2.14-5.4-3.32l0,0c1.46,1.57,3.15,3.34,4.47,4.81l4.09,4.43L41.6,54.51,31,42.66l3.36-3.4,4.85,2.61c1.65.94,3.4,2,5,3l0,0c-1-1.61-2.1-3.46-3-5.07l-2.56-4.9L42,31.55,53.88,42.06l-2.45,2.49Z"/><path d="M51.63,24.87a29.62,29.62,0,0,1,3.88-2.55A8.81,8.81,0,0,1,60,20.82a3.43,3.43,0,0,1,3.17,1.77,3.58,3.58,0,0,1-.62,4.23l0,0a4,4,0,0,1,4.66,1.87,4.21,4.21,0,0,1,.21,3.73c-.56,1.37-2,2.76-4.74,4.3a28,28,0,0,1-3.5,1.69Zm6.06,3.56,1-.57c1.63-.92,2.14-2.09,1.56-3.12s-1.69-1.15-3.11-.36a9.88,9.88,0,0,0-1.28.83Zm3.44,6.13a13.38,13.38,0,0,0,1.23-.63c1.41-.8,2.37-2,1.55-3.49s-2.34-1.24-3.9-.37l-1.07.6Z"/><path d="M74.05,14.43l4.89,15.08-3.42,1.11L70.63,15.55Z"/><path d="M94.86,10.73a32,32,0,0,1,4.85-.25c3,0,5,.62,6.46,1.8a7,7,0,0,1,2.58,6A8,8,0,0,1,106,24.66c-1.69,1.36-4.24,2-7.34,1.93a31.48,31.48,0,0,1-4.07-.3Zm3.38,13a6.45,6.45,0,0,0,1.25.1c3.24.07,5.39-1.68,5.45-5.46.07-3.29-1.82-5.06-4.9-5.12a7.34,7.34,0,0,0-1.63.12Z"/><path d="M125.45,23.74l-5.63-1.52-1,3.63,6.29,1.7-.76,2.83-9.76-2.62,4.12-15.3L128.17,15l-.76,2.84-6-1.61-.86,3.18,5.63,1.51Z"/><path d="M135.38,30.86l-2.95,3-3.25-1.8,11.91-11.51,4.11,2.27-3.37,16.25-3.38-1.87.9-4.15Zm4.82-.4L141,27c.21-.95.54-2.12.79-3.06l-.05,0c-.66.71-1.44,1.64-2.11,2.32l-2.45,2.49Z"/><path d="M157.06,31.08l2.66,2.42L151.1,43l4.68,4.23-2,2.24-7.33-6.65Z"/><path d="M160.69,52a9.2,9.2,0,0,0,1.47,3.83c.94,1.35,2,1.67,2.84,1.08s.84-1.51.32-3.46c-.76-2.68-.54-4.92,1.35-6.24,2.21-1.55,5.2-.88,7.34,2.19a9.71,9.71,0,0,1,1.66,3.77l-2.83,1A7.57,7.57,0,0,0,171.56,51c-.89-1.27-1.9-1.49-2.57-1-.83.58-.69,1.57-.15,3.69.75,2.89.3,4.8-1.53,6.08-2.18,1.52-5.2,1.13-7.69-2.44a10.32,10.32,0,0,1-1.77-4.23Z"/><path d="M126.54,60.43l-15.23,3.44a7.72,7.72,0,1,0-14.8-3.62,8,8,0,0,0-10.1,2.29,7.72,7.72,0,1,0-11.8,9.64L59.38,75.62a6.75,6.75,0,0,0-5.1,8.08l2.84,12.56A1.6,1.6,0,0,0,59,97.47l2.67-.6,9.57,42.29a5.56,5.56,0,0,0,6.64,4.19l24.24-5.49L114.71,135,139,129.54a5.57,5.57,0,0,0,4.19-6.64l-3.54-15.62a1.6,1.6,0,1,0-3.13.71L140,123.61a2.34,2.34,0,0,1-1.76,2.79l-22.68,5.13L105.49,87l25-5.64,3.3,14.59a1.61,1.61,0,1,0,3.14-.71l-3.3-14.59,2.67-.6a1.61,1.61,0,0,0,1.21-1.93l-2.84-12.55A6.76,6.76,0,0,0,126.54,60.43ZM99.88,135.08l-22.67,5.13a2.35,2.35,0,0,1-2.8-1.76L64.85,96.16l25-5.65ZM89.09,87.37l-26.52,6L59.9,94,57.42,83a3.53,3.53,0,0,1,2.67-4.23L85.69,73a9.51,9.51,0,0,1-7.38,9.74A1.61,1.61,0,0,0,79,85.85a12.71,12.71,0,0,0,8.31-6.25l1.76,7.77ZM85,69.17l.14.63-4.39,1a4.5,4.5,0,1,1,3.4-5.38Zm27.46,63.07L103,134.37,89,72.23l9.42-2.13ZM97.67,67l-9.42,2.13-.14-.63a4.82,4.82,0,1,1,9.41-2.13Zm3-1.34-.85-3.76a4.51,4.51,0,1,1,5.39,3.4l-4.4,1ZM134,77.22l-2.67.61-26.52,6L103,76.05a12.69,12.69,0,0,0,10.19,2.06A1.61,1.61,0,0,0,112.5,75a9.48,9.48,0,0,1-10.85-5.61l25.6-5.79a3.53,3.53,0,0,1,4.23,2.67Z"/><path d="M87.38,101.68a1.6,1.6,0,0,0-1.22,1.92l3.3,14.59a1.61,1.61,0,0,0,3.14-.71l-3.3-14.59A1.6,1.6,0,0,0,87.38,101.68Z"/><path d="M86,95.61a1.61,1.61,0,0,0-1.21,1.92v0a1.6,1.6,0,1,0,3.13-.71v0A1.61,1.61,0,0,0,86,95.61Z"/><path d="M136.82,97.06a1.63,1.63,0,0,0-1.22-.21,1.58,1.58,0,0,0-1,.71,1.61,1.61,0,0,0,2.72,1.72,1.63,1.63,0,0,0,.21-1.22A1.58,1.58,0,0,0,136.82,97.06Z"/><path d="M100.06,34v3A63,63,0,0,1,161.45,86.1a63,63,0,0,1-47.55,75.35A63,63,0,0,1,38.55,113.9,63,63,0,0,1,86.1,38.55a63.36,63.36,0,0,1,14-1.56V34m0,0a66,66,0,1,0,64.31,51.45A66.13,66.13,0,0,0,100.06,34Z"/><path d="M170.55,123a10.27,10.27,0,0,1,.27-4.12c1.25-5.33,5.21-7.3,9.61-6.27,5.26,1.23,7.31,5.68,6.22,10.35a9.5,9.5,0,0,1-1.58,3.63l-2.61-1.35a7.63,7.63,0,0,0,1.26-2.8c.65-2.77-.51-5.31-3.95-6.12-3.09-.73-5.46.65-6.19,3.76a9,9,0,0,0-.18,3Z"/><path d="M168.76,144.63c-4.61-2.41-5.94-6.66-3.79-10.76s6.6-5,10.6-2.87c4.21,2.21,6,6.54,3.78,10.68C177.09,146,172.63,146.66,168.76,144.63Zm5.12-10.24c-2.75-1.44-5.36-1.16-6.48,1s.28,4.45,3,5.87c2.52,1.32,5.32,1.25,6.46-.94S176.61,135.82,173.88,134.39Z"/><path d="M153.06,159.54c1.4,1.29,3.09,2.86,4.73,4.47l.05,0c-1.09-1.77-2.23-3.82-3.13-5.56l-3-5.71,2-2,5.56,3.11c1.68.94,3.67,2.14,5.41,3.32l0,0c-1.46-1.57-3.15-3.34-4.47-4.81l-4.09-4.43,2.33-2.36L169,157.34l-3.35,3.4-4.86-2.61c-1.65-.94-3.4-2-5-3l0,.05c1,1.61,2.1,3.46,3,5.07l2.56,4.9L158,168.45l-11.89-10.51,2.46-2.49Z"/><path d="M148.37,175.13a29.62,29.62,0,0,1-3.88,2.55,8.62,8.62,0,0,1-4.51,1.5,3.43,3.43,0,0,1-3.18-1.77,3.58,3.58,0,0,1,.62-4.23l0,0a4,4,0,0,1-4.66-1.87,4.21,4.21,0,0,1-.2-3.73c.55-1.37,2-2.76,4.73-4.3a28,28,0,0,1,3.5-1.69Zm-9.49-9.69a11.63,11.63,0,0,0-1.24.64c-1.41.79-2.36,2-1.55,3.48s2.35,1.24,3.9.37l1.07-.6Zm3.43,6.13-1,.57c-1.64.92-2.15,2.09-1.57,3.12s1.69,1.15,3.11.36a10.22,10.22,0,0,0,1.29-.83Z"/><path d="M126,185.57l-4.89-15.08,3.42-1.11,4.89,15.08Z"/><path d="M105.14,189.27a31.83,31.83,0,0,1-4.84.25c-3-.05-5-.62-6.46-1.8a7,7,0,0,1-2.58-6A8,8,0,0,1,94,175.34c1.69-1.36,4.24-2,7.35-1.93a31.45,31.45,0,0,1,4.06.3Zm-3.38-13a5.76,5.76,0,0,0-1.25-.09c-3.24-.08-5.38,1.67-5.45,5.45-.07,3.3,1.83,5.06,4.9,5.12a7.34,7.34,0,0,0,1.63-.12Z"/><path d="M74.55,176.26l5.63,1.52,1-3.63-6.29-1.69.76-2.84,9.76,2.63-4.11,15.29L71.83,185l.77-2.83,6,1.6.85-3.18-5.63-1.51Z"/><path d="M64.62,169.14l2.95-3,3.25,1.8L58.91,179.44l-4.11-2.27,3.38-16.24,3.37,1.86-.9,4.15Zm-4.82.4L59,173c-.21,1-.53,2.12-.78,3.06l0,0c.66-.71,1.45-1.64,2.12-2.32l2.45-2.49Z"/><path d="M43,168.92l-2.67-2.41L48.9,157l-4.67-4.23,2-2.23,7.34,6.64Z"/><path d="M39.31,148a9.22,9.22,0,0,0-1.46-3.82c-.94-1.35-2-1.68-2.85-1.09s-.84,1.51-.31,3.46c.75,2.68.54,4.92-1.35,6.24-2.22,1.55-5.21.88-7.35-2.19a9.67,9.67,0,0,1-1.65-3.77l2.83-1A7.53,7.53,0,0,0,28.44,149c.89,1.27,1.9,1.49,2.57,1,.83-.58.69-1.57.16-3.69-.75-2.89-.31-4.8,1.52-6.08,2.18-1.52,5.2-1.13,7.69,2.44a10.5,10.5,0,0,1,1.78,4.23Z"/><line class="cls-1" x1="2.08" y1="106.77" x2="34.27" y2="99.49"/><line class="cls-1" x1="159.22" y1="71.74" x2="191.41" y2="64.45"/><line class="cls-1" x1="7.82" y1="132.13" x2="40" y2="124.85"/><line class="cls-1" x1="164.96" y1="97.09" x2="197.15" y2="89.81"/></svg>