<?xml version="1.0" encoding="iso-8859-1"?>
<!-- Generator: Adobe Illustrator 19.0.0, SVG Export Plug-In . SVG Version: 6.00 Build 0)  -->
<svg version="1.1" id="Layer_1" xmlns="http://www.w3.org/2000/svg" xmlns:xlink="http://www.w3.org/1999/xlink" x="0px" y="0px"
	 viewBox="0 0 512 512" style="enable-background:new 0 0 512 512;" xml:space="preserve">
<g>
	<g>
		<path d="M437.901,78.702h-92.36c-1.12-2.785-3.835-4.702-6.952-4.702h-25.044c-4.143,0-7.5,3.357-7.5,7.5s3.357,7.5,7.5,7.5
			h18.559l7.893,54.129H44.419c-3.157-13.067-8.419-25.43-15.689-36.82L17.711,89h250.318c4.143,0,7.5-3.357,7.5-7.5
			s-3.357-7.5-7.5-7.5H11.714C7.435,74,3.5,76.329,1.443,80.077c-2.055,3.744-1.906,8.308,0.388,11.91l14.251,22.384
			c7.362,11.538,12.381,24.204,14.915,37.653c0.287,1.516,0.541,3.035,0.762,4.557c1.547,10.65,1.475,21.414-0.219,32.061
			l-0.325,2.025c-0.004,0.026-0.004,0.052-0.008,0.079l-2.991,18.856c-0.648,4.092,2.143,7.934,6.233,8.581
			c0.397,0.063,0.793,0.094,1.183,0.094c3.625,0,6.814-2.634,7.399-6.327l1.998-12.593h303.174
			c0.176,1.84,20.249,139.356,20.608,141.184c3.017,20.688-3.105,41.634-16.794,57.464C338.279,413.89,318.341,423,297.313,423
			H94.162c-21.208,0-41.259-9.237-55.012-25.345c-13.696-16.042-19.657-37.178-16.353-57.989l13.646-86.135
			c0.648-4.092-2.143-7.934-6.233-8.581c-4.093-0.651-7.934,2.144-8.581,6.233L7.983,337.316
			c-3.993,25.15,3.209,50.693,19.76,70.079C44.349,426.845,68.557,438,94.162,438h203.151c25.386,0,49.461-11.002,66.049-30.185
			c16.541-19.127,23.938-44.438,20.291-69.44l-3.592-24.607c8.681,7.942,19.513,13.26,31.881,15.309
			c1.294,0.209,2.604,0.314,3.891,0.314c7.003,0,13.629-3.065,18.179-8.41c4.623-5.43,6.523-12.419,5.35-19.68
			c-1.591-9.845-9.484-17.59-19.645-19.274c-7.112-1.178-11.534-6.291-13.521-15.643c-0.275-1.289-0.692-3.237,5.816-7.557
			c7.582-5.04,19.892-9.508,35.599-12.918c4.048-0.879,6.616-4.873,5.737-8.921c-0.88-4.048-4.871-6.62-8.921-5.737
			c-17.516,3.803-31.597,9.02-40.714,15.082c-13.459,8.93-13.401,17.511-12.188,23.179c4.416,20.786,18.022,26.034,25.739,27.313
			c3.798,0.629,6.727,3.389,7.288,6.868c0.591,3.652-0.741,6.129-1.962,7.563c-1.696,1.991-4.159,3.134-6.758,3.134
			c-0.491,0-0.998-0.042-1.473-0.118c-20.426-3.385-35.459-18.748-40.223-41.154l-0.021-0.101c-0.004-0.022-0.009-0.044-0.013-0.067
			l-0.699-4.787c-2.146-25.438,21.094-44.174,67.238-54.188c22.726-4.933,38.597-24.484,38.597-47.547v-13.772
			c0-22.757-18.544-41.271-41.338-41.271h-87.373L347.948,93.7H437.9c32.587,0,59.098,26.447,59.098,58.956v13.772
			c0,17.295-6.804,33.748-19.158,46.327c-2.902,2.955-2.86,7.703,0.096,10.605c1.46,1.435,3.357,2.149,5.255,2.149
			c1.941,0,3.883-0.75,5.351-2.245C503.67,207.867,512,187.682,512,166.431v-13.772C512,111.879,478.759,78.702,437.901,78.702z
			 M437.901,126.386v0.001c14.523,0,26.338,11.785,26.338,26.271v13.772c0,15.942-11.012,29.466-26.779,32.889
			c-38.098,8.268-58.424,21.818-68.9,35.656l-6.452-44.202l-9.392-64.387H437.901z M47.226,184.356
			c0.124-1.201,0.226-2.403,0.314-3.605c0.016-0.221,0.026-0.442,0.041-0.663c0.095-1.4,0.164-2.8,0.21-4.201
			c0.009-0.282,0.022-0.564,0.03-0.846c0.04-1.516,0.049-3.033,0.031-4.55c-0.004-0.325-0.012-0.65-0.019-0.975
			c-0.029-1.46-0.078-2.92-0.159-4.378c-0.007-0.116-0.009-0.232-0.016-0.348c-0.09-1.533-0.218-3.064-0.366-4.594
			c-0.034-0.351-0.069-0.702-0.106-1.053c-0.036-0.338-0.063-0.677-0.102-1.015h295.101l3.827,26.228H47.226z"/>
	</g>
</g>
<g>
</g>
<g>
</g>
<g>
</g>
<g>
</g>
<g>
</g>
<g>
</g>
<g>
</g>
<g>
</g>
<g>
</g>
<g>
</g>
<g>
</g>
<g>
</g>
<g>
</g>
<g>
</g>
<g>
</g>
</svg>
