<?xml version="1.0" encoding="iso-8859-1"?>
<!-- Generator: Adobe Illustrator 19.0.0, SVG Export Plug-In . SVG Version: 6.00 Build 0)  -->
<svg version="1.1" id="Layer_1" xmlns="http://www.w3.org/2000/svg" xmlns:xlink="http://www.w3.org/1999/xlink" x="0px" y="0px"
	 viewBox="0 0 512 512" style="enable-background:new 0 0 512 512;" xml:space="preserve">
<g>
	<g>
		<path d="M507.208,224.073l-17.144-17.145c11.827-20.376,18.138-43.591,18.138-67.779c0-36.154-14.079-70.144-39.643-95.709
			C442.993,17.876,409.003,3.797,372.85,3.797c-24.188,0-47.403,6.311-67.779,18.138L287.927,4.791
			c-6.388-6.385-16.794-6.392-23.205,0.001l-32.783,32.794c-3.104,3.094-4.815,7.212-4.818,11.594
			c-0.003,4.388,1.705,8.514,4.81,11.619l19.14,19.139c-8.875,18.216-13.571,38.351-13.571,59.211
			c0,27.092,7.907,52.97,22.628,74.997l-34.257,34.265l-4.919-4.919c-1.406-1.406-3.315-2.196-5.303-2.196
			c-1.989,0-3.897,0.79-5.304,2.197l-63.636,63.642c-2.929,2.929-2.928,7.678,0,10.607c2.93,2.928,7.678,2.929,10.607-0.001
			l58.333-58.338l36.948,36.949L146.253,402.706l-36.949-36.949l21.766-21.768c2.929-2.929,2.928-7.678,0-10.607
			c-2.93-2.928-7.678-2.929-10.607,0.001l-22.778,22.78c-1.746-0.651-3.607-1.008-5.527-1.008c-4.22,0-8.187,1.643-11.171,4.626
			l-66.234,66.235C5.239,435.53,0,448.177,0,461.632c0,13.454,5.239,26.102,14.753,35.615C24.266,506.761,36.914,512,50.368,512
			c13.454,0,26.102-5.239,35.615-14.752l66.234-66.234c2.984-2.984,4.628-6.952,4.628-11.171c0-1.914-0.355-3.77-1.003-5.512
			l112.665-112.675c2.929-2.929,2.929-7.677,0-10.606l-4.909-4.909l34.289-34.298c18.869,12.548,40.725,20.257,63.529,22.18
			c0.214,0.018,0.427,0.026,0.639,0.026c3.856,0,7.135-2.957,7.465-6.87c0.348-4.127-2.716-7.756-6.844-8.104
			c-28.243-2.381-54.853-14.747-74.926-34.823c-4.215-4.215-8.078-8.689-11.576-13.385c-0.141-0.214-0.293-0.423-0.458-0.625
			c-15.071-20.5-23.216-45.168-23.216-71.09c0-20.015,4.855-39.283,14.004-56.462c0.238-0.356,0.437-0.731,0.608-1.115
			c5.456-9.987,12.368-19.253,20.639-27.524c6.121-6.121,12.79-11.495,19.889-16.09c0.265-0.149,0.521-0.318,0.77-0.502
			C327.5,25.309,349.675,18.8,372.851,18.8c32.147,0,62.37,12.519,85.101,35.25c22.732,22.731,35.251,52.954,35.251,85.102
			c0,23.176-6.508,45.35-18.657,64.439c-0.186,0.251-0.356,0.51-0.506,0.777c-4.595,7.097-9.967,13.764-16.087,19.884
			c-8.328,8.328-17.74,15.321-27.937,20.831c-0.017,0.009-0.035,0.018-0.052,0.027c-9.896,5.341-20.53,9.289-31.646,11.683
			c-4.05,0.872-6.625,4.862-5.753,8.911c0.873,4.051,4.873,6.624,8.911,5.753c10.636-2.292,20.876-5.857,30.55-10.562l19.175,19.175
			c3.103,3.102,7.224,4.81,11.607,4.81c0.004,0,0.009,0,0.013,0c4.382-0.003,8.5-1.715,11.585-4.81l32.811-32.801
			C513.598,240.866,513.594,230.46,507.208,224.073z M141.611,420.405L75.377,486.64C68.697,493.321,59.815,497,50.368,497
			c-9.447,0-18.328-3.679-25.009-10.358c0-0.001,0-0.001,0-0.001C18.679,479.96,15,471.079,15,461.632
			c0-9.448,3.679-18.329,10.359-25.008l66.234-66.235c0.155-0.155,0.345-0.233,0.564-0.233c0.219,0,0.409,0.078,0.564,0.233
			l48.889,48.889c0.155,0.155,0.234,0.346,0.234,0.564C141.844,420.06,141.766,420.25,141.611,420.405z M277.143,234.857
			c2.765,2.765,5.642,5.398,8.617,7.899l-32.769,32.776l-16.514-16.514l32.766-32.773
			C271.742,229.207,274.371,232.085,277.143,234.857z M277.142,43.44c-7.04,7.04-13.203,14.722-18.447,22.909l-16.158-16.158
			c-0.345-0.345-0.417-0.734-0.417-1c0-0.263,0.071-0.646,0.417-0.991l32.783-32.794c0.556-0.553,1.45-0.557,2-0.008l14.959,14.958
			C286.968,34.308,281.908,38.674,277.142,43.44z M496.601,236.67l-32.811,32.8c-0.336,0.337-0.72,0.408-0.983,0.408h-0.001
			c-0.267,0-0.655-0.072-0.999-0.417l-16.176-16.176c8.231-5.258,15.921-11.423,22.927-18.429
			c4.766-4.766,9.132-9.826,13.083-15.138l14.959,14.96C497.149,235.228,497.145,236.124,496.601,236.67z"/>
	</g>
</g>
<g>
	<g>
		<path d="M450.498,61.5c-30.581-30.58-76.453-40.372-116.871-24.946c-3.869,1.478-5.81,5.812-4.332,9.682
			c1.478,3.871,5.815,5.809,9.682,4.332c34.899-13.321,74.51-4.865,100.915,21.54c36.967,36.967,36.967,97.115,0,134.082
			c-17.907,17.908-41.716,27.77-67.04,27.77c-25.326,0-49.135-9.862-67.041-27.77c-17.909-17.907-27.771-41.716-27.771-67.041
			c0-25.326,9.862-49.135,27.771-67.042c2.929-2.93,2.929-7.678,0-10.608c-2.931-2.926-7.679-2.926-10.609,0.001
			c-20.741,20.741-32.164,48.318-32.164,77.649s11.423,56.907,32.164,77.648c20.741,20.741,48.317,32.163,77.649,32.163
			c29.331,0,56.907-11.422,77.648-32.163C493.314,173.982,493.314,104.315,450.498,61.5z"/>
	</g>
</g>
<g>
	<g>
		<circle cx="372.85" cy="79.02" r="7.5"/>
	</g>
</g>
<g>
	<g>
		<circle cx="372.85" cy="199.28" r="7.5"/>
	</g>
</g>
<g>
	<g>
		<circle cx="372.85" cy="104.13" r="7.5"/>
	</g>
</g>
<g>
	<g>
		<circle cx="372.85" cy="174.16" r="7.5"/>
	</g>
</g>
<g>
	<g>
		<circle cx="397.61" cy="114.39" r="7.5"/>
	</g>
</g>
<g>
	<g>
		<circle cx="348.09" cy="163.91" r="7.5"/>
	</g>
</g>
<g>
	<g>
		<circle cx="407.87" cy="139.15" r="7.5"/>
	</g>
</g>
<g>
	<g>
		<circle cx="337.83" cy="139.15" r="7.5"/>
	</g>
</g>
<g>
	<g>
		<circle cx="397.61" cy="163.91" r="7.5"/>
	</g>
</g>
<g>
	<g>
		<circle cx="348.09" cy="114.39" r="7.5"/>
	</g>
</g>
<g>
	<g>
		<circle cx="415.37" cy="96.63" r="7.5"/>
	</g>
</g>
<g>
	<g>
		<circle cx="330.33" cy="181.66" r="7.5"/>
	</g>
</g>
<g>
	<g>
		<circle cx="432.98" cy="139.15" r="7.5"/>
	</g>
</g>
<g>
	<g>
		<circle cx="372.85" cy="139.15" r="7.5"/>
	</g>
</g>
<g>
	<g>
		<circle cx="312.72" cy="139.15" r="7.5"/>
	</g>
</g>
<g>
	<g>
		<circle cx="415.37" cy="181.66" r="7.5"/>
	</g>
</g>
<g>
	<g>
		<circle cx="330.33" cy="96.63" r="7.5"/>
	</g>
</g>
<g>
	<g>
		<circle cx="395.74" cy="83.55" r="7.5"/>
	</g>
</g>
<g>
	<g>
		<circle cx="349.96" cy="194.75" r="7.5"/>
	</g>
</g>
<g>
	<g>
		<circle cx="428.35" cy="116.02" r="7.5"/>
	</g>
</g>
<g>
	<g>
		<circle cx="317.35" cy="162.28" r="7.5"/>
	</g>
</g>
<g>
	<g>
		<circle cx="428.45" cy="162.04" r="7.5"/>
	</g>
</g>
<g>
	<g>
		<circle cx="317.25" cy="116.26" r="7.5"/>
	</g>
</g>
<g>
	<g>
		<circle cx="395.98" cy="194.65" r="7.5"/>
	</g>
</g>
<g>
	<g>
		<circle cx="349.72" cy="83.65" r="7.5"/>
	</g>
</g>
<g>
</g>
<g>
</g>
<g>
</g>
<g>
</g>
<g>
</g>
<g>
</g>
<g>
</g>
<g>
</g>
<g>
</g>
<g>
</g>
<g>
</g>
<g>
</g>
<g>
</g>
<g>
</g>
<g>
</g>
</svg>
