<?xml version="1.0" encoding="iso-8859-1"?>
<!-- Generator: Adobe Illustrator 19.0.0, SVG Export Plug-In . SVG Version: 6.00 Build 0)  -->
<svg version="1.1" id="Layer_1" xmlns="http://www.w3.org/2000/svg" xmlns:xlink="http://www.w3.org/1999/xlink" x="0px" y="0px"
	 viewBox="0 0 512 512" style="enable-background:new 0 0 512 512;" xml:space="preserve">
<g>
	<g>
		<path d="M349.226,38.77h-41.8c-4.142,0-7.5,3.357-7.5,7.5v87.951c0,4.143,3.358,7.5,7.5,7.5h41.8c4.142,0,7.5-3.357,7.5-7.5V46.27
			C356.726,42.127,353.368,38.77,349.226,38.77z M341.726,126.721h-26.8V53.77h26.8V126.721z"/>
	</g>
</g>
<g>
	<g>
		<path d="M235.554,51.737H165.58c-4.142,0-7.5,3.357-7.5,7.5s3.358,7.5,7.5,7.5h69.974c4.142,0,7.5-3.357,7.5-7.5
			S239.696,51.737,235.554,51.737z"/>
	</g>
</g>
<g>
	<g>
		<path d="M235.554,82.745H165.58c-4.142,0-7.5,3.357-7.5,7.5s3.358,7.5,7.5,7.5h69.974c4.142,0,7.5-3.357,7.5-7.5
			S239.696,82.745,235.554,82.745z"/>
	</g>
</g>
<g>
	<g>
		<path d="M235.554,113.754H165.58c-4.142,0-7.5,3.357-7.5,7.5c0,4.143,3.358,7.5,7.5,7.5h69.974c4.142,0,7.5-3.357,7.5-7.5
			C243.054,117.111,239.696,113.754,235.554,113.754z"/>
	</g>
</g>
<g>
	<g>
		<path d="M419.711,455.69h-19.449v-36.465c0-4.143-3.358-7.5-7.5-7.5c-4.142,0-7.5,3.357-7.5,7.5v36.465h-32.819
			c16.373-12.796,26.913-32.604,26.913-54.817v-70.668c0-26.664-12.576-59.362-30.914-82.264h36.82v134.663
			c0,4.143,3.358,7.5,7.5,7.5c4.142,0,7.5-3.357,7.5-7.5v-39.352c1.604,0.552,3.317,0.866,5.106,0.866h10.553
			c5.493,0,9.962-4.467,9.962-9.958v-89.471c0-15.519-10.998-28.516-25.621-31.647v-45.568c7.538-0.378,13.56-6.608,13.56-14.233
			v-122.9c0-7.868-6.406-14.27-14.28-14.27H384.49C383.856,7.105,376.371,0,367.239,0h-161.48c-4.142,0-7.5,3.357-7.5,7.5
			s3.358,7.5,7.5,7.5h161.48c1.276,0,2.313,1.031,2.313,2.299v145.843c0,1.267-1.038,2.298-2.313,2.298H144.761
			c-1.276,0-2.313-1.031-2.313-2.298V17.299c0-1.268,1.038-2.299,2.313-2.299h24.962c4.142,0,7.5-3.357,7.5-7.5s-3.358-7.5-7.5-7.5
			h-24.962c-9.132,0-16.617,7.105-17.251,16.071h-15.052c-7.874,0-14.28,6.401-14.28,14.27v122.9c0,7.625,6.021,13.854,13.56,14.233
			v76.274c0,4.143,3.358,7.5,7.5,7.5c4.142,0,7.5-3.357,7.5-7.5v-76.237h1.291c1.945,7.426,8.698,12.929,16.732,12.929h4.586v15.146
			c0,4.143,3.358,7.5,7.5,7.5h201.146c4.142,0,7.5-3.357,7.5-7.5V180.44h1.747c8.034,0,14.787-5.503,16.732-12.929h1.291v44.808
			l-244.441,0.004c-5.042,0-9.145,4.103-9.145,9.145v1.707c0,15.477,12.591,28.068,28.068,28.068h0.309
			c-16.948,22.673-28.375,53.557-28.375,78.962v70.668c0,22.213,10.54,42.021,26.913,54.817h-31.855V278.219
			c0-4.143-3.358-7.5-7.5-7.5c-4.142,0-7.5,3.357-7.5,7.5V455.69H92.289c-10.36,0-18.789,8.429-18.789,18.789V504.5
			c0,4.143,3.358,7.5,7.5,7.5h350c4.142,0,7.5-3.357,7.5-7.5v-30.021C438.5,464.119,430.071,455.69,419.711,455.69z M127.447,152.51
			h-14.269V31.071h14.269V152.51z M164.347,188.086v-7.646h186.146v7.646H164.347z M384.553,152.511V31.071h14.269v121.44H384.553z
			 M344.703,227.317h48.751c9.61,0.001,17.429,7.794,17.429,17.372v84.429h-5.515c-0.406,0-0.736-0.319-0.736-0.713v-82.68
			c0-6.209-4.454-11.394-10.336-12.542c-0.258-0.054-0.52-0.094-0.786-0.121c-0.548-0.072-1.102-0.122-1.669-0.122h-47.138V227.317z
			 M159.746,236.243c-5.756,0-10.655-3.741-12.393-8.92h182.35v8.92H159.746z M146.68,400.873v-70.668
			c0-26.051,13.713-58.727,32.902-78.962h151.882c19.184,20.23,32.892,52.906,32.892,78.962v70.668
			c0,30.214-24.872,54.796-55.451,54.817H202.13C171.551,455.669,146.68,431.087,146.68,400.873z M423.5,497h-335v-22.521
			c0-2.089,1.7-3.789,3.789-3.789h327.422c2.089,0,3.789,1.7,3.789,3.789V497z"/>
	</g>
</g>
<g>
	<g>
		<path d="M350.903,339.078H188.594v-8.872c0-9.506,4.549-26.538,14.536-41.469c2.303-3.443,1.379-8.101-2.064-10.404
			c-3.443-2.303-8.101-1.379-10.404,2.064c-12.598,18.835-17.068,38.603-17.068,49.809v8.872h-13.458c-4.142,0-7.5,3.357-7.5,7.5
			v54.299c0,26.956,22.223,48.887,49.538,48.887h106.691c27.315,0,49.538-21.931,49.538-48.887v-54.299
			C358.403,342.435,355.045,339.078,350.903,339.078z M343.403,400.877c0,18.686-15.494,33.887-34.538,33.887H202.174
			c-19.045,0-34.538-15.201-34.538-33.887v-46.799h5.958v46.799c0,4.143,3.358,7.5,7.5,7.5c4.142,0,7.5-3.357,7.5-7.5v-46.799
			h154.809V400.877z"/>
	</g>
</g>
<g>
</g>
<g>
</g>
<g>
</g>
<g>
</g>
<g>
</g>
<g>
</g>
<g>
</g>
<g>
</g>
<g>
</g>
<g>
</g>
<g>
</g>
<g>
</g>
<g>
</g>
<g>
</g>
<g>
</g>
</svg>
