<svg id="Layer_1" data-name="Layer 1" xmlns="http://www.w3.org/2000/svg" viewBox="0 0 200 200"><defs><style>.cls-1{fill:#0090e3;}.cls-2,.cls-3{fill:#fff;}.cls-3{font-size:23.51px;font-family:MyriadPro-Bold, Myriad Pro;font-weight:700;}.cls-4{fill:none;stroke:#fff;stroke-miterlimit:10;stroke-width:3px;}</style></defs><path class="cls-1" d="M99.91,198.52a98.53,98.53,0,0,1-96-76.79A98.59,98.59,0,0,1,100.09,1.48a98.52,98.52,0,0,1-.18,197Z"/><path class="cls-2" d="M100.09,0V3A97,97,0,0,1,194.61,78.6a97,97,0,0,1-73.21,116,97,97,0,0,1-116-73.21A97,97,0,0,1,78.6,5.39,97.52,97.52,0,0,1,100.09,3V0m0,0a100,100,0,1,0,97.45,78A100.37,100.37,0,0,0,100.09,0Z"/><text class="cls-3" transform="translate(26.86 89.96) rotate(-76.8)">C</text><text class="cls-3" transform="translate(30.95 73.4) rotate(-62.36)">O</text><text class="cls-3" transform="matrix(0.7, -0.71, 0.71, 0.7, 40.75, 55.42)">M</text><text class="cls-3" transform="translate(57.9 39.33) rotate(-29.25)">B</text><text class="cls-3" transform="matrix(0.95, -0.31, 0.31, 0.95, 74.04, 31.15)">I</text><text class="cls-3" transform="translate(84.49 28.12) rotate(-10.28)"> </text><text class="cls-3" transform="translate(93.04 26.39) rotate(0.94)">D</text><text class="cls-3" transform="matrix(0.97, 0.26, -0.26, 0.97, 113.1, 27.41)">E</text><text class="cls-3" transform="translate(128.82 31.94) rotate(28.98)">A</text><text class="cls-3" transform="translate(145.26 41.84) rotate(42.17)">L</text><text class="cls-3" transform="matrix(0.57, 0.82, -0.82, 0.57, 156.7, 52.81)">S</text><path class="cls-2" d="M126.54,60.43l-15.23,3.44a7.72,7.72,0,1,0-14.8-3.62,8,8,0,0,0-10.1,2.29,7.72,7.72,0,1,0-11.8,9.64L59.38,75.62a6.75,6.75,0,0,0-5.1,8.08l2.84,12.56A1.6,1.6,0,0,0,59,97.47l2.67-.6,9.57,42.29a5.56,5.56,0,0,0,6.64,4.19l24.24-5.49L114.71,135,139,129.54a5.57,5.57,0,0,0,4.19-6.64l-3.54-15.62a1.6,1.6,0,1,0-3.13.71L140,123.61a2.34,2.34,0,0,1-1.76,2.79l-22.68,5.13L105.49,87l25-5.64,3.3,14.59a1.61,1.61,0,1,0,3.14-.71l-3.3-14.59,2.67-.6a1.61,1.61,0,0,0,1.21-1.93l-2.84-12.55A6.76,6.76,0,0,0,126.54,60.43ZM99.88,135.08l-22.67,5.13a2.35,2.35,0,0,1-2.8-1.76L64.85,96.16l25-5.65ZM89.09,87.37l-26.52,6L59.9,94,57.42,83a3.53,3.53,0,0,1,2.67-4.23L85.69,73a9.51,9.51,0,0,1-7.38,9.74A1.61,1.61,0,0,0,79,85.85a12.71,12.71,0,0,0,8.31-6.25l1.76,7.77ZM85,69.17l.14.63-4.39,1a4.5,4.5,0,1,1,3.4-5.38Zm27.46,63.07L103,134.37,89,72.23l9.42-2.13ZM97.67,67l-9.42,2.13-.14-.63a4.82,4.82,0,1,1,9.41-2.13Zm3-1.34-.85-3.76a4.51,4.51,0,1,1,5.39,3.4l-4.4,1ZM134,77.22l-2.67.61-26.52,6L103,76.05a12.69,12.69,0,0,0,10.19,2.06A1.61,1.61,0,0,0,112.5,75a9.48,9.48,0,0,1-10.85-5.61l25.6-5.79a3.53,3.53,0,0,1,4.23,2.67Z"/><path class="cls-2" d="M87.38,101.68a1.6,1.6,0,0,0-1.22,1.92l3.3,14.59a1.61,1.61,0,0,0,3.14-.71l-3.3-14.59A1.6,1.6,0,0,0,87.38,101.68Z"/><path class="cls-2" d="M86,95.61a1.61,1.61,0,0,0-1.21,1.92v0a1.6,1.6,0,1,0,3.13-.71v0A1.61,1.61,0,0,0,86,95.61Z"/><path class="cls-2" d="M136.82,97.06a1.63,1.63,0,0,0-1.22-.21,1.58,1.58,0,0,0-1,.71,1.61,1.61,0,0,0,2.72,1.72,1.63,1.63,0,0,0,.21-1.22A1.58,1.58,0,0,0,136.82,97.06Z"/><path class="cls-2" d="M100.06,34v3A63,63,0,0,1,161.45,86.1a63,63,0,0,1-47.55,75.35A63,63,0,0,1,38.55,113.9,63,63,0,0,1,86.1,38.55a63.36,63.36,0,0,1,14-1.56V34m0,0a66,66,0,1,0,64.31,51.45A66.13,66.13,0,0,0,100.06,34Z"/><text class="cls-3" transform="translate(173.14 110.04) rotate(103.2)">C</text><text class="cls-3" transform="translate(169.05 126.6) rotate(117.64)">O</text><text class="cls-3" transform="translate(159.25 144.59) rotate(134.64)">M</text><text class="cls-3" transform="translate(142.1 160.68) rotate(150.75)">B</text><text class="cls-3" transform="matrix(-0.95, 0.31, -0.31, -0.95, 125.97, 168.85)">I</text><text class="cls-3" transform="translate(115.52 171.88) rotate(169.72)"> </text><text class="cls-3" transform="translate(106.96 173.61) rotate(-179.07)">D</text><text class="cls-3" transform="translate(86.9 172.59) rotate(-164.94)">E</text><text class="cls-3" transform="translate(71.18 168.07) rotate(-151.02)">A</text><text class="cls-3" transform="matrix(-0.74, -0.67, 0.67, -0.74, 54.75, 158.16)">L</text><text class="cls-3" transform="matrix(-0.57, -0.82, 0.82, -0.57, 43.3, 147.19)">S</text><line class="cls-4" x1="2.08" y1="106.77" x2="34.27" y2="99.49"/><line class="cls-4" x1="159.22" y1="71.74" x2="191.41" y2="64.45"/><line class="cls-4" x1="7.82" y1="132.13" x2="40" y2="124.85"/><line class="cls-4" x1="164.96" y1="97.09" x2="197.15" y2="89.81"/></svg>