<?xml version="1.0" encoding="iso-8859-1"?>
<!-- Generator: Adobe Illustrator 19.0.0, SVG Export Plug-In . SVG Version: 6.00 Build 0)  -->
<svg version="1.1" id="Layer_1" xmlns="http://www.w3.org/2000/svg" xmlns:xlink="http://www.w3.org/1999/xlink" x="0px" y="0px"
	 viewBox="0 0 512 512" style="enable-background:new 0 0 512 512;" xml:space="preserve">
<g>
	<g>
		<circle cx="253.78" cy="163.67" r="7.5"/>
	</g>
</g>
<g>
	<g>
		<circle cx="225.22" cy="163.67" r="7.5"/>
	</g>
</g>
<g>
	<g>
		<path d="M239.687,46.3c-19.559,0-35.472,15.882-35.472,35.402c0,19.521,15.912,35.401,35.472,35.401s35.472-15.881,35.472-35.401
			C275.159,62.182,259.246,46.3,239.687,46.3z M239.686,102.103c-11.288,0-20.472-9.152-20.472-20.401
			c0-11.25,9.184-20.402,20.472-20.402c11.288,0,20.472,9.152,20.472,20.402C260.158,92.951,250.974,102.103,239.686,102.103z"/>
	</g>
</g>
<g>
	<g>
		<path d="M419.499,15.5H162.605c-10.771,0-19.534,8.75-19.534,19.505v31.221c0,4.142,3.358,7.5,7.5,7.5c4.143,0,7.5-3.357,7.5-7.5
			V35.005c0-2.484,2.034-4.505,4.534-4.505h256.894c32.448,0,58.847,26.324,58.847,58.682v50.77c0,4.143,3.357,7.5,7.5,7.5
			s7.5-3.357,7.5-7.5v-50.77C493.346,48.554,460.218,15.5,419.499,15.5z"/>
	</g>
</g>
<g>
	<g>
		<path d="M504.5,453.831h-11.154V175.547c0-4.143-3.357-7.5-7.5-7.5s-7.5,3.357-7.5,7.5v278.279H66.74v-24.097
			c0-25.943,21.167-47.05,47.186-47.05h239.141v0.001c6.79,0,12.313-5.519,12.313-12.302V144.751
			c0-6.783-5.523-12.302-12.313-12.302H162.605c-2.5,0-4.534-2.021-4.534-4.505V98.356c0-4.143-3.357-7.5-7.5-7.5
			s-7.5,3.357-7.5,7.5v29.588c0,10.755,8.763,19.505,19.534,19.505h19.031v9.303h-47.075v-5.632c0-8.596-6.993-15.589-15.59-15.589
			H15.59C6.993,135.531,0,142.524,0,151.12v25.092c0,8.597,6.993,15.59,15.59,15.59h103.382c8.597,0,15.59-6.993,15.59-15.59v-4.46
			h47.075v15.63c0,4.143,3.357,7.5,7.5,7.5h25.868v26.776c0,4.143,3.357,7.5,7.5,7.5h34.363c4.143,0,7.5-3.357,7.5-7.5v-26.776
			h25.869c4.143,0,7.5-3.357,7.5-7.5v-39.933h52.644v220.23H333.23c0.304-1.354,0.478-2.757,0.478-4.202v-11.491
			c0-4.143-3.357-7.5-7.5-7.5h-34.034c3.254-5.064,5.151-11.08,5.151-17.534v-57.863c0-4.143-3.357-7.5-7.5-7.5H189.55
			c-4.143,0-7.5,3.357-7.5,7.5v4.561h-15.29c-7.995,0-14.5,6.495-14.5,14.479v19.204c0,12.3,10.025,22.306,22.348,22.306h7.562
			c0.447,5.436,2.233,10.494,5.031,14.848h-34.035c-4.143,0-7.5,3.357-7.5,7.5v11.491c0,1.445,0.174,2.848,0.478,4.202h-32.218
			c-34.289,0-62.186,27.835-62.186,62.05v24.102h-7.992c-4.143,0-7.5,3.357-7.5,7.5V489c0,4.143,3.357,7.5,7.5,7.5h54.259
			c4.143,0,7.5-3.357,7.5-7.5s-3.357-7.5-7.5-7.5H51.248v-12.669H497V481.5H134.278c-4.143,0-7.5,3.357-7.5,7.5s3.357,7.5,7.5,7.5
			H504.5c4.143,0,7.5-3.357,7.5-7.5v-27.669C512,457.188,508.643,453.831,504.5,453.831z M119.562,176.212
			c0,0.325-0.265,0.59-0.59,0.59H15.59c-0.325,0-0.59-0.265-0.59-0.59V151.12c0-0.324,0.265-0.589,0.59-0.589h103.382
			c0.325,0,0.59,0.265,0.59,0.589V176.212z M249.368,214.158h-19.363v-19.276h19.363V214.158z M282.738,179.882h-0.001h-25.869
			h-34.363h-25.868v-15.553c0-0.026,0.004-0.051,0.004-0.077s-0.004-0.051-0.004-0.077v-16.724h86.101V179.882z M182.05,314.638
			h-7.442c-4.052,0.001-7.348-3.277-7.348-7.305v-18.684h14.79V314.638z M197.05,276.589h85.274v50.363
			c0,9.668-7.866,17.534-17.534,17.534h-50.206c-9.668,0-17.534-7.866-17.534-17.534V276.589z M160.666,359.487h53.918h50.206
			h53.917v3.991c0,2.312-1.875,4.191-4.185,4.202h-149.67c-2.31-0.011-4.186-1.891-4.186-4.202V359.487z"/>
	</g>
</g>
<g>
	<g>
		<path d="M438.652,308.525H392.52c-4.143,0-7.5,3.357-7.5,7.5s3.357,7.5,7.5,7.5h46.133c4.143,0,7.5-3.357,7.5-7.5
			S442.795,308.525,438.652,308.525z"/>
	</g>
</g>
<g>
	<g>
		<path d="M438.652,336.343H392.52c-4.143,0-7.5,3.357-7.5,7.5s3.357,7.5,7.5,7.5h46.133c4.143,0,7.5-3.357,7.5-7.5
			S442.795,336.343,438.652,336.343z"/>
	</g>
</g>
<g>
	<g>
		<path d="M438.652,364.159H392.52c-4.143,0-7.5,3.357-7.5,7.5s3.357,7.5,7.5,7.5h46.133c4.143,0,7.5-3.357,7.5-7.5
			S442.795,364.159,438.652,364.159z"/>
	</g>
</g>
<g>
	<g>
		<path d="M420.098,58.725H317.176c-11.47,0-20.801,9.331-20.801,20.801v7.011c0,11.47,9.331,20.801,20.801,20.801h102.923
			c11.469,0,20.8-9.331,20.8-20.801v-7.011C440.899,68.056,431.568,58.725,420.098,58.725z M425.9,86.537
			c0,3.198-2.603,5.801-5.801,5.801H317.176c-3.198,0-5.801-2.603-5.801-5.801v-7.011c0-3.198,2.603-5.801,5.801-5.801h102.923
			c3.198,0,5.801,2.603,5.801,5.801V86.537z"/>
	</g>
</g>
<g>
</g>
<g>
</g>
<g>
</g>
<g>
</g>
<g>
</g>
<g>
</g>
<g>
</g>
<g>
</g>
<g>
</g>
<g>
</g>
<g>
</g>
<g>
</g>
<g>
</g>
<g>
</g>
<g>
</g>
</svg>
