<svg id="Layer_1" data-name="Layer 1" xmlns="http://www.w3.org/2000/svg" viewBox="0 0 200 200"><defs><style>.cls-1{fill:#0090e3;}.cls-2{font-size:23.51px;font-family:MyriadPro-Bold, Myriad Pro;font-weight:700;}.cls-2,.cls-3{fill:#d60000;}.cls-4{fill:none;stroke:#0090e3;stroke-miterlimit:10;stroke-width:3px;}</style></defs><path class="cls-1" d="M100.09,0V3A97,97,0,0,1,194.61,78.6a97,97,0,0,1-73.21,116,97,97,0,0,1-116-73.21A97,97,0,0,1,78.6,5.39,97.52,97.52,0,0,1,100.09,3V0m0,0a100,100,0,1,0,97.45,78A100.37,100.37,0,0,0,100.09,0Z"/><text class="cls-2" transform="matrix(0.34, -0.94, 0.94, 0.34, 28.45, 81.76)">C</text><text class="cls-2" transform="matrix(0.56, -0.83, 0.83, 0.56, 34.38, 65.77)">O</text><text class="cls-2" transform="translate(46.14 48.99) rotate(-38.96)">M</text><text class="cls-2" transform="translate(64.95 34.95) rotate(-22.79)">B</text><text class="cls-2" transform="translate(81.92 28.63) rotate(-11.57)">I</text><text class="cls-2" transform="matrix(1, -0.07, 0.07, 1, 92.64, 26.79)"> </text><text class="cls-2" transform="matrix(0.99, 0.13, -0.13, 0.99, 101.34, 26.02)">D</text><text class="cls-2" transform="translate(121.17 29.27) rotate(21.53)">E</text><text class="cls-2" transform="matrix(0.81, 0.58, -0.58, 0.81, 136.27, 35.54)">A</text><text class="cls-2" transform="translate(151.54 47.21) rotate(48.94)">L</text><path class="cls-3" d="M126.54,60.43l-15.23,3.44a7.72,7.72,0,1,0-14.8-3.62,8,8,0,0,0-10.1,2.29,7.72,7.72,0,1,0-11.8,9.64L59.38,75.62a6.75,6.75,0,0,0-5.1,8.08l2.84,12.56A1.6,1.6,0,0,0,59,97.47l2.67-.6,9.57,42.29a5.56,5.56,0,0,0,6.64,4.19l24.24-5.49L114.71,135,139,129.54a5.57,5.57,0,0,0,4.19-6.64l-3.54-15.62a1.6,1.6,0,1,0-3.13.71L140,123.61a2.34,2.34,0,0,1-1.76,2.79l-22.68,5.13L105.49,87l25-5.64,3.3,14.59a1.61,1.61,0,1,0,3.14-.71l-3.3-14.59,2.67-.6a1.61,1.61,0,0,0,1.21-1.93l-2.84-12.55A6.76,6.76,0,0,0,126.54,60.43ZM99.88,135.08l-22.67,5.13a2.35,2.35,0,0,1-2.8-1.76L64.85,96.16l25-5.65ZM89.09,87.37l-26.52,6L59.9,94,57.42,83a3.53,3.53,0,0,1,2.67-4.23L85.69,73a9.51,9.51,0,0,1-7.38,9.74A1.61,1.61,0,0,0,79,85.85a12.71,12.71,0,0,0,8.31-6.25l1.76,7.77ZM85,69.17l.14.63-4.39,1a4.5,4.5,0,1,1,3.4-5.38Zm27.46,63.07L103,134.37,89,72.23l9.42-2.13ZM97.67,67l-9.42,2.13-.14-.63a4.82,4.82,0,1,1,9.41-2.13Zm3-1.34-.85-3.76a4.51,4.51,0,1,1,5.39,3.4l-4.4,1ZM134,77.22l-2.67.61-26.52,6L103,76.05a12.69,12.69,0,0,0,10.19,2.06A1.61,1.61,0,0,0,112.5,75a9.48,9.48,0,0,1-10.85-5.61l25.6-5.79a3.53,3.53,0,0,1,4.23,2.67Z"/><path class="cls-3" d="M87.38,101.68a1.6,1.6,0,0,0-1.22,1.92l3.3,14.59a1.61,1.61,0,0,0,3.14-.71l-3.3-14.59A1.6,1.6,0,0,0,87.38,101.68Z"/><path class="cls-3" d="M86,95.61a1.61,1.61,0,0,0-1.21,1.92v0a1.6,1.6,0,1,0,3.13-.71v0A1.61,1.61,0,0,0,86,95.61Z"/><path class="cls-3" d="M136.82,97.06a1.63,1.63,0,0,0-1.22-.21,1.58,1.58,0,0,0-1,.71,1.61,1.61,0,0,0,2.72,1.72,1.63,1.63,0,0,0,.21-1.22A1.58,1.58,0,0,0,136.82,97.06Z"/><path class="cls-1" d="M100.06,34v3A63,63,0,0,1,161.45,86.1a63,63,0,0,1-47.55,75.35A63,63,0,0,1,38.55,113.9,63,63,0,0,1,86.1,38.55a63.36,63.36,0,0,1,14-1.56V34m0,0a66,66,0,1,0,64.31,51.45A66.13,66.13,0,0,0,100.06,34Z"/><text class="cls-2" transform="translate(171.55 118.24) rotate(109.66)">C</text><text class="cls-2" transform="matrix(-0.56, 0.83, -0.83, -0.56, 165.62, 134.23)">O</text><text class="cls-2" transform="translate(153.87 151.01) rotate(141.04)">M</text><text class="cls-2" transform="matrix(-0.92, 0.39, -0.39, -0.92, 135.05, 165.05)">B</text><text class="cls-2" transform="translate(118.08 171.37) rotate(168.43)">I</text><text class="cls-2" transform="matrix(-1, 0.07, -0.07, -1, 107.36, 173.21)"> </text><text class="cls-2" transform="translate(98.66 173.98) rotate(-172.67)">D</text><text class="cls-2" transform="translate(78.83 170.73) rotate(-158.47)">E</text><text class="cls-2" transform="translate(63.73 164.46) rotate(-144.55)">A</text><text class="cls-2" transform="translate(48.46 152.79) rotate(-131.06)">L</text><line class="cls-4" x1="2.08" y1="106.77" x2="34.27" y2="99.49"/><line class="cls-4" x1="159.22" y1="71.74" x2="191.41" y2="64.45"/><line class="cls-4" x1="7.82" y1="132.13" x2="40" y2="124.85"/><line class="cls-4" x1="164.96" y1="97.09" x2="197.15" y2="89.81"/></svg>