<?xml version="1.0" encoding="iso-8859-1"?>
<!-- Generator: Adobe Illustrator 19.0.0, SVG Export Plug-In . SVG Version: 6.00 Build 0)  -->
<svg version="1.1" id="Layer_1" xmlns="http://www.w3.org/2000/svg" xmlns:xlink="http://www.w3.org/1999/xlink" x="0px" y="0px"
	 viewBox="0 0 511.999 511.999" style="enable-background:new 0 0 511.999 511.999;" xml:space="preserve">
<g>
	<g>
		<path d="M510.114,136.079c-1.002-1.132-23.894-26.369-61.019-17.217c-2.689-3.605-6.998-8.446-13.068-12.548
			c-9.493-6.415-25.063-12.217-46.715-5.342c-3.065-3.676-8.003-8.75-14.693-12.964c-10.365-6.531-26.814-12.176-47.798-3.832
			c-3.743-3.222-9.959-7.854-18.13-11.406c-12.1-5.26-30.826-9.105-52.691,1.248c-21.863-10.352-40.59-6.508-52.691-1.248
			c-8.171,3.552-14.387,8.184-18.13,11.406c-20.986-8.343-37.433-2.699-47.798,3.832c-6.689,4.214-11.627,9.289-14.693,12.964
			c-21.65-6.873-37.221-1.072-46.714,5.342c-11.073,7.483-16.283,17.421-16.5,17.84c-0.559,1.084-0.821,2.239-0.827,3.378
			c0,0.036-0.003,0.073-0.003,0.109c0.001,0.162,0.013,0.323,0.025,0.485c0.006,0.089,0.009,0.177,0.018,0.266
			c0.011,0.104,0.031,0.206,0.046,0.31c0.022,0.145,0.042,0.29,0.072,0.435c0.008,0.036,0.019,0.072,0.027,0.108
			c0.202,0.893,0.564,1.764,1.11,2.566c0.485,0.713,48.718,72.399,66.543,169.051c0.667,3.614,3.819,6.141,7.367,6.141
			c0.452,0,0.909-0.041,1.369-0.126c4.073-0.751,6.767-4.662,6.015-8.736c-16.113-87.374-55.294-153.478-66.137-170.546
			c1.967-2.598,5.2-6.198,9.75-9.168c9.844-6.425,21.635-7.282,35.082-2.56c7.314,15.396,44.296,97.666,47.878,193.636
			c0.151,4.044,3.477,7.22,7.49,7.22c0.094,0,0.189-0.001,0.285-0.005c4.139-0.154,7.37-3.635,7.215-7.775
			c-3.64-97.527-39.582-179.035-48.708-198.27c5.771-7.035,21.791-22.279,46.192-12.287c5.114,21.346,31.34,135.668,29.036,225.475
			c-0.106,4.141,3.165,7.584,7.305,7.69c0.066,0.001,0.131,0.002,0.196,0.002c4.053,0,7.39-3.233,7.494-7.308
			c2.328-90.776-23.745-205.459-29.307-228.777c7.123-6.195,27.246-20.152,53.493-8.382v242.042c0,4.142,3.358,7.5,7.5,7.5
			c4.143,0,7.5-3.358,7.5-7.5V87.087c26.263-11.776,46.391,2.202,53.493,8.38c-5.561,23.314-31.636,138-29.307,228.779
			c0.104,4.075,3.44,7.308,7.493,7.308c0.065,0,0.131-0.001,0.196-0.002c4.141-0.106,7.411-3.549,7.305-7.69
			c-2.302-89.808,23.923-204.129,29.037-225.475c24.416-9.999,40.44,5.268,46.194,12.285
			c-9.124,19.231-45.069,100.741-48.71,198.272c-0.154,4.139,3.076,7.62,7.216,7.775c0.095,0.004,0.189,0.005,0.284,0.005
			c4.013,0,7.339-3.177,7.49-7.22c3.582-95.965,40.561-178.233,47.878-193.635c13.446-4.722,25.238-3.865,35.081,2.56
			c4.553,2.972,7.787,6.575,9.75,9.167c-10.842,17.066-50.024,83.171-66.139,170.548c-0.751,4.073,1.942,7.985,6.016,8.736
			c0.46,0.085,0.917,0.126,1.369,0.126c3.547,0,6.7-2.528,7.367-6.141c16.074-87.153,57-154.196,65.129-166.884
			c21.328-6.036,36.721,2.602,43.841,8.11c-4.871,6.81-13.731,19.49-24.103,35.694c-2.233,3.489-1.216,8.128,2.273,10.361
			c1.252,0.801,2.651,1.184,4.036,1.184c2.472,0,4.893-1.221,6.323-3.458c15.177-23.711,27.385-40.179,27.506-40.342
			C512.636,142.678,512.467,138.736,510.114,136.079z"/>
	</g>
</g>
<g>
	<g>
		<path d="M140.163,380.205c-24.772-29.267-34.33-63.517-39.464-81.917l-0.621-2.22c-16.685-59.409-67.649-133.196-82.529-153.949
			c2.771-2.127,6.77-4.725,11.808-6.756c3.841-1.549,5.7-5.919,4.151-9.761c-1.549-3.841-5.92-5.7-9.761-4.152
			c-13.69,5.521-21.534,14.261-21.861,14.63c-2.353,2.657-2.522,6.599-0.405,9.448c0.655,0.881,65.695,88.861,84.156,154.597
			l0.614,2.196c5.055,18.115,15.574,55.808,42.462,87.576c1.483,1.753,3.599,2.655,5.729,2.655c1.711,0,3.433-0.583,4.842-1.776
			C142.446,388.1,142.839,383.367,140.163,380.205z"/>
	</g>
</g>
<g>
	<g>
		<path d="M461.14,207.044c-3.59-2.065-8.175-0.829-10.241,2.761c-19.124,33.243-32.237,62.266-38.977,86.261l-0.621,2.221
			c-10.014,35.886-36.613,131.212-155.3,131.212c-35.026,0-65.056-8.448-89.256-25.111c-3.412-2.351-8.081-1.487-10.43,1.924
			c-2.349,3.412-1.488,8.082,1.924,10.431c26.749,18.418,59.641,27.756,97.762,27.756c130.074,0,159.936-107.014,169.748-142.18
			l0.614-2.196c6.403-22.8,19.033-50.67,37.537-82.838C465.966,213.695,464.729,209.11,461.14,207.044z"/>
	</g>
</g>
<g>
</g>
<g>
</g>
<g>
</g>
<g>
</g>
<g>
</g>
<g>
</g>
<g>
</g>
<g>
</g>
<g>
</g>
<g>
</g>
<g>
</g>
<g>
</g>
<g>
</g>
<g>
</g>
<g>
</g>
</svg>
