<svg id="Layer_1" data-name="Layer 1" xmlns="http://www.w3.org/2000/svg" viewBox="0 0 67 20"><title>Facebook share</title><defs><style>.cls-1{fill:#1877f2;}.cls-2{fill:#fff;}</style></defs><rect class="cls-1" width="67" height="20" rx="3"/><path class="cls-2" d="M19.5,10a6,6,0,1,0-6.94,5.93v-4.2H11V10h1.52V8.68a2.12,2.12,0,0,1,2.27-2.34,8.89,8.89,0,0,1,1.34.12V7.94h-.75a.86.86,0,0,0-1,.93V10H16.1l-.26,1.73h-1.4v4.2A6,6,0,0,0,19.5,10Z"/><path class="cls-2" d="M26.65,11.38l1.54-.15a2,2,0,0,0,.57,1.14,2.13,2.13,0,0,0,2.31,0,1,1,0,0,0,.39-.76.71.71,0,0,0-.16-.48,1.34,1.34,0,0,0-.58-.34c-.18-.06-.61-.18-1.27-.34a4.24,4.24,0,0,1-1.79-.78,2,2,0,0,1-.73-1.58A2.1,2.1,0,0,1,27.27,7a2.2,2.2,0,0,1,1-.8,4,4,0,0,1,1.55-.27A3.35,3.35,0,0,1,32,6.58a2.26,2.26,0,0,1,.78,1.73l-1.59.07a1.34,1.34,0,0,0-.43-.87,1.6,1.6,0,0,0-1-.26,1.85,1.85,0,0,0-1.09.28.58.58,0,0,0-.25.49.63.63,0,0,0,.24.48A4.14,4.14,0,0,0,30.15,9a7.92,7.92,0,0,1,1.72.57,2.17,2.17,0,0,1,.87.8,2.34,2.34,0,0,1,.31,1.25,2.31,2.31,0,0,1-.38,1.27,2.19,2.19,0,0,1-1.06.88,4.49,4.49,0,0,1-1.71.29,3.43,3.43,0,0,1-2.3-.69A3,3,0,0,1,26.65,11.38Z"/><path class="cls-2" d="M35.66,6.06V9a2.24,2.24,0,0,1,2.69-.66,1.52,1.52,0,0,1,.63.49,1.92,1.92,0,0,1,.29.67,6.23,6.23,0,0,1,.07,1.13v3.35h-1.5v-3a4.22,4.22,0,0,0-.09-1.13.78.78,0,0,0-.3-.39,1,1,0,0,0-.55-.14,1.27,1.27,0,0,0-.67.18,1,1,0,0,0-.43.55,3.34,3.34,0,0,0-.14,1.09v2.86H34.15V6.06Z"/><path class="cls-2" d="M41.78,10l-1.37-.24a2.19,2.19,0,0,1,.8-1.23,2.92,2.92,0,0,1,1.67-.4,3.61,3.61,0,0,1,1.51.24,1.5,1.5,0,0,1,.69.61,3,3,0,0,1,.21,1.35l0,1.76a6,6,0,0,0,.07,1.11,3.39,3.39,0,0,0,.27.77H44.12a3.59,3.59,0,0,1-.14-.45l-.06-.18a2.8,2.8,0,0,1-.83.57,2.43,2.43,0,0,1-.94.19,1.92,1.92,0,0,1-1.38-.48,1.59,1.59,0,0,1-.51-1.21,1.65,1.65,0,0,1,.23-.86,1.47,1.47,0,0,1,.65-.58,4.61,4.61,0,0,1,1.2-.35,9.45,9.45,0,0,0,1.46-.37v-.16a.8.8,0,0,0-.21-.62,1.32,1.32,0,0,0-.81-.18,1,1,0,0,0-.63.16A1.13,1.13,0,0,0,41.78,10Zm2,1.23c-.19.06-.5.14-.92.23a3.12,3.12,0,0,0-.82.26.64.64,0,0,0-.29.53.75.75,0,0,0,.23.55.81.81,0,0,0,.61.23,1.27,1.27,0,0,0,.77-.27.85.85,0,0,0,.36-.5,2.84,2.84,0,0,0,.06-.73Z"/><path class="cls-2" d="M48,13.94H46.49V8.23h1.4V9a2.43,2.43,0,0,1,.65-.75,1.21,1.21,0,0,1,.65-.19,1.89,1.89,0,0,1,1,.29l-.46,1.32A1.3,1.3,0,0,0,49,9.46a.89.89,0,0,0-.54.17,1.24,1.24,0,0,0-.35.63A9.56,9.56,0,0,0,48,12.18Z"/><path class="cls-2" d="M53.92,12.12l1.5.25a2.41,2.41,0,0,1-.91,1.26,2.69,2.69,0,0,1-1.57.44,2.54,2.54,0,0,1-2.2-1,3.21,3.21,0,0,1-.57-2,3.11,3.11,0,0,1,.75-2.22,2.41,2.41,0,0,1,1.87-.81,2.51,2.51,0,0,1,2,.85,3.71,3.71,0,0,1,.7,2.57H51.72a1.5,1.5,0,0,0,.37,1.05,1.16,1.16,0,0,0,.87.37,1,1,0,0,0,.59-.19A1.27,1.27,0,0,0,53.92,12.12ZM54,10.6a1.48,1.48,0,0,0-.33-1,1,1,0,0,0-.79-.34,1.06,1.06,0,0,0-.82.36,1.39,1.39,0,0,0-.31,1Z"/></svg>