<svg id="Layer_1" data-name="Layer 1" xmlns="http://www.w3.org/2000/svg" viewBox="0 0 141.33 36.42"><defs><style>.cls-1{fill:#308ccc;}.cls-2{fill:#fff;}</style></defs><title>BVB Media</title><path class="cls-1" d="M96.35,29.63a4,4,0,0,0-3.95-3.95,4,4,0,0,0,3.95-3.95,4,4,0,0,0,4,3.95A4,4,0,0,0,96.35,29.63Z"/><path class="cls-2" d="M84.8,17.23a4,4,0,0,0-4-4,4,4,0,0,0,4-3.95,4,4,0,0,0,4,3.95A4,4,0,0,0,84.8,17.23Z"/><path class="cls-2" d="M67.6,9.8a4.91,4.91,0,0,0-4.9-4.9A4.92,4.92,0,0,0,67.6,0a4.91,4.91,0,0,0,4.9,4.9A4.9,4.9,0,0,0,67.6,9.8Z"/><path class="cls-2" d="M46.61,14.75a7.14,7.14,0,0,0-7.14-7.14A7.14,7.14,0,0,0,46.61.47a7.16,7.16,0,0,0,7.15,7.14A7.16,7.16,0,0,0,46.61,14.75Z"/><path class="cls-2" d="M26.31,26.87A8.93,8.93,0,0,0,17.39,18,8.93,8.93,0,0,0,26.31,9,8.92,8.92,0,0,0,35.23,18,8.91,8.91,0,0,0,26.31,26.87Z"/><path class="cls-2" d="M139.94,22.52a1.39,1.39,0,1,1,1.39-1.38A1.38,1.38,0,0,1,139.94,22.52Zm0-2.46A1.08,1.08,0,1,0,141,21.14,1,1,0,0,0,139.94,20.06Zm.25,1.81-.27-.57h-.15v.57h-.33V20.4h.6a.47.47,0,0,1,.49.46.42.42,0,0,1-.27.39l.31.62Zm-.19-1.2h-.23v.38H140a.19.19,0,1,0,0-.38Z"/><path class="cls-1" d="M14.09,36.42H0V21H13.23a4.29,4.29,0,0,1,2.95,7.41,4.26,4.26,0,0,1-2.09,8ZM4.19,27h7.86a1,1,0,1,0,0-2H4.19Zm0,5.37h8.72a1,1,0,0,0,1-1,1,1,0,0,0-1-1H4.19Z"/><path class="cls-1" d="M50.31,36.42H36.22V21H49.45a4.29,4.29,0,0,1,2.95,7.41,4.26,4.26,0,0,1-2.09,8ZM40.4,27h7.88a1,1,0,0,0,0-2H40.4Zm0,5.37h8.73a1,1,0,0,0,1-1,1,1,0,0,0-1-1H40.4Z"/><path class="cls-1" d="M31.33,33a5.43,5.43,0,0,1-5,3.44,5.37,5.37,0,0,1-5-3.41L16.88,21.25A3.59,3.59,0,0,1,18.33,21a4.31,4.31,0,0,1,4,2.82l2.92,7.79c.29.76.78.79,1,.79a1,1,0,0,0,1-.79l2.91-7.79a4.34,4.34,0,0,1,4-2.82,3.89,3.89,0,0,1,1.48.26C30.51,35.21,31.33,33,31.33,33Z"/><path class="cls-2" d="M135.87,36.4c2.81,0,4.17-1.59,4.17-4.22V25.31A4.27,4.27,0,0,0,135.79,21H126a4.28,4.28,0,0,0-4.26,4.29v11.1H126v-6.2h9.91Zm-.1-9.35H126V26a1,1,0,0,1,1-1h7.87a1,1,0,0,1,1,1Z"/><rect class="cls-2" x="116.18" y="21.02" width="4.29" height="15.38"/><path class="cls-2" d="M96.17,32.39h-12a1,1,0,0,1-1-1v-1h7a1.7,1.7,0,1,0,0-3.4h-7V26a1,1,0,0,1,1-1h7.6a4,4,0,0,0,4-4H83.2a4.28,4.28,0,0,0-4.26,4.29v6.85a4.25,4.25,0,0,0,4.26,4.26h13Z"/><path class="cls-2" d="M97,30.71v5.71h13.8a4.28,4.28,0,0,0,4.29-4.26V25.31A4.31,4.31,0,0,0,110.78,21H97c0,2.5,1.63,4,4.27,4h8.25a1.28,1.28,0,0,1,1.28,1.28v4.78a1.26,1.26,0,0,1-1.28,1.28h-8.25V26.46C98.17,26.46,97,28,97,30.71Z"/><path class="cls-2" d="M56.66,32.2c0,2.62,1.51,4.21,4.32,4.21V25h4.25V36.41h4.3V25h3a1.37,1.37,0,0,1,1.33,1.33V36.41h4.23V25.31A4.31,4.31,0,0,0,73.78,21H56.66Z"/></svg>
