<svg id="Layer_1" data-name="Layer 1" xmlns="http://www.w3.org/2000/svg" xmlns:xlink="http://www.w3.org/1999/xlink" viewBox="0 0 185.66 27"><defs><style>.cls-1{fill:url(#linear-gradient);}.cls-2{fill:url(#linear-gradient-2);}.cls-3{fill:#383c4a;}</style><linearGradient id="linear-gradient" x1="4.37" y1="7.13" x2="34.38" y2="37.14" gradientTransform="matrix(1, 0, 0, -1, 0, 28)" gradientUnits="userSpaceOnUse"><stop offset="0.19" stop-color="#644bfb"/><stop offset="1" stop-color="#d944fa"/></linearGradient><linearGradient id="linear-gradient-2" x1="32.04" y1="11.31" x2="38.43" y2="17.69" xlink:href="#linear-gradient"/></defs><g id="FINAL"><path class="cls-1" d="M42.39,0H2.79A2.76,2.76,0,0,0,0,2.52,2.69,2.69,0,0,0,2.49,5.39H18a2.7,2.7,0,0,1,2.7,2.7,2.87,2.87,0,0,1-.23,1.08h0A2.7,2.7,0,0,1,18,10.8H7.11a2.76,2.76,0,0,0-2.78,2.52,2.69,2.69,0,0,0,2.49,2.87h6.47A2.69,2.69,0,0,1,16,18.87,2.6,2.6,0,0,1,15.79,20h0a2.72,2.72,0,0,1-2.48,1.62H11.7a2.76,2.76,0,0,0-2.78,2.52A2.69,2.69,0,0,0,11.43,27h5.31a2.67,2.67,0,0,0,1.55-.49,2,2,0,0,0,1-1l7.4-17A5.1,5.1,0,0,1,31.36,5.4H42.3a2.76,2.76,0,0,0,2.78-2.52A2.69,2.69,0,0,0,42.59,0Z"/><path class="cls-2" d="M37.8,10.8H32.67a2.7,2.7,0,0,0,0,5.4H37.8a2.7,2.7,0,1,0,0-5.4Z"/></g><path class="cls-3" d="M86.23,9V20.7A2.3,2.3,0,0,1,83.94,23h0a2.3,2.3,0,0,1-2.29-2.29h0V9A1,1,0,0,0,80.6,8H78.24a2,2,0,0,1-2-1.95h0a2,2,0,0,1,2-2h11.4a2,2,0,0,1,2,2h0a2,2,0,0,1-2,2H87.28a1,1,0,0,0-1,.95Z"/><path class="cls-3" d="M93.69,17.72V6.31A2.3,2.3,0,0,1,96,4h0a2.3,2.3,0,0,1,2.3,2.3h0v9.8a2.89,2.89,0,0,0,2.88,2.9h2.47a2,2,0,0,1,2,2h0a2,2,0,0,1-2,2H99a5.27,5.27,0,0,1-5.31-5.23Z"/><path class="cls-3" d="M120.27,8.94a4.59,4.59,0,0,0-3.38-1.63c-1.18,0-2.65.4-2.65,1.9,0,1.26,1.13,1.66,2.92,2.23,2.58.83,5.9,1.93,5.9,5.71,0,4.37-3.51,6.32-7.27,6.32a10,10,0,0,1-7.1-2.73l3-3.06a5.57,5.57,0,0,0,4.1,2c1.4,0,2.63-.53,2.63-2.06s-1.45-1.9-3.94-2.71-4.85-2-4.85-5.44c0-4.21,3.81-6,7.34-6a9.47,9.47,0,0,1,6.22,2.33Z"/><path class="cls-3" d="M138.74,23V16.26h-7.39V23h-4.59V4h4.59v8.4h7.39V4h4.59V23Z"/><path class="cls-3" d="M157.35,23.5c-5.92,0-10.32-4.08-10.32-10.08s4.4-9.92,10.32-9.92,10.35,3.83,10.35,9.92S163.3,23.5,157.35,23.5Zm0-15.87c-3.22,0-5.41,2.47-5.41,5.79s2.22,5.9,5.41,5.9,5.44-2.47,5.44-5.9S160.57,7.63,157.35,7.63Z"/><path class="cls-3" d="M178.13,15.83h-2.28V23h-4.58V4h7c4.15,0,7.42,1.5,7.42,5.84S182.1,15.83,178.13,15.83Zm-.27-8.12h-2v4.48h1.93c1.72,0,3.3-.51,3.3-2.31S179.5,7.71,177.86,7.71Z"/><path class="cls-3" d="M64.75,15.62v5.11A2.26,2.26,0,0,1,62.5,23h0a2.26,2.26,0,0,1-2.26-2.26V9a5,5,0,0,1,5-5h7.39a2,2,0,0,1,2,2h0a2,2,0,0,1-2,2H67.25a2.5,2.5,0,0,0-2.5,2.5h0v1.41"/><path class="cls-3" d="M72.55,12.43H68.44a1.88,1.88,0,1,0,0,3.76h4.11a1.88,1.88,0,1,0,0-3.76Z"/></svg>