<svg id="Layer_1" data-name="Layer 1" xmlns="http://www.w3.org/2000/svg" xmlns:xlink="http://www.w3.org/1999/xlink" viewBox="0 0 258.23 429.46"><defs><style>.cls-1,.cls-2,.cls-5{fill:none;}.cls-2{stroke:#fff;stroke-linejoin:round;}.cls-2,.cls-5{stroke-linecap:round;}.cls-3{clip-path:url(#clip-path);}.cls-4{fill:#fff;}.cls-5{stroke:#231f20;stroke-miterlimit:10;}</style><clipPath id="clip-path"><ellipse class="cls-1" cx="131.2" cy="150.72" rx="48.03" ry="11.23"/></clipPath></defs><title>Logo Obatala Coffee Vertical</title><path d="M100,115.88a21.44,21.44,0,0,1,7.39,4.48c2.43-8-3.47-16.94-13.18-19.88s-19.4.73-21.83,8.77a20.52,20.52,0,0,0,7.33,4.68C83.62,115.1,96,114.68,100,115.88Z"/><path d="M79.38,115A21.44,21.44,0,0,1,72,110.51c-2.43,8,3.48,16.94,13.18,19.88s19.45-.88,21.88-8.92a21.64,21.64,0,0,0-7.38-4.53C95.76,115.76,83.35,116.19,79.38,115Z"/><path d="M48.48,18.91A17.47,17.47,0,0,1,55,21.46c.82-6.76-5.13-13-13.28-14s-15.39,3.27-16.22,10A16.59,16.59,0,0,0,32,20.17C35.29,20.57,45.14,18.51,48.48,18.91Z"/><path d="M31.9,21.06a17.2,17.2,0,0,1-6.52-2.55c-.83,6.76,5.12,13,13.27,14S54.06,29.16,54.88,22.4a17.38,17.38,0,0,0-6.51-2.59C45.08,19.41,35.23,21.47,31.9,21.06Z"/><path d="M102,18.36a15.8,15.8,0,0,1,5.91,2.31c.74-6.13-4.65-11.82-12-12.72S81.94,10.91,81.2,17a15,15,0,0,0,5.89,2.45C90.06,19.86,99,18,102,18.36Z"/><path d="M87,20.3A15.72,15.72,0,0,1,81.08,18c-.75,6.13,4.64,11.82,12,12.72s14-3.07,14.7-9.2a15.69,15.69,0,0,0-5.9-2.34C98.93,18.81,90,20.67,87,20.3Z"/><path d="M107.36,63.52a20.26,20.26,0,0,1,5.36,6.22c4.57-6.55,1.87-16.33-6-21.85s-17.75-5.07-22.32,1.48a19.43,19.43,0,0,0,5.24,6.38C92.79,58,104.13,61.26,107.36,63.52Z"/><path d="M89,56.62a20.36,20.36,0,0,1-5.36-6.23c-4.57,6.56-1.86,16.34,6,21.86s17.83,5,22.41-1.6a20.59,20.59,0,0,0-5.33-6.27C103.57,62.16,92.23,58.88,89,56.62Z"/><path d="M59.33,56.18a22.81,22.81,0,0,1,9.15,2.44c0-9.54-9-17.28-20.08-17.28S28.33,48.5,28.33,58.05c0,0,4.68,2.67,9.15,2.67S54.79,56.18,59.33,56.18Z"/><path d="M37.48,62a22.75,22.75,0,0,1-9.15-2.44c0,9.54,9,17.28,20.07,17.28s20.08-7.33,20.08-16.88a22.78,22.78,0,0,0-9.15-2.5C54.86,57.44,42,62,37.48,62Z"/><path d="M121.19,142.65s2.55-20.07,1.12-28.2-9.88-21.5-21-28.67A98.19,98.19,0,0,0,77.06,75.1s16.41-.63,26.45,6.38,19.27,19.27,19.27,19.27S121,84.35,121,78.45s0-21,1-23.42-1.12-7.64-4.14-11.63-11.63-13.86-11.63-13.86,6.85,2.23,9.08,4.94,8.28,10.2,8.28,10.2,5.26-17,7.49-22.14a119.26,119.26,0,0,1,7-12.59s-4.15,15.77-5.26,19.75a123.38,123.38,0,0,0-3.19,15.14C129.16,49,127.72,64,128,68.25c3.82-12.74,11.63-23.41,14-25.64s15.61-10.84,15.61-10.84-8.76,11.31-13.06,16.73S133.3,68.89,132,75.74s-1.27,10.2-.63,13.7,3,9.08,3,11.15c3.51-4.62,10-13.38,14-15.61s8-5.1,13.54-4.78c-6.05,3.67-14.33,11.63-16.56,15.46s-6.06,8.92-7.17,15.77,1.27,30.42,1.27,30.42Z"/><path class="cls-2" d="M112.38,70.65A34.93,34.93,0,0,0,105,63.27c-4.35-3.09-6.49-3.62-8.29-3.93s-3.72-.43-7.9-3.41A29.6,29.6,0,0,1,82.07,49"/><path class="cls-2" d="M68.91,59.14a32.53,32.53,0,0,0-11.27-2.31c-5.86,0-8.12,1.09-9.92,2.13s-3.61,2.39-9.24,2.39A27.81,27.81,0,0,1,28,59.09"/><path class="cls-2" d="M55.34,22a24.77,24.77,0,0,0-8.2-2.91c-4.38-.61-6.18,0-7.64.56s-3,1.42-7.17.83a20.89,20.89,0,0,1-7.61-2.8"/><path class="cls-2" d="M108.43,120.87a36.49,36.49,0,0,0-9.55-4.77c-5.24-1.62-7.49-1.46-9.34-1.2s-3.75.74-8.79-.81a31.12,31.12,0,0,1-8.85-4.53"/><path class="cls-2" d="M108.4,21.31A22.63,22.63,0,0,0,101,18.74c-3.94-.55-5.55,0-6.86.46s-2.65,1.23-6.43.7a19.22,19.22,0,0,1-6.84-2.47"/><path d="M156.87,110a19.28,19.28,0,0,0-7.55,1.94c0-7.58,7.42-13.73,16.57-13.73s16.56,5.69,16.56,13.27a18.41,18.41,0,0,1-7.55,2.12C171.22,113.61,160.61,110,156.87,110Z"/><path d="M174.9,114.61a19.35,19.35,0,0,0,7.55-1.93c0,7.58-7.41,13.72-16.56,13.72s-16.57-5.82-16.57-13.4a19.29,19.29,0,0,1,7.55-2C160.56,111,171.16,114.61,174.9,114.61Z"/><path d="M161.64,16.74a13.83,13.83,0,0,0-5.38,1.38c0-5.4,5.29-9.78,11.81-9.78s11.8,4.06,11.8,9.46a13.12,13.12,0,0,1-5.38,1.51C171.87,19.31,164.31,16.74,161.64,16.74Z"/><path d="M174.49,20a13.69,13.69,0,0,0,5.38-1.39c0,5.41-5.28,9.78-11.8,9.78s-11.81-4.15-11.81-9.55a13.87,13.87,0,0,1,5.38-1.41C164.27,17.46,171.83,20,174.49,20Z"/><path d="M187.81,86.42a20.37,20.37,0,0,0-7.25,3.91c-1.93-7.77,4.11-16,13.48-18.29s18.42,1.61,20.36,9.37a19.46,19.46,0,0,1-7.2,4.1C203.42,86.45,191.64,85.46,187.81,86.42Z"/><path d="M207.46,86.54a20.39,20.39,0,0,0,7.24-3.91c1.93,7.77-4.1,16-13.48,18.29s-18.46-1.75-20.39-9.52a20.4,20.4,0,0,1,7.23-4C191.84,86.5,203.62,87.49,207.46,86.54Z"/><path d="M150.81,65.19a20.72,20.72,0,0,0-5.6,5.37c-3.54-6,0-14.67,7.86-19.32s16.94-3.88,20.49,2.15A19.59,19.59,0,0,1,168,58.9C164.86,60.77,154,63.29,150.81,65.19Z"/><path d="M168.51,59.7a20.54,20.54,0,0,0,5.6-5.37c3.55,6,0,14.68-7.85,19.32s-17,3.77-20.55-2.25A20.62,20.62,0,0,1,151.28,66C154.46,64.12,165.29,61.6,168.51,59.7Z"/><path d="M210.26,43.72a20.53,20.53,0,0,0-7.64-1.38c2.8-6.41,11.86-8.65,20.25-5S236,48.78,233.18,55.19A19.62,19.62,0,0,1,225.47,54C222.09,52.5,213.69,45.21,210.26,43.72Z"/><path d="M225.1,54.82a20.64,20.64,0,0,0,7.64,1.37c-2.8,6.41-11.86,8.65-20.25,5s-13-11.55-10.25-18a20.44,20.44,0,0,1,7.65,1.34C213.27,46,221.67,53.32,225.1,54.82Z"/><path d="M204,14.28a20.49,20.49,0,0,0-6.61,4c-2.18-6.65,3.1-14.35,11.8-17.2S226.57,1,228.75,7.6a19.59,19.59,0,0,1-6.56,4.21C218.68,13,207.57,13.11,204,14.28Z"/><path d="M222.48,12.69a20.49,20.49,0,0,0,6.61-4c2.18,6.65-3.1,14.35-11.79,17.2s-17.42.05-19.6-6.59a20.44,20.44,0,0,1,6.6-4.09C207.81,14,218.92,13.86,222.48,12.69Z"/><path class="cls-2" d="M155.68,18.22a20.5,20.5,0,0,1,6.79-1.32c3.53,0,4.89.62,6,1.22A9.17,9.17,0,0,0,174,19.5a17.38,17.38,0,0,0,6.31-1.3"/><path d="M59,95.09a13.83,13.83,0,0,1,5.38,1.38c0-5.4-5.29-9.78-11.81-9.78s-11.8,4-11.8,9.45a13.06,13.06,0,0,0,5.38,1.52C48.75,97.66,56.31,95.09,59,95.09Z"/><path d="M46.13,98.37A13.77,13.77,0,0,1,40.75,97c0,5.4,5.28,9.78,11.8,9.78s11.81-4.15,11.81-9.55A13.79,13.79,0,0,0,59,95.8C56.35,95.8,48.79,98.37,46.13,98.37Z"/><path class="cls-2" d="M64.94,96.57a20.37,20.37,0,0,0-6.79-1.33c-3.53,0-4.89.63-6,1.23a9.17,9.17,0,0,1-5.57,1.38,17.27,17.27,0,0,1-6.31-1.31"/><path class="cls-2" d="M201.89,41.87a33.36,33.36,0,0,1,9.37,2.58c4.54,2.08,6,3.56,7.07,4.84s2.1,2.77,6.46,4.78a28.56,28.56,0,0,0,8.75,2.32"/><path class="cls-2" d="M197,19.23a32.55,32.55,0,0,1,8.37-4.84c4.64-1.73,6.69-1.68,8.38-1.53s3.44.5,7.91-1.16a27.47,27.47,0,0,0,7.75-4.58"/><path class="cls-2" d="M148.15,112.45a32.06,32.06,0,0,1,9.81-1.74c5.1,0,7.06.82,8.63,1.61s3.14,1.81,8,1.81a27.22,27.22,0,0,0,9.13-1.71"/><path class="cls-2" d="M144.89,71.4a34.63,34.63,0,0,1,7.42-6.51c4.29-2.7,6.34-3.12,8-3.35s3.51-.28,7.64-2.88a29.4,29.4,0,0,0,6.86-6.12"/><path class="cls-2" d="M179.83,91.81a27.72,27.72,0,0,1,9.07-4.89c5-1.45,7.24-1,9.06-.53s3.73,1.29,8.56-.11a23.52,23.52,0,0,0,8.4-4.65"/><ellipse class="cls-1" cx="131" cy="151.12" rx="50.74" ry="13.38"/><path d="M169.11,215.7c-9.73,10.1-24.29,15.39-38.63,15.39-15.72,0-28.66-5.93-36.11-14.88-16.29,2.82-26.89,7.4-26.89,12.57C67.48,237.36,88.62,247,132,247c36,0,67.18-9.66,67.18-18.24C199.14,223.29,187.17,218.46,169.11,215.7Z"/><path d="M180,146.34s2.39,2.55,2.71,4.14a22.74,22.74,0,0,1,.47,6.69c3.19.16,10.68.48,14.18,2.87s6.69,5.9,6.53,10.68-3.34,10.35-8.12,14-10.68,7-13.7,8c-.64,1.59-2.07,5.26-3.35,7.8a75.8,75.8,0,0,1-4,7.33c9.08-2.23,28.68-8.28,36.48-22.46s2.39-24.05,1.12-26.6-5.74-8.92-12.27-10.84A55.64,55.64,0,0,0,180,146.34Z"/><g class="cls-3"><path d="M179.23,150.72c0,6.21-21.51,11.23-48,11.23s-48-5-48-11.23,21.5-11.23,48-11.23S179.23,144.52,179.23,150.72Z"/><path class="cls-4" d="M174,155.5c0-4.27-19-7.73-42.45-7.73s-42.46,3.46-42.46,7.73,19,7.73,42.46,7.73S174,159.77,174,155.5Z"/><line class="cls-5" x1="93.31" y1="146.76" x2="93.31" y2="162.78"/><line class="cls-5" x1="97.13" y1="146.76" x2="97.13" y2="162.78"/><line class="cls-5" x1="100.96" y1="146.76" x2="100.96" y2="162.78"/><line class="cls-5" x1="104.78" y1="146.76" x2="104.78" y2="162.78"/><line class="cls-5" x1="108.61" y1="146.76" x2="108.61" y2="162.78"/><line class="cls-5" x1="112.43" y1="146.76" x2="112.43" y2="162.78"/><line class="cls-5" x1="116.25" y1="146.76" x2="116.25" y2="162.78"/><line class="cls-5" x1="120.08" y1="146.76" x2="120.08" y2="162.78"/><line class="cls-5" x1="123.9" y1="146.76" x2="123.9" y2="162.78"/><line class="cls-5" x1="127.72" y1="146.76" x2="127.72" y2="162.78"/><line class="cls-5" x1="131.55" y1="146.76" x2="131.55" y2="162.78"/><line class="cls-5" x1="135.37" y1="146.76" x2="135.37" y2="162.78"/><line class="cls-5" x1="139.19" y1="146.76" x2="139.19" y2="162.78"/><line class="cls-5" x1="143.02" y1="146.76" x2="143.02" y2="162.78"/><line class="cls-5" x1="146.84" y1="146.76" x2="146.84" y2="162.78"/><line class="cls-5" x1="150.66" y1="146.76" x2="150.66" y2="162.78"/><line class="cls-5" x1="154.49" y1="146.76" x2="154.49" y2="162.78"/><line class="cls-5" x1="158.31" y1="146.76" x2="158.31" y2="162.78"/><line class="cls-5" x1="162.13" y1="146.76" x2="162.13" y2="162.78"/><line class="cls-5" x1="165.96" y1="146.76" x2="165.96" y2="162.78"/><line class="cls-5" x1="169.78" y1="146.76" x2="169.78" y2="162.78"/></g><path d="M69.69,256.86a10.22,10.22,0,0,1,.6,4.35,18.24,18.24,0,0,1-1.13,4.8,17.87,17.87,0,0,1-3.67,5.7,16.57,16.57,0,0,1,4.05,11.47,33.6,33.6,0,0,1-3.3,13.35A61.52,61.52,0,0,1,57.61,310a80.82,80.82,0,0,1-12,11.77,69.93,69.93,0,0,1-13.27,8.4,29.16,29.16,0,0,1-12.45,3.23,20.55,20.55,0,0,1-9.08-1.8A16.5,16.5,0,0,1,5,327a19.4,19.4,0,0,1-3.22-6,33.85,33.85,0,0,1-1.43-6.15,30.93,30.93,0,0,1-.3-4.95c0-1.35.08-2.12.08-2.32,0-.7.07-1.85.22-3.45a36.23,36.23,0,0,1,1.13-5.78,59.69,59.69,0,0,1,2.7-7.65,58.36,58.36,0,0,1,4.8-8.92,84.67,84.67,0,0,1,9.45-12.3A66.14,66.14,0,0,1,32,258.06q2.55-1.65,5.4-3.15,2.55-1.2,5.77-2.48a41.66,41.66,0,0,1,6.83-2,49.6,49.6,0,0,1,5.62-.6,23.21,23.21,0,0,1,5.63.37,12.14,12.14,0,0,1,4.87,2.1A11.13,11.13,0,0,1,69.69,256.86Zm-11.85,14.7a2.14,2.14,0,0,0-1.73-.45,4.61,4.61,0,0,0-1.87.75,8.86,8.86,0,0,0-1.65,1.42,5.41,5.41,0,0,0-1.05,1.58c-.1.3-.28.4-.53.3a1.17,1.17,0,0,1-.6-.68,2.26,2.26,0,0,1,0-1.42,5,5,0,0,1,1.13-1.95,7.24,7.24,0,0,1,5.32-3.23,10,10,0,0,1,4.73.53,29.21,29.21,0,0,0,4.27-4.58,5.8,5.8,0,0,0,1.28-4.27.32.32,0,0,0-.08-.23.29.29,0,0,1-.07-.22,2.7,2.7,0,0,0-1-2.1,7.06,7.06,0,0,0-2.93-1.2,18,18,0,0,0-6.07.15,36.08,36.08,0,0,0-6.9,1.87,47.73,47.73,0,0,0-8.7,4.43,75.74,75.74,0,0,0-10.5,8.17,113.55,113.55,0,0,0-12.15,13.28,21.17,21.17,0,0,0-1.5,2.1q-1.2,1.8-2.85,4.72a71.25,71.25,0,0,0-3.3,6.75,60.19,60.19,0,0,0-2.85,8.33q-1.8,7.65-1.13,11.92a10.36,10.36,0,0,0,4.43,7,5.31,5.31,0,0,0,2.85,1.27,13.28,13.28,0,0,0,3.45,0,25.18,25.18,0,0,0,3.67-.75c1.25-.35,2.43-.72,3.53-1.12a7.21,7.21,0,0,1,2-.9c1.15-.4,2.33-.85,3.53-1.35l7.35-4.8a52.14,52.14,0,0,0,6.3-4.8,72.22,72.22,0,0,0,7.8-7.43,68.05,68.05,0,0,0,6.6-8.47,42.76,42.76,0,0,0,4.5-8.93,21.7,21.7,0,0,0,1.35-8.92,4.26,4.26,0,0,0-.53-2.4c-.35-.5-.67-1-1-1.35a58,58,0,0,1-6.08,5.55q-3.22,2.55-5.92,4.57t-4.65,3.23q-1.95,1.2-2.25,1.35l-3.15,1.95-.3.15a75.72,75.72,0,0,1-11.93,6.22q-4,1.43-4.42,1.28a6.4,6.4,0,0,1-3.15-.68,9.3,9.3,0,0,1-2-1.5A4.61,4.61,0,0,1,17.94,295c-.2-.55-.35-1-.45-1.27-.2-1-.08-1.48.37-1.43a9.31,9.31,0,0,0,2.33-.22,17.44,17.44,0,0,0,3.3-1.2q2.4-1.05,5.77-2.7t7.65-3.83q4.28-2.17,9.08-4.72l6.67-4.35a51.36,51.36,0,0,0,5.33-3.9Z"/><path d="M105.63,306.66c0,.1,0,.15.08.15s.07.05.07.15c0,.6-.9,1.62-2.7,3.07s-5,2.78-9.7,4l-2.09,2.4q-1,1.2-2.25,2.4a34.16,34.16,0,0,1-4.35,4.2,22.5,22.5,0,0,1-4.5,2.92,11.32,11.32,0,0,1-5.1,1.28,4.54,4.54,0,0,1-3.68-1.35,5,5,0,0,1-1.12-3.3,8.39,8.39,0,0,1,3.07-6.38q3.08-2.78,8.93-3.52a64.31,64.31,0,0,0,8.25-12.83q2.55-5.62,2.55-8.17,0-1.65-.9-1.65a5,5,0,0,0-2.33.82,23.69,23.69,0,0,0-3,2.1q-1.58,1.27-3.15,2.7c-1,.95-2,1.78-2.77,2.48q-3.75,5.1-6.08,8.77t-3.75,6.23a36.22,36.22,0,0,0-2.1,4.27c-.45,1.15-.87,2.18-1.27,3.08-.1.3-.23.7-.38,1.2s-.32,1-.52,1.65-.38,1.17-.53,1.72a5.19,5.19,0,0,0-.22,1.13.82.82,0,0,1-.6.82c-.4.15-.95,0-1.65-.52a12.46,12.46,0,0,1-2.1-1.95,7.08,7.08,0,0,1-1.5-3,15.26,15.26,0,0,1-.3-3A13.36,13.36,0,0,1,61.66,313q1.73-3.45,3.83-6.9,2.4-4.2,5.77-9.6t6.68-10.8q3.3-5.42,6-10.13T88,268a19.8,19.8,0,0,0,1.5-4,11.52,11.52,0,0,0,.3-2.18c0-.4.27-.67.82-.82a2.91,2.91,0,0,1,2,.37A16.86,16.86,0,0,1,96,264.43a6.42,6.42,0,0,1,1.33,5.32,22.5,22.5,0,0,1-2.66,7.05,146.34,146.34,0,0,1-8.21,13.05,29.52,29.52,0,0,1,3.9-2.27,9.48,9.48,0,0,1,4.17-1A5.64,5.64,0,0,1,99.2,289a10.65,10.65,0,0,1,1.84,6.6,23,23,0,0,1-1.18,6.75,34.23,34.23,0,0,1-4,8.1,16.74,16.74,0,0,0,2.48-1c1-.45,1.87-.9,2.77-1.35s1.7-.82,2.4-1.12a4.88,4.88,0,0,1,1.35-.45A1.19,1.19,0,0,1,105.63,306.66Zm-31,14.7q2.4-2.4,4.5-4.95-3.75,1.2-4.88,3a8.43,8.43,0,0,0-1.12,2.1q0,.6.3.6a2.63,2.63,0,0,0,.75-.3A1,1,0,0,0,74.64,321.36Z"/><path d="M142.89,306.81a1.3,1.3,0,0,1,.45.9,2.79,2.79,0,0,1-.53,1.42,28.76,28.76,0,0,1-1.87,2.48c-.81.9-2,2.2-3.53,3.9a67.18,67.18,0,0,1-5,4.95,44.56,44.56,0,0,1-5.25,4.05c-1.71,1.1-3.15,1.55-4.35,1.35a13.68,13.68,0,0,1-5-2.1,5.25,5.25,0,0,1-2.17-4.65A6.11,6.11,0,0,1,116,317c.3-.8.54-1.45.75-1.95-.51.5-1.28,1.35-2.32,2.55s-2.16,2.4-3.35,3.6a33.6,33.6,0,0,1-3.57,3.15,5.37,5.37,0,0,1-2.82,1.35,6.45,6.45,0,0,1-4.39-2,7.55,7.55,0,0,1-2.15-5.77c0-.1.12-.85.37-2.25a28.1,28.1,0,0,1,1.88-5.63,50.61,50.61,0,0,1,4.5-8,51.23,51.23,0,0,1,8.25-9.3,36.33,36.33,0,0,1,8.1-6.08,14,14,0,0,1,6.15-1.72,9,9,0,0,1,6.75,3,14.8,14.8,0,0,1,3.75,6.6,4.77,4.77,0,0,1,.07,2.77,2.9,2.9,0,0,1-1,1.43,1.45,1.45,0,0,1-1.2.3c-.35-.1-.48-.35-.37-.75a6.44,6.44,0,0,0-.38-3.9c-.55-1.5-1.42-2.25-2.62-2.25a10.37,10.37,0,0,0-3.53.75,13.22,13.22,0,0,0-4.27,2.85,71.52,71.52,0,0,0-5,5.17q-3,3.38-5.85,7a75.52,75.52,0,0,0-4.88,6.82q-2,3.22-2,4.58c0,.5.09.75.29.75a2.11,2.11,0,0,0,1-.45q.66-.45,2.73-2.25,1-1.05,3.92-3.83c1.93-1.85,3.89-3.8,5.9-5.85s3.77-3.92,5.32-5.62,2.27-2.7,2.18-3c-.3-1.1.12-1.75,1.27-1.95a6.51,6.51,0,0,1,3.68.52,5.69,5.69,0,0,1,2.92,2.78c.65,1.3.27,2.9-1.12,4.8-.41.6-1.26,1.72-2.55,3.37s-2.58,3.38-3.83,5.18a44.84,44.84,0,0,0-3,4.87c-.75,1.45-.78,2.33-.07,2.63.09,0,.12.05.07.15s0,.15.08.15c.69,0,1.85-.65,3.45-1.95A60.86,60.86,0,0,0,134,315l4.87-5c1.55-1.6,2.67-2.7,3.38-3.3C142.38,306.56,142.59,306.61,142.89,306.81Z"/><path d="M158.19,297.21q-3.91,6-7.28,11.32a76,76,0,0,0-4.88,8.63c-.29.7-.62,1.52-1,2.47s-.33,1.48.08,1.58,1-.13,2-1,2.3-1.92,3.75-3.22,2.9-2.68,4.35-4.13,2.68-2.72,3.68-3.82l.45-.45a8.92,8.92,0,0,1,1.35-1.65c.6-.6,1.14-.7,1.65-.3q.74.3.45,1.35a10.88,10.88,0,0,1-2.4,3.3,38.09,38.09,0,0,1-3.23,3.52q-2.33,2.32-5,4.65t-5.1,4.13a9.19,9.19,0,0,1-4,1.95,4,4,0,0,1-2,.07c-.65-.15-1.27-.32-1.88-.52a3.11,3.11,0,0,1-1.27-1.05c-.25-.4-.42-.7-.52-.9v-.3a4.15,4.15,0,0,1-.75-2.18c-.1-.95-.15-1.67-.15-2.17a13.36,13.36,0,0,1,1.72-5.55q1.73-3.45,3.83-6.9l1.5-2.55a37.25,37.25,0,0,1,2.92-5.33q1.73-2.62,3.53-5.47c1.39-2.3,2.85-4.7,4.35-7.2s2.94-4.9,4.34-7.2a46.59,46.59,0,0,1-4.72.3,14.53,14.53,0,0,1-2.92-.23,5.32,5.32,0,0,1-1.43-.45c-.25-.15-.28-.22-.07-.22a17.14,17.14,0,0,1-4.8-1.58,9.47,9.47,0,0,1-2.7-2,5.69,5.69,0,0,1-1.2-2,5.93,5.93,0,0,1-.3-1.72,1.7,1.7,0,0,1,.07-.53,1.18,1.18,0,0,0,.07-.37,1.08,1.08,0,0,1,1.06-.75q1,0,1,1.35l-.3.3q0,.3.75.6a4.79,4.79,0,0,1,1.5,1.05h.9l-.15.15a41.7,41.7,0,0,0,4.72.52q1.88.07,3.6,0t3.75-.3c1.35-.15,3.08-.37,5.18-.67q3-5.25,4.35-8.25a21.17,21.17,0,0,0,1.5-4,12.33,12.33,0,0,0,.3-2.17c0-.4.27-.68.82-.83a2.93,2.93,0,0,1,2,.38,16.64,16.64,0,0,1,3.44,3.07,6.32,6.32,0,0,1,1.36,5.33,18.31,18.31,0,0,1-.9,3.3c-.11.4-.21.77-.3,1.12s-.25.78-.45,1.28q13-.75,18.29-.45a13.92,13.92,0,0,1,5.48,1.5,12.19,12.19,0,0,1,3.45,2.7,8.45,8.45,0,0,1,1.73,3,8.86,8.86,0,0,1,.45,2.4.65.65,0,0,0,.14.45c0,.1.05.15.16.15a1.69,1.69,0,0,1-.3.9c-.21.3-.66.4-1.36.3-1.3.2-1.85-.15-1.64-1.05v-.3c-.11-.1-.26-.23-.45-.38a5.14,5.14,0,0,0-1.13-.52,12.67,12.67,0,0,0-2.32-.53c-1-.15-2.31-.32-3.9-.52a83.87,83.87,0,0,0-9.68-.08q-6.22.23-13.42.38h-.15l-4.2,6.45-6.45,9.45c-.3.4-.58.8-.83,1.2A12,12,0,0,0,158.19,297.21Z"/><path d="M200.63,306.81a1.3,1.3,0,0,1,.45.9,2.76,2.76,0,0,1-.52,1.42,29.42,29.42,0,0,1-1.88,2.48q-1.2,1.35-3.52,3.9a67.35,67.35,0,0,1-5,4.95,43.75,43.75,0,0,1-5.25,4.05,6.41,6.41,0,0,1-4.35,1.35,13.7,13.7,0,0,1-5-2.1,5.26,5.26,0,0,1-2.18-4.65,6.11,6.11,0,0,1,.45-2.1q.45-1.2.75-1.95-.75.75-2.31,2.55t-3.35,3.6a33.6,33.6,0,0,1-3.57,3.15,5.37,5.37,0,0,1-2.82,1.35,6.45,6.45,0,0,1-4.39-2,7.52,7.52,0,0,1-2.16-5.77c0-.1.13-.85.38-2.25a28.6,28.6,0,0,1,1.87-5.63,50.56,50.56,0,0,1,12.75-17.32,36.79,36.79,0,0,1,8.1-6.08,14,14,0,0,1,6.15-1.72,9,9,0,0,1,6.75,3,14.7,14.7,0,0,1,3.75,6.6,4.79,4.79,0,0,1,.08,2.77,2.9,2.9,0,0,1-1,1.43,1.45,1.45,0,0,1-1.2.3c-.35-.1-.48-.35-.38-.75a6.43,6.43,0,0,0-.37-3.9c-.55-1.5-1.43-2.25-2.63-2.25a10.37,10.37,0,0,0-3.52.75,13.25,13.25,0,0,0-4.28,2.85q-2,1.8-5,5.17t-5.85,7a77.32,77.32,0,0,0-4.87,6.82q-2,3.22-2,4.58,0,.75.3.75a2.11,2.11,0,0,0,1-.45q.66-.45,2.73-2.25,1-1.05,3.92-3.83t5.89-5.85q3-3.08,5.33-5.62c1.55-1.7,2.27-2.7,2.17-3-.3-1.1.13-1.75,1.28-1.95a6.47,6.47,0,0,1,3.67.52,5.67,5.67,0,0,1,2.93,2.78q1,2-1.13,4.8c-.4.6-1.25,1.72-2.55,3.37s-2.57,3.38-3.82,5.18a44.84,44.84,0,0,0-3,4.87c-.75,1.45-.78,2.33-.08,2.63.1,0,.13.05.08.15s0,.15.07.15q1.05,0,3.45-1.95a57.72,57.72,0,0,0,4.95-4.58l4.88-5q2.33-2.4,3.37-3.3Q200.18,306.51,200.63,306.81Z"/><path d="M214.73,297.21q-3.9,6-7.27,11.32a76,76,0,0,0-4.88,8.63c-.3.7-.62,1.52-1,2.47s-.33,1.48.07,1.58,1-.13,2-1,2.3-1.92,3.75-3.22,2.9-2.68,4.35-4.13,2.67-2.72,3.67-3.82l.45-.45a8.92,8.92,0,0,1,1.35-1.65q.9-.9,1.65-.3.75.3.45,1.35a10.52,10.52,0,0,1-2.4,3.3,37.62,37.62,0,0,1-3.22,3.52q-2.32,2.32-4.95,4.65t-5.1,4.13a9.17,9.17,0,0,1-4,1.95,4,4,0,0,1-2,.07c-.65-.15-1.28-.32-1.88-.52a3,3,0,0,1-1.27-1.05c-.25-.4-.43-.7-.53-.9v-.3a4.24,4.24,0,0,1-.75-2.18c-.09-.95-.15-1.67-.15-2.17a13.41,13.41,0,0,1,1.73-5.55q1.72-3.45,3.82-6.9l1.5-2.55a38.34,38.34,0,0,1,2.93-5.33q1.72-2.62,3.52-5.47,5.25-8.4,8.78-14.18a99.06,99.06,0,0,0,5.32-9.67,19.84,19.84,0,0,0,1.5-4,11.44,11.44,0,0,0,.3-2.17c0-.4.28-.68.83-.83a2.9,2.9,0,0,1,2,.38,16.93,16.93,0,0,1,3.45,3.07,6.35,6.35,0,0,1,1.35,5.33c-.2.8-.37,1.65-.52,2.55a13,13,0,0,1-1.28,3.45c-.3.6-.57,1.1-.82,1.5l-.9,1.42q-.53.82-1.5,2.1t-2.48,3.68l-6.45,9.45c-.3.4-.57.8-.82,1.2S214.93,296.81,214.73,297.21Z"/><path d="M257.78,306.81a1.3,1.3,0,0,1,.45.9,2.76,2.76,0,0,1-.52,1.42,29.42,29.42,0,0,1-1.88,2.48q-1.2,1.35-3.52,3.9a67.35,67.35,0,0,1-5,4.95,43.75,43.75,0,0,1-5.25,4.05,6.41,6.41,0,0,1-4.35,1.35,13.7,13.7,0,0,1-5-2.1,5.26,5.26,0,0,1-2.18-4.65,6.11,6.11,0,0,1,.45-2.1q.45-1.2.75-1.95-.75.75-2.31,2.55t-3.35,3.6a33.6,33.6,0,0,1-3.57,3.15,5.37,5.37,0,0,1-2.82,1.35,6.45,6.45,0,0,1-4.39-2,7.52,7.52,0,0,1-2.16-5.77c0-.1.13-.85.38-2.25a28.6,28.6,0,0,1,1.87-5.63,50.61,50.61,0,0,1,4.5-8,52,52,0,0,1,8.25-9.3,36.79,36.79,0,0,1,8.1-6.08,14,14,0,0,1,6.15-1.72,9,9,0,0,1,6.75,3,14.7,14.7,0,0,1,3.75,6.6,4.79,4.79,0,0,1,.08,2.77,2.9,2.9,0,0,1-1,1.43,1.45,1.45,0,0,1-1.2.3c-.35-.1-.48-.35-.38-.75a6.43,6.43,0,0,0-.37-3.9c-.55-1.5-1.43-2.25-2.63-2.25a10.37,10.37,0,0,0-3.52.75,13.25,13.25,0,0,0-4.28,2.85q-1.95,1.8-4.95,5.17t-5.85,7a77.32,77.32,0,0,0-4.87,6.82q-2,3.22-2,4.58,0,.75.3.75a2.11,2.11,0,0,0,1-.45q.66-.45,2.73-2.25,1-1.05,3.92-3.83t5.89-5.85q3-3.08,5.33-5.62c1.55-1.7,2.27-2.7,2.17-3-.3-1.1.13-1.75,1.28-1.95a6.47,6.47,0,0,1,3.67.52,5.67,5.67,0,0,1,2.93,2.78q1,2-1.13,4.8c-.4.6-1.25,1.72-2.55,3.37s-2.57,3.38-3.82,5.18a44.84,44.84,0,0,0-3,4.87c-.75,1.45-.78,2.33-.08,2.63.1,0,.13.05.08.15s0,.15.07.15q1,0,3.45-1.95a57.72,57.72,0,0,0,5-4.58l4.88-5q2.32-2.4,3.37-3.3Q257.33,306.51,257.78,306.81Z"/><path d="M83.64,352.06a5.4,5.4,0,0,1,1.8,0h.45q1,.45.9.9a2,2,0,0,1-.75.9,7.68,7.68,0,0,1-1.43.82c-.55.25-.92.43-1.12.53a16.37,16.37,0,0,0-4.28,4.42,22,22,0,0,0-2.62,5.48,25.39,25.39,0,0,0-1.13,5.47,14.87,14.87,0,0,0,.23,4.58c.2.8.52,1.25,1,1.35a1.88,1.88,0,0,0,1.28-.15A11.49,11.49,0,0,0,83,372a38.51,38.51,0,0,0,4-7.2,53,53,0,0,0,2.62-7.8,56.11,56.11,0,0,0,1.28-6.3,46.24,46.24,0,0,0,.37-8.63Q91,338,89.94,336.46q-1.95-.45-5.7,1.35a76.23,76.23,0,0,0-8.63,5.62,127.34,127.34,0,0,0-14,12.53q-1.35,1.5-4.8,5.17t-6.6,7.73q-1.65,2.25-3.45,5.25h-.15A97.77,97.77,0,0,0,41.34,383a57.58,57.58,0,0,0-4.05,9.75,25.4,25.4,0,0,0-1.2,9.23,11.14,11.14,0,0,0,3.3,7.35,15.05,15.05,0,0,0,4.65,1.2,18.78,18.78,0,0,0,5.62-.3,30.53,30.53,0,0,0,7.73-2.7q3.6-1.8,8.17-4.65t9-6.15a93.85,93.85,0,0,0,8.18-6.83,29.82,29.82,0,0,0,5.55-6.67l.45-.75a1.27,1.27,0,0,1,1.05-.75q.45,0,.45.75a5.09,5.09,0,0,1,.37,2.17,10.26,10.26,0,0,1-.37,2q-.45,1.65-4,5t-8.33,7q-4.73,3.67-9.67,6.9a66,66,0,0,1-8.25,4.73,25.5,25.5,0,0,1-6.15,2.62,40,40,0,0,1-9.15,1.43,27,27,0,0,1-4.65-.45A15.45,15.45,0,0,1,35,412a15.59,15.59,0,0,1-7.42-10.42,40.72,40.72,0,0,1-.75-5,27.74,27.74,0,0,1,.45-7.35,47,47,0,0,1,3.07-9.82,73.66,73.66,0,0,1,7.13-12.6A104.26,104.26,0,0,1,50,352.66q3-2.85,6.52-5.78a84,84,0,0,1,7.65-5.62,81.71,81.71,0,0,1,8.7-4.95,62.89,62.89,0,0,1,9.53-3.75l2-.3a11.88,11.88,0,0,1,4.2.15,22.88,22.88,0,0,1,3.37,1.2c.85.4,1.53.75,2,1.05a9.83,9.83,0,0,1,1.5,1.2q.45.75,1.05,1.65c.2.5.42,1.12.67,1.87a12.12,12.12,0,0,1,.53,2.33,28.86,28.86,0,0,1-.9,9.82A57.31,57.31,0,0,1,93,362.26,53.36,53.36,0,0,1,87.09,372a27.78,27.78,0,0,1-7.35,6.9,11.45,11.45,0,0,1-3.68,1.65,6.86,6.86,0,0,1-4-.3,5,5,0,0,1-3.45-2.85A20.76,20.76,0,0,1,68,375a11.36,11.36,0,0,1,.07-3.9,23.54,23.54,0,0,1,1-3.6,26.37,26.37,0,0,1,3.67-6.75q2-2.55,3.08-3.75a24.76,24.76,0,0,1,3.82-3.23,12.68,12.68,0,0,1,3.23-1.57.57.57,0,0,0,.37-.08A.62.62,0,0,1,83.64,352.06Z"/><path d="M108.81,403.28a27.57,27.57,0,0,1-5.18,3.38A17.6,17.6,0,0,1,99,408.23a22.86,22.86,0,0,1-3.82.38,16,16,0,0,1-3.15-.3l-1.2-.3a.87.87,0,0,1-.6-.15,10.08,10.08,0,0,1-3.9-1.8A8.77,8.77,0,0,1,84,403.28a9.79,9.79,0,0,1-1-3.3,15.26,15.26,0,0,1-.07-3.37,18.12,18.12,0,0,1,1.42-5.93c.75-1.65,1.23-2.72,1.43-3.22q1-1.8,3.22-5.1a51.06,51.06,0,0,1,5.33-6.68,38.17,38.17,0,0,1,7-5.92,17.42,17.42,0,0,1,8.55-2.85,9.7,9.7,0,0,1,4.8.75,7.44,7.44,0,0,1,2.55,1.88,1.78,1.78,0,0,1,.45,1.74q-.3.75-1.35.3a4.26,4.26,0,0,0-2.63-.08,6,6,0,0,0-1.27.38c.3-.1.15,0-.45.22a16.85,16.85,0,0,0-2.85,1.81,35.52,35.52,0,0,0-4.73,4.44,70.17,70.17,0,0,0-6.22,8.13,78.89,78.89,0,0,0-5.1,8.74,19.9,19.9,0,0,0-2,6q-.45,3.47,3.45,3.47,2.25,0,5.1-2.72a43.06,43.06,0,0,0,5.32-6.18,60.21,60.21,0,0,0,4.13-6.56c1.1-2.06,1.6-3.4,1.5-4a7.16,7.16,0,0,1-2.78-1,2.33,2.33,0,0,1-1.12-2.64,5.29,5.29,0,0,1,1.2-3.47,5.82,5.82,0,0,1,2.1-1.43,4.41,4.41,0,0,1,1.87-.3,2.93,2.93,0,0,1,.68.08,7.71,7.71,0,0,1,3.45.9,8.5,8.5,0,0,1,3.15,2.86,32,32,0,0,1,4.72-1.88,15.67,15.67,0,0,1,4.73-.83,8.36,8.36,0,0,1,3.6.6,4.49,4.49,0,0,1,1.72,1.35,3.33,3.33,0,0,1,.53,1.95,1.87,1.87,0,0,1-.23.6.71.71,0,0,1-.67.45c-.3,0-.48-.1-.53-.3s-.1-.45-.15-.75a1.69,1.69,0,0,0-.3-.75,1,1,0,0,0-.82-.3,4.88,4.88,0,0,1-1-.08,2.75,2.75,0,0,0-1.2.23c-.6.2-1.58.55-2.93,1.05s-3.47,1.25-6.37,2.25a5.26,5.26,0,0,0-.15,1.5,18.77,18.77,0,0,1-1.2,4.5,26.71,26.71,0,0,1-2,4q-1.05,1.73-2.55,3.83A39.46,39.46,0,0,1,108.81,403.28Zm1-21.07h.82a1.74,1.74,0,0,0,1-.3,1.81,1.81,0,0,0-.83-1.43,2.43,2.43,0,0,0-1.12-.37,1.3,1.3,0,0,0-1.35,1.05Q108.36,382.21,109.86,382.21Z"/><path d="M113.28,427.51a6.27,6.27,0,0,0-.3,1.05,1,1,0,0,1-.6.75q-.45.15-1.5-.75a10.76,10.76,0,0,1-2.7-3.53,7.36,7.36,0,0,1-.45-5.32,11,11,0,0,1,.67-2.4c.35-.9.78-1.9,1.28-3q1.2-2.4,3.9-7.65t5.92-11.55q3.23-6.3,6.53-12.6t5.7-10.95q-3.3-1.2-4-2.85a7.47,7.47,0,0,1-.67-2.25q0-.6.75-.6.9,0,.9,1.05v.6A2.8,2.8,0,0,0,130,368a9.72,9.72,0,0,0,2.18.23h.9c.3-.5.92-1.6,1.87-3.3s2.13-3.63,3.53-5.78,2.92-4.42,4.57-6.82a64.34,64.34,0,0,1,5.18-6.6,36.78,36.78,0,0,1,5.32-4.95,8.54,8.54,0,0,1,5-1.95,4.09,4.09,0,0,1,3.6,1.72,9.28,9.28,0,0,1,1.5,4.28,23.26,23.26,0,0,1-.23,4.8,38.14,38.14,0,0,1-1.27,5.7c-.1.3-.28.75-.53,1.35s-.55,1.22-.9,1.87a8.63,8.63,0,0,1-1.12,1.65,1.78,1.78,0,0,1-1.35.68q-1.2,0-1.5-1.5a2.41,2.41,0,0,1,.37-1,2.29,2.29,0,0,1,1-1,26.62,26.62,0,0,0,1.8-5.85,22.24,22.24,0,0,0,.3-6.3q0-.9-.45-.9a2,2,0,0,0-1,.6,21,21,0,0,0-2.32,2.92q-1.65,2.32-4.43,7t-7,12.75a24.19,24.19,0,0,1,5.25,1.2,13.83,13.83,0,0,1,3,1.5,4.36,4.36,0,0,1,1.42,1.5,3,3,0,0,1,.38,1.05v.9q0,.6-.75.6t-.75-1.05a3.68,3.68,0,0,0-.38-1.13c-.15-.25-.57-.42-1.27-.52H149.5q-2,0-6.67.3l-.15.3q-3.45,6.15-8,14.4t-8.92,16.42q-4.35,8.17-7.88,15a80.42,80.42,0,0,0-4.57,10Zm-.6,1.95a1.15,1.15,0,0,1,.15-.45l.45-.9A5.88,5.88,0,0,0,112.68,429.46Z"/><path d="M135.6,427.51a6.27,6.27,0,0,0-.3,1.05,1,1,0,0,1-.6.75q-.45.15-1.5-.75a10.76,10.76,0,0,1-2.7-3.53,7.36,7.36,0,0,1-.45-5.32,11,11,0,0,1,.67-2.4c.35-.9.78-1.9,1.28-3q1.2-2.4,3.9-7.65t5.92-11.55q3.23-6.3,6.53-12.6c2.19-4.2,4.1-7.85,5.7-10.95q-3.3-1.2-4-2.85a7.47,7.47,0,0,1-.67-2.25c0-.4.24-.6.75-.6s.9.35.9,1.05v.6a2.8,2.8,0,0,0,1.27.52,9.72,9.72,0,0,0,2.18.23h.9c.3-.5.92-1.6,1.87-3.3s2.12-3.63,3.53-5.78,2.92-4.42,4.57-6.82a64.34,64.34,0,0,1,5.18-6.6,36.78,36.78,0,0,1,5.32-4.95,8.54,8.54,0,0,1,5-1.95,4.1,4.1,0,0,1,3.6,1.72,9.39,9.39,0,0,1,1.5,4.28,24,24,0,0,1-.23,4.8,38.14,38.14,0,0,1-1.27,5.7c-.1.3-.28.75-.53,1.35s-.55,1.22-.9,1.87a9.12,9.12,0,0,1-1.12,1.65,1.78,1.78,0,0,1-1.35.68c-.81,0-1.3-.5-1.5-1.5a2.41,2.41,0,0,1,.37-1,2.29,2.29,0,0,1,1-1,26.62,26.62,0,0,0,1.8-5.85,22.61,22.61,0,0,0,.3-6.3q0-.9-.45-.9c-.21,0-.53.2-1,.6a21,21,0,0,0-2.32,2.92q-1.65,2.32-4.43,7t-7,12.75a24.33,24.33,0,0,1,5.25,1.2,13.83,13.83,0,0,1,3,1.5,4.46,4.46,0,0,1,1.42,1.5,3,3,0,0,1,.38,1.05v.9q0,.6-.75.6t-.75-1.05a3.68,3.68,0,0,0-.38-1.13c-.15-.25-.58-.42-1.27-.52h-2.48c-1.35,0-3.58.1-6.67.3l-.15.3q-3.45,6.15-8,14.4t-8.92,16.42q-4.35,8.17-7.88,15a80.42,80.42,0,0,0-4.57,10Zm-.6,1.95a1.15,1.15,0,0,1,.15-.45l.45-.9A5.88,5.88,0,0,0,135,429.46Z"/><path d="M198.56,393.46q-1.65,1.65-4.57,4.2t-6.3,4.95a44.36,44.36,0,0,1-6.9,4.05,15.53,15.53,0,0,1-6.53,1.65,2.47,2.47,0,0,1-.6-.08,2.46,2.46,0,0,0-.6-.07h-.15q-5.4-.6-7.27-3.08a8.85,8.85,0,0,1-1.88-5.47,16.54,16.54,0,0,1,1.28-7.13q1.28-2.62,2.62-5.17a46.15,46.15,0,0,1,3.9-5.78,64.81,64.81,0,0,1,6.15-6.9,45,45,0,0,1,7.2-5.77,13,13,0,0,1,6.9-2.4,7.11,7.11,0,0,1,2.55.6c-.1-.1,0-.08.23.07l1,.6a9.54,9.54,0,0,1,1.05.75c.3.25.5.38.6.38a7.62,7.62,0,0,1,2.25,4.95,9.31,9.31,0,0,1-2.77,6.22,40.84,40.84,0,0,1-6.68,5.85,74.57,74.57,0,0,1-7.95,4.95q-4,2.18-6.75,3.38c-.5,1.3-.87,2.35-1.12,3.15a9,9,0,0,0-.38,2.7q0,4.05,3.9,4.05a8.94,8.94,0,0,0,2.18-.68,34.65,34.65,0,0,0,4.35-2.17,64.76,64.76,0,0,0,6-4,62.51,62.51,0,0,0,7.12-6.22q.15,0,1-1.05a4.25,4.25,0,0,1,1.8-1.35,2.47,2.47,0,0,1,.75.15.69.69,0,0,1,.45.75,3.87,3.87,0,0,1-.67,1.57A9.22,9.22,0,0,1,198.56,393.46Zm-18.9-6.6a18.9,18.9,0,0,0-1.27,2c-.35.65-.73,1.33-1.13,2q5.4-4.05,8.78-7.05a57.66,57.66,0,0,0,5.25-5.18,14.92,14.92,0,0,0,2.47-3.6,6.21,6.21,0,0,0,.6-2.17,2.3,2.3,0,0,0-.3-.9,1.15,1.15,0,0,1-.15-.45c.1-.1-.17.05-.82.45a27.54,27.54,0,0,0-2.93,2.25,46.55,46.55,0,0,0-4.65,4.72A71.78,71.78,0,0,0,179.66,386.86Z"/><path d="M230,393.46q-1.65,1.65-4.57,4.2t-6.3,4.95a44.36,44.36,0,0,1-6.9,4.05,15.53,15.53,0,0,1-6.53,1.65,2.47,2.47,0,0,1-.6-.08,2.46,2.46,0,0,0-.6-.07h-.15q-5.4-.6-7.27-3.08a8.85,8.85,0,0,1-1.88-5.47,16.54,16.54,0,0,1,1.28-7.13q1.28-2.62,2.62-5.17a46.15,46.15,0,0,1,3.9-5.78,64.81,64.81,0,0,1,6.15-6.9,45,45,0,0,1,7.2-5.77,13,13,0,0,1,6.9-2.4,7.11,7.11,0,0,1,2.55.6c-.1-.1,0-.08.23.07l1,.6a9.54,9.54,0,0,1,1.05.75c.3.25.5.38.6.38a7.62,7.62,0,0,1,2.25,4.95,9.31,9.31,0,0,1-2.77,6.22,40.84,40.84,0,0,1-6.68,5.85,74.57,74.57,0,0,1-7.95,4.95q-4,2.18-6.75,3.38c-.5,1.3-.87,2.35-1.12,3.15a9,9,0,0,0-.38,2.7q0,4.05,3.9,4.05a8.94,8.94,0,0,0,2.18-.68,34.65,34.65,0,0,0,4.35-2.17,64.76,64.76,0,0,0,6-4,62.51,62.51,0,0,0,7.12-6.22q.15,0,1-1.05a4.25,4.25,0,0,1,1.8-1.35,2.47,2.47,0,0,1,.75.15.69.69,0,0,1,.45.75,3.87,3.87,0,0,1-.67,1.57A9.22,9.22,0,0,1,230,393.46Zm-18.9-6.6a18.9,18.9,0,0,0-1.27,2c-.35.65-.73,1.33-1.13,2q5.4-4.05,8.78-7.05a57.66,57.66,0,0,0,5.25-5.18,14.92,14.92,0,0,0,2.47-3.6,6.21,6.21,0,0,0,.6-2.17,2.3,2.3,0,0,0-.3-.9,1.15,1.15,0,0,1-.15-.45c.1-.1-.17.05-.82.45a27.54,27.54,0,0,0-2.93,2.25A46.55,46.55,0,0,0,217,379,71.78,71.78,0,0,0,211.13,386.86Z"/></svg>