<svg xmlns="http://www.w3.org/2000/svg" xmlns:xlink="http://www.w3.org/1999/xlink" viewBox="0 0 284 284"><defs><style>.cls-1,.cls-4,.cls-9{fill:none;}.cls-2,.cls-8{fill:#231f20;}.cls-2,.cls-4{stroke:#231f20;}.cls-2,.cls-6,.cls-9{stroke-miterlimit:10;}.cls-3,.cls-5,.cls-6{fill:#fff;}.cls-4,.cls-5,.cls-9{stroke-linecap:round;}.cls-4,.cls-5{stroke-linejoin:round;}.cls-5,.cls-6,.cls-9{stroke:#fff;}.cls-7{clip-path:url(#clip-path);}</style><clipPath id="clip-path"><ellipse class="cls-1" cx="144.45" cy="158.07" rx="25.12" ry="5.88"/></clipPath></defs><title>Obatala Coffee</title><g id="Laag_3" data-name="Laag 3"><circle class="cls-2" cx="142" cy="142" r="141.5"/></g><g id="Laag_2" data-name="Laag 2"><ellipse class="cls-1" cx="144.35" cy="158.28" rx="26.54" ry="7"/><path class="cls-3" d="M77.46,100.56a9.1,9.1,0,0,1,3.55.91C81,97.91,77.52,95,73.22,95s-7.78,2.67-7.78,6.24a8.67,8.67,0,0,0,3.55,1C70.72,102.25,75.7,100.56,77.46,100.56Z"/><path class="cls-3" d="M69,102.72a9.1,9.1,0,0,1-3.55-.91c0,3.56,3.48,6.45,7.78,6.45S81,105.53,81,102a9.15,9.15,0,0,0-3.55-.93C75.73,101,70.75,102.72,69,102.72Z"/><path class="cls-3" d="M158.64,137.69a10.12,10.12,0,0,0-3.95,1c0-4,3.88-7.19,8.67-7.19s8.67,3,8.67,6.95a9.63,9.63,0,0,1-3.95,1.11C166.15,139.58,160.6,137.69,158.64,137.69Z"/><path class="cls-3" d="M168.08,140.1a10.14,10.14,0,0,0,3.95-1c0,4-3.88,7.18-8.67,7.18s-8.67-3.05-8.67-7a10.18,10.18,0,0,1,3.95-1C160.57,138.22,166.12,140.1,168.08,140.1Z"/><path class="cls-3" d="M161.14,88.9a7.15,7.15,0,0,0-2.81.73c0-2.83,2.76-5.12,6.17-5.12s6.18,2.12,6.18,4.94a6.82,6.82,0,0,1-2.82.8C166.49,90.25,162.54,88.9,161.14,88.9Z"/><path class="cls-3" d="M167.86,90.62a7.24,7.24,0,0,0,2.82-.72c0,2.82-2.77,5.11-6.18,5.11s-6.17-2.17-6.17-5a7.21,7.21,0,0,1,2.81-.74C162.52,89.28,166.47,90.62,167.86,90.62Z"/><path class="cls-3" d="M203.69,93.88a7.89,7.89,0,0,0-3.2.16c.62-3.05,4.11-4.91,7.79-4.16s6.2,3.64,5.58,6.69a7.64,7.64,0,0,1-3.21.23C209.17,96.5,205.19,94.19,203.69,93.88Z"/><path class="cls-3" d="M210.57,97.21a8,8,0,0,0,3.19-.17c-.62,3-4.1,4.92-7.78,4.17s-6.19-3.7-5.57-6.75a8,8,0,0,1,3.2-.18C205.09,94.58,209.06,96.9,210.57,97.21Z"/><path class="cls-3" d="M174.83,125.35a10.7,10.7,0,0,0-3.79,2c-1-4.06,2.15-8.34,7.05-9.56s9.64.84,10.65,4.9a10.14,10.14,0,0,1-3.77,2.15C183,125.37,176.83,124.85,174.83,125.35Z"/><path class="cls-3" d="M185.11,125.42a10.75,10.75,0,0,0,3.79-2c1,4.06-2.15,8.35-7.05,9.56s-9.66-.91-10.67-5a10.71,10.71,0,0,1,3.78-2.07C176.94,125.4,183.1,125.91,185.11,125.42Z"/><path class="cls-3" d="M155.48,114.25a10.68,10.68,0,0,0-2.93,2.81c-1.86-3.16,0-7.68,4.11-10.11s8.86-2,10.71,1.12a10.23,10.23,0,0,1-2.88,2.89C162.83,111.94,157.16,113.25,155.48,114.25Z"/><path class="cls-3" d="M164.73,111.38a10.84,10.84,0,0,0,2.93-2.81c1.86,3.15,0,7.67-4.1,10.1s-8.9,2-10.76-1.18a10.86,10.86,0,0,1,2.92-2.83C157.38,113.69,163.05,112.37,164.73,111.38Z"/><path class="cls-3" d="M186.57,103a10.79,10.79,0,0,0-4-.72c1.46-3.35,6.2-4.52,10.59-2.61s6.85,6,5.39,9.33a10.15,10.15,0,0,1-4-.63C192.76,107.61,188.37,103.8,186.57,103Z"/><path class="cls-3" d="M194.34,108.82a10.79,10.79,0,0,0,4,.72c-1.46,3.35-6.2,4.52-10.59,2.61s-6.82-6-5.36-9.39a10.78,10.78,0,0,1,4,.7C188.15,104.23,192.54,108,194.34,108.82Z"/><path class="cls-3" d="M183.28,87.64a10.76,10.76,0,0,0-3.46,2.12c-1.14-3.48,1.62-7.51,6.17-9s9.09-.09,10.23,3.39a10.23,10.23,0,0,1-3.43,2.2C191,87,185.14,87,183.28,87.64Z"/><path class="cls-3" d="M192.94,86.81a10.76,10.76,0,0,0,3.46-2.12c1.14,3.48-1.62,7.51-6.17,9s-9.11,0-10.25-3.45a10.75,10.75,0,0,1,3.45-2.14C185.27,87.5,191.08,87.42,192.94,86.81Z"/><path class="cls-3" d="M128.72,140.36a11.18,11.18,0,0,1,3.86,2.34c1.28-4.21-1.81-8.86-6.89-10.39s-10.15.38-11.42,4.58a10.69,10.69,0,0,0,3.84,2.45C120.15,140,126.64,139.73,128.72,140.36Z"/><path class="cls-3" d="M117.94,139.89a11.11,11.11,0,0,1-3.87-2.34c-1.27,4.21,1.82,8.87,6.9,10.4s10.17-.46,11.44-4.66a11.22,11.22,0,0,0-3.86-2.37C126.51,140.3,120,140.52,117.94,139.89Z"/><path class="cls-3" d="M86.48,121.08a9.1,9.1,0,0,1,3.66.1c-.79-3.48-4.84-5.51-9-4.55s-7,4.34-6.19,7.81a8.59,8.59,0,0,0,3.68.18C80.29,124.24,84.77,121.47,86.48,121.08Z"/><path class="cls-3" d="M78.7,125.08A9,9,0,0,1,75,125c.8,3.47,4.84,5.51,9,4.55s7-4.41,6.18-7.88a9,9,0,0,0-3.66-.12C84.9,121.93,80.42,124.69,78.7,125.08Z"/><path class="cls-3" d="M104.15,129.53a11.44,11.44,0,0,1,4.43-.43c-1.49-3.94-6.68-5.72-11.58-4s-7.77,6.12-6.28,10.06a10.76,10.76,0,0,0,4.47-.34C97.16,134.14,102.14,130.24,104.15,129.53Z"/><path class="cls-3" d="M95.38,135.37a11.43,11.43,0,0,1-4.43.43c1.49,3.94,6.68,5.72,11.59,4s7.74-6.19,6.25-10.13a11.38,11.38,0,0,0-4.44.4C102.37,130.76,97.39,134.65,95.38,135.37Z"/><path class="cls-3" d="M101.77,89.64A9,9,0,0,1,105.18,91c.43-3.53-2.68-6.82-7-7.34s-8,1.71-8.48,5.24a8.65,8.65,0,0,0,3.4,1.42C94.87,90.5,100,89.43,101.77,89.64Z"/><path class="cls-3" d="M93.1,90.76a9,9,0,0,1-3.41-1.33c-.43,3.53,2.68,6.82,6.94,7.34s8.06-1.77,8.49-5.31a9.14,9.14,0,0,0-3.41-1.35C100,89.9,94.84,91,93.1,90.76Z"/><path class="cls-3" d="M129.77,89.35a8.24,8.24,0,0,1,3.09,1.2c.39-3.2-2.42-6.18-6.29-6.65s-7.29,1.55-7.68,4.75A7.79,7.79,0,0,0,122,89.94C123.52,90.13,128.19,89.15,129.77,89.35Z"/><path class="cls-3" d="M121.92,90.36a8.16,8.16,0,0,1-3.09-1.2c-.4,3.2,2.42,6.18,6.29,6.65s7.3-1.61,7.69-4.81a8.22,8.22,0,0,0-3.09-1.23C128.16,89.58,123.5,90.56,121.92,90.36Z"/><path class="cls-3" d="M132.57,113a10.61,10.61,0,0,1,2.81,3.26c2.39-3.43,1-8.55-3.16-11.43s-9.29-2.66-11.68.77a10.19,10.19,0,0,0,2.74,3.34C125,110.07,130.88,111.79,132.57,113Z"/><path class="cls-3" d="M123,109.36a10.66,10.66,0,0,1-2.8-3.26c-2.39,3.43-1,8.55,3.16,11.44s9.32,2.59,11.71-.84a10.79,10.79,0,0,0-2.78-3.28C130.59,112.26,124.66,110.54,123,109.36Z"/><path class="cls-3" d="M107.45,109.13a11.86,11.86,0,0,1,4.78,1.28c0-5-4.7-9-10.5-9s-10.5,3.74-10.5,8.74A11.42,11.42,0,0,0,96,111.5C98.35,111.5,105.08,109.13,107.45,109.13Z"/><path class="cls-3" d="M96,112.17a11.87,11.87,0,0,1-4.79-1.28c0,5,4.7,9,10.5,9s10.5-3.84,10.5-8.83a11.9,11.9,0,0,0-4.78-1.31C105.11,109.79,98.39,112.17,96,112.17Z"/><path class="cls-3" d="M139.81,154.36s1.33-10.5.58-14.75-5.17-11.25-11-15A51.18,51.18,0,0,0,116.72,119s8.59-.33,13.84,3.33,10.08,10.09,10.08,10.09-.92-8.59-.92-11.67,0-11,.5-12.25-.58-4-2.16-6.08S132,95.2,132,95.2s3.59,1.16,4.75,2.58,4.34,5.33,4.34,5.33,2.75-8.91,3.91-11.58A62.28,62.28,0,0,1,148.64,85s-2.17,8.25-2.75,10.33a64,64,0,0,0-1.67,7.92,118.28,118.28,0,0,0-.83,12.25c2-6.67,6.08-12.25,7.33-13.42s8.17-5.67,8.17-5.67-4.58,5.92-6.83,8.75-5.92,10.67-6.59,14.25-.66,5.34-.33,7.17,1.58,4.75,1.58,5.83c1.84-2.41,5.25-7,7.34-8.16s4.16-2.67,7.08-2.5c-3.17,1.91-7.5,6.08-8.67,8.08s-3.16,4.67-3.75,8.25.67,15.92.67,15.92Z"/><path class="cls-3" d="M164.28,192.06c-5.09,5.29-12.7,8.05-20.2,8.05-8.23,0-15-3.1-18.89-7.78-8.52,1.48-14.07,3.87-14.07,6.58,0,4.48,11.06,9.54,33.73,9.54,18.82,0,35.15-5.06,35.15-9.54C180,196,173.73,193.51,164.28,192.06Z"/><path class="cls-3" d="M170,155.78a6.6,6.6,0,0,1,1.41,2.17,11.51,11.51,0,0,1,.25,3.5c1.67.08,5.59.25,7.42,1.5s3.5,3.08,3.42,5.58a10.46,10.46,0,0,1-4.25,7.33,29.57,29.57,0,0,1-7.17,4.17c-.33.83-1.08,2.75-1.75,4.08a41.43,41.43,0,0,1-2.08,3.84c4.75-1.17,15-4.34,19.08-11.75s1.25-12.59.58-13.92-3-4.67-6.41-5.67A29.2,29.2,0,0,0,170,155.78Z"/><path class="cls-3" d="M109,239.45l-.59.59a4.7,4.7,0,0,1-.54.42,14.81,14.81,0,0,1-2.16,2.26,15.57,15.57,0,0,1-2.61,1.8,14.89,14.89,0,0,1-2.81,1.19,9.3,9.3,0,0,1-2.8.45,16.3,16.3,0,0,1-5-.73,8.46,8.46,0,0,1-3.8-2.45,10.49,10.49,0,0,1-2.24-4.6,22.22,22.22,0,0,1-.3-7.21,13,13,0,0,1,1.15-5.45,14.33,14.33,0,0,1,3.09-4.45,14.56,14.56,0,0,1,4.44-3,12.89,12.89,0,0,1,5.21-1.1,20.59,20.59,0,0,1,2.65.17,8.54,8.54,0,0,1,2.38.64,7.56,7.56,0,0,1,2.1,1.42,9.41,9.41,0,0,1,1.8,2.42,3.11,3.11,0,0,0-2.06.71,6.8,6.8,0,0,0-1.54,1.92.67.67,0,0,1-.26.56.88.88,0,0,1-.57.2.86.86,0,0,1-.56-.2.65.65,0,0,1-.26-.56c-.14,0-.16-.07-.06-.19a4.25,4.25,0,0,1,.44-.46l.67-.65a4.17,4.17,0,0,0,.6-.76c-.4-.38-.82-.76-1.25-1.14a12.57,12.57,0,0,0-1.37-1,7.23,7.23,0,0,0-1.64-.74,6.79,6.79,0,0,0-2-.29,6.86,6.86,0,0,0-4.36.33,7.51,7.51,0,0,0-3.09,2.6,12.63,12.63,0,0,0-1.84,4.14,20,20,0,0,0-.6,4.89,15.37,15.37,0,0,0,.56,5.33,11.64,11.64,0,0,0,2.1,4A8.9,8.9,0,0,0,95.05,243a8.16,8.16,0,0,0,4,.66,10.62,10.62,0,0,0,3.52-.54,6.44,6.44,0,0,0,2.78-2.08,16.18,16.18,0,0,0,1.46-1.09,5.91,5.91,0,0,1,1.53-1,1.65,1.65,0,0,1,.69-.27.54.54,0,0,1,.38.08c.07.07.07.17,0,.29A1,1,0,0,1,109,239.45Z"/><path class="cls-3" d="M125.23,227a5.56,5.56,0,0,1,2.86,1.11,6.4,6.4,0,0,1,1.84,2.28,9.68,9.68,0,0,1,.87,3.13,18.56,18.56,0,0,1,0,3.66,11.4,11.4,0,0,1-1.47,3.67,10.76,10.76,0,0,1-2.61,2.91,15.9,15.9,0,0,1-3.05,1.86,7.31,7.31,0,0,1-3,.69,9.11,9.11,0,0,1-9.13-9.13,9.45,9.45,0,0,1,1.07-4.38,8.1,8.1,0,0,1,3-3.26,12,12,0,0,1,4.43-2.22A13.1,13.1,0,0,1,125.23,227Zm-8.65,3.59a5.7,5.7,0,0,0-1.09,2.1,9.9,9.9,0,0,0-.36,2.27,8.93,8.93,0,0,0,.12,2,4.71,4.71,0,0,0,.36,1.25,4,4,0,0,0,.63,1.21,10.3,10.3,0,0,0,1.07,1.27,9.62,9.62,0,0,0,1.35,1.17,8.61,8.61,0,0,0,1.52.91c2.28,1,4,1.18,5.07.47s1.75-2.22,2-4.51a19.81,19.81,0,0,0,.21-2.64,7.45,7.45,0,0,0-.25-2,6.67,6.67,0,0,0-.72-1.72,15.34,15.34,0,0,0-1.25-1.74,5.82,5.82,0,0,0-2.23-1.63,6.1,6.1,0,0,0-2.48-.47,5.48,5.48,0,0,0-2.3.59A3.88,3.88,0,0,0,116.58,230.56Z"/><path class="cls-3" d="M136.62,223.29a4.29,4.29,0,0,1,1-2.7,12,12,0,0,1,2.62-2.43,17.28,17.28,0,0,1,3.43-1.83,13.88,13.88,0,0,1,3.44-1,2.44,2.44,0,0,1,1.73.74,6.53,6.53,0,0,1,1.26,1.7,7.35,7.35,0,0,1,.66,1.8c.12.56.12.9,0,1a2.74,2.74,0,0,0-1.07.34c-.47.23-1,.47-1.51.71-.27.27-.49.25-.65,0s-.36-.7-.6-1.19a10.18,10.18,0,0,0-.91-1.48,2.55,2.55,0,0,0-1.56-.93,6,6,0,0,1-1-.16A3,3,0,0,0,142,218a2.47,2.47,0,0,0-1.36,1.17,5.45,5.45,0,0,0-.36,3.11v5.25a30.18,30.18,0,0,0,4-.26,35.2,35.2,0,0,1,4.4-.26.79.79,0,0,1-.26.48c-.18.19-.39.41-.65.65s-.53.49-.82.75-.58.52-.85.79c0,.13-.16.23-.47.3a9,9,0,0,1-1.25.16q-.78.06-1.86.06h-2.24c.14,1.45.26,2.83.36,4.12s.19,2.48.23,3.58a22.39,22.39,0,0,1-.06,2.9,5.49,5.49,0,0,1-.53,2,2.79,2.79,0,0,0,1.15.16c.37,0,.68-.06.95-.1a1.31,1.31,0,0,1,.57,0c.1,0,.09.2,0,.47a5.31,5.31,0,0,0-1,.87l-.81.85a4.74,4.74,0,0,1-.81.64,1.88,1.88,0,0,1-1,.26.8.8,0,0,0-.71-.1c-.33.07-.65.12-.95.16a.85.85,0,0,1-.66-.12q-.22-.18.18-1a42.65,42.65,0,0,0,.14-7.55q-.26-3.63-.62-7.19h-3.16c-.4,0-.54-.09-.42-.26a3.44,3.44,0,0,1,.67-.67l1.07-.87a2.89,2.89,0,0,0,.79-.87h1.05v-4.2Z"/><path class="cls-3" d="M152.53,223.29a4.35,4.35,0,0,1,1.05-2.7,12.09,12.09,0,0,1,2.63-2.43,17.28,17.28,0,0,1,3.43-1.83,13.81,13.81,0,0,1,3.43-1,2.45,2.45,0,0,1,1.74.74,6.49,6.49,0,0,1,1.25,1.7,7.4,7.4,0,0,1,.67,1.8c.12.56.11.9,0,1a2.69,2.69,0,0,0-1.07.34c-.47.23-1,.47-1.52.71-.27.27-.48.25-.64,0s-.37-.7-.61-1.19A9.38,9.38,0,0,0,162,219a2.5,2.5,0,0,0-1.55-.93,5.66,5.66,0,0,1-.95-.16,3,3,0,0,0-1.54.08,2.49,2.49,0,0,0-1.35,1.17,5.28,5.28,0,0,0-.36,3.11v5.25a30,30,0,0,0,4-.26,35.37,35.37,0,0,1,4.41-.26.77.77,0,0,1-.27.48c-.17.19-.39.41-.64.65s-.53.49-.83.75-.58.52-.85.79c0,.13-.15.23-.46.3a9.22,9.22,0,0,1-1.26.16c-.52,0-1.14.06-1.85.06h-2.24c.13,1.45.25,2.83.36,4.12s.18,2.48.22,3.58a22.39,22.39,0,0,1-.06,2.9,5.71,5.71,0,0,1-.52,2,2.76,2.76,0,0,0,1.15.16c.36,0,.68-.06.95-.1a1.27,1.27,0,0,1,.56,0c.11,0,.09.2,0,.47a5.62,5.62,0,0,0-1,.87c-.28.31-.55.59-.81.85a4.32,4.32,0,0,1-.8.64,1.9,1.9,0,0,1-1,.26.82.82,0,0,0-.71-.1c-.34.07-.66.12-.95.16a.86.86,0,0,1-.67-.12q-.22-.18.18-1a43.65,43.65,0,0,0,.15-7.55q-.27-3.63-.63-7.19h-3.15c-.41,0-.55-.09-.42-.26a3.63,3.63,0,0,1,.66-.67l1.07-.87a2.89,2.89,0,0,0,.79-.87h1.05v-4.2Z"/><path class="cls-3" d="M168.52,236.62a14.76,14.76,0,0,0,1.08,2.93,8.51,8.51,0,0,0,1.61,2.3,6.13,6.13,0,0,0,2.12,1.42,4.93,4.93,0,0,0,2.55.26,5.06,5.06,0,0,0,1.65-.79c.57-.39,1.1-.79,1.6-1.19s.93-.74,1.31-1,.63-.35.77-.24a.61.61,0,0,1-.08.32.87.87,0,0,1-.21.22,1.43,1.43,0,0,0-.2.23.61.61,0,0,0-.08.32,4.06,4.06,0,0,0-1.29,1.07,3.91,3.91,0,0,1-1.33,1.07,12.55,12.55,0,0,0-1.22.83,12.11,12.11,0,0,1-1.29.87,7.17,7.17,0,0,1-1.49.66,5.75,5.75,0,0,1-1.82.27,4.83,4.83,0,0,1-3.17-.67,7.49,7.49,0,0,1-2.32-2.3,11.66,11.66,0,0,1-1.42-3.21,13,13,0,0,1-.48-3.36,7.37,7.37,0,0,1,.83-3.41,10.28,10.28,0,0,1,2.22-2.93,12.58,12.58,0,0,1,3.21-2.14,12,12,0,0,1,3.8-1,5.54,5.54,0,0,1,3.11.46,5.08,5.08,0,0,1,2,1.66,2.87,2.87,0,0,1,.48,2.06,2.28,2.28,0,0,1-1.33,1.68,6.6,6.6,0,0,0-.93.24c-.54.16-1.19.36-1.94.61l-2.42.8-2.43.85c-.75.27-1.4.51-1.94.73A4.19,4.19,0,0,0,168.52,236.62Zm0-1.05c0,.14.27.15.79,0s1.19-.27,2-.5,1.65-.49,2.57-.79l2.58-.85a3.54,3.54,0,0,0-1.47-3.79,4.25,4.25,0,0,0-1.9-.71,4.5,4.5,0,0,0-2,.18,3.93,3.93,0,0,0-1.68,1.11,3.64,3.64,0,0,0-.83,2.12Z"/><path class="cls-3" d="M186.94,236.62a15.39,15.39,0,0,0,1.07,2.93,8.77,8.77,0,0,0,1.62,2.3,6.13,6.13,0,0,0,2.12,1.42,4.9,4.9,0,0,0,2.54.26,5.1,5.1,0,0,0,1.66-.79c.57-.39,1.1-.79,1.6-1.19s.93-.74,1.31-1,.63-.35.77-.24a.53.53,0,0,1-.09.32.83.83,0,0,1-.2.22,1.07,1.07,0,0,0-.2.23.61.61,0,0,0-.08.32,4.06,4.06,0,0,0-1.29,1.07,3.94,3.94,0,0,1-1.34,1.07,13.78,13.78,0,0,0-1.21.83,12.11,12.11,0,0,1-1.29.87,7.41,7.41,0,0,1-1.49.66,5.75,5.75,0,0,1-1.82.27,4.81,4.81,0,0,1-3.17-.67,7.38,7.38,0,0,1-2.32-2.3,11.37,11.37,0,0,1-1.42-3.21,13,13,0,0,1-.48-3.36,7.48,7.48,0,0,1,.82-3.41,10.5,10.5,0,0,1,2.23-2.93,12.58,12.58,0,0,1,3.21-2.14,12,12,0,0,1,3.79-1,5.51,5.51,0,0,1,3.11.46,4.94,4.94,0,0,1,2,1.66,2.88,2.88,0,0,1,.49,2.06,2.28,2.28,0,0,1-1.33,1.68,6.25,6.25,0,0,0-.93.24c-.54.16-1.19.36-1.94.61s-1.56.51-2.43.8l-2.42.85c-.75.27-1.4.51-1.94.73A4,4,0,0,0,186.94,236.62Zm0-1.05c0,.14.27.15.79,0s1.19-.27,2-.5,1.65-.49,2.56-.79,1.78-.58,2.59-.85a3.78,3.78,0,0,0-.2-2.28,3.68,3.68,0,0,0-1.27-1.51,4.29,4.29,0,0,0-1.9-.71,4.48,4.48,0,0,0-2,.18,3.93,3.93,0,0,0-1.68,1.11,3.57,3.57,0,0,0-.83,2.12Z"/><path class="cls-4" d="M158,89.68a10.65,10.65,0,0,1,3.56-.7,5.7,5.7,0,0,1,3.12.64,4.74,4.74,0,0,0,2.91.73,9,9,0,0,0,3.31-.69"/><path class="cls-4" d="M81.11,101.63a12,12,0,0,0-4.31-.92,6.39,6.39,0,0,0-3.8.85,5.54,5.54,0,0,1-3.54,1,10.34,10.34,0,0,1-4-.9"/><path class="cls-4" d="M135.2,116.7a18.25,18.25,0,0,0-3.84-3.86,9.77,9.77,0,0,0-4.34-2.06,8,8,0,0,1-4.13-1.78,15.69,15.69,0,0,1-3.55-3.63"/><path class="cls-4" d="M90.11,121.32a14.5,14.5,0,0,0-4.45.31,7.68,7.68,0,0,0-3.58,1.62,6.42,6.42,0,0,1-3.3,1.65,12.44,12.44,0,0,1-4.15.24"/><path class="cls-4" d="M109,128.91a22.17,22.17,0,0,0-5.39,1.15,11.38,11.38,0,0,0-4.26,2.32,9.71,9.71,0,0,1-3.93,2.29,18.78,18.78,0,0,1-5,1"/><path class="cls-4" d="M112.46,110.68a17,17,0,0,0-5.9-1.21c-3.06,0-4.24.57-5.19,1.11a7.63,7.63,0,0,1-4.83,1.26,14.41,14.41,0,0,1-5.48-1.19"/><path class="cls-4" d="M105.36,91.23a12.84,12.84,0,0,0-4.29-1.52,6.87,6.87,0,0,0-4,.29,5.8,5.8,0,0,1-3.75.43,10.85,10.85,0,0,1-4-1.46"/><path class="cls-4" d="M133.13,143a19.28,19.28,0,0,0-5-2.5,10,10,0,0,0-4.88-.62,8.52,8.52,0,0,1-4.59-.43,16.1,16.1,0,0,1-4.64-2.37"/><path class="cls-4" d="M133.12,90.89a11.75,11.75,0,0,0-3.86-1.34,6.27,6.27,0,0,0-3.59.24,5.34,5.34,0,0,1-3.36.37,10.08,10.08,0,0,1-3.58-1.3"/><path class="cls-4" d="M182.19,102.05a17.62,17.62,0,0,1,4.91,1.35,9.26,9.26,0,0,1,3.69,2.53,7.83,7.83,0,0,0,3.38,2.5,15.08,15.08,0,0,0,4.58,1.21"/><path class="cls-4" d="M200.16,94.08a12.81,12.81,0,0,1,4,.17,6.7,6.7,0,0,1,3.23,1.36,5.73,5.73,0,0,0,3,1.39,11,11,0,0,0,3.71.12"/><path class="cls-4" d="M179.66,90.21A17.05,17.05,0,0,1,184,87.67a9,9,0,0,1,4.38-.8,7.44,7.44,0,0,0,4.14-.61,14.48,14.48,0,0,0,4.05-2.39"/><path class="cls-4" d="M154.08,139a16.82,16.82,0,0,1,5.13-.91,8.9,8.9,0,0,1,4.52.84,7.46,7.46,0,0,0,4.21.95,14.17,14.17,0,0,0,4.77-.9"/><path class="cls-4" d="M152.38,117.49a18.06,18.06,0,0,1,3.88-3.4,9.58,9.58,0,0,1,4.2-1.75,8,8,0,0,0,4-1.51,15.56,15.56,0,0,0,3.59-3.2"/><path class="cls-4" d="M170.66,128.17a14.48,14.48,0,0,1,4.74-2.56c2.63-.76,3.79-.53,4.74-.27a6.62,6.62,0,0,0,4.48-.06,12.35,12.35,0,0,0,4.39-2.43"/><line class="cls-5" x1="26.62" y1="184.53" x2="95.05" y2="184.53"/><line class="cls-5" x1="26.62" y1="165.78" x2="95.05" y2="165.78"/><line class="cls-5" x1="192.68" y1="165.78" x2="258.62" y2="165.78"/><line class="cls-5" x1="192.68" y1="184.53" x2="258.62" y2="184.53"/><path class="cls-6" d="M36.26,170.36a.21.21,0,0,1-.24.24H31l-1.11,4.16h3.83A.21.21,0,0,1,34,175c0,.17-.08.25-.24.25h-4l-1.11,4.15h4.85a.22.22,0,0,1,.25.24.22.22,0,0,1-.25.25H28.37a.21.21,0,0,1-.24-.23s.15-.66.47-1.85.84-3.14,1.53-5.67l.32-1.21a6.37,6.37,0,0,1,.18-.64.25.25,0,0,1,.23-.18H36A.22.22,0,0,1,36.26,170.36Z"/><path class="cls-6" d="M42.54,174.36c0,.16-.08.24-.25.24a2.1,2.1,0,0,1-.31-.23,3.34,3.34,0,0,0-.64-.44,2.31,2.31,0,0,0-1-.23,3.68,3.68,0,0,0-2.59,1.12,3.42,3.42,0,0,0-1.21,2.53,2,2,0,0,0,.61,1.49,2.17,2.17,0,0,0,1.53.56,3.2,3.2,0,0,0,1.27-.29c.18-.08.57-.28,1.16-.61a.22.22,0,0,1,.24.25.24.24,0,0,1-.1.19,3.41,3.41,0,0,1-1.19.68,4,4,0,0,1-1.38.27,2.61,2.61,0,0,1-1.87-.71,2.4,2.4,0,0,1-.75-1.83,3.88,3.88,0,0,1,1.35-2.88,4.16,4.16,0,0,1,2.93-1.26,2.51,2.51,0,0,1,2.14,1A.24.24,0,0,1,42.54,174.36Z"/><path class="cls-6" d="M50.32,175.74A3.91,3.91,0,0,1,49,178.63,4.14,4.14,0,0,1,46,179.89a2.62,2.62,0,0,1-1.87-.71,2.43,2.43,0,0,1-.74-1.83,3.9,3.9,0,0,1,1.34-2.88,4.18,4.18,0,0,1,2.93-1.26,2.58,2.58,0,0,1,1.87.7A2.41,2.41,0,0,1,50.32,175.74Zm-.48,0a2,2,0,0,0-.6-1.49,2.18,2.18,0,0,0-1.54-.56,3.7,3.7,0,0,0-2.59,1.12,3.41,3.41,0,0,0-1.2,2.53,2,2,0,0,0,.6,1.49,2.17,2.17,0,0,0,1.53.56,3.76,3.76,0,0,0,2.61-1.13A3.41,3.41,0,0,0,49.84,175.75Z"/><path class="cls-6" d="M54.29,170.35v.07l-2.07,7.74a1.4,1.4,0,0,0-.05.34.78.78,0,0,0,.31.7,2.31,2.31,0,0,0,.57.21c.21.05.31.13.31.24a.21.21,0,0,1-.24.24,1.41,1.41,0,0,1-1-.39,1.34,1.34,0,0,1-.41-1,1.82,1.82,0,0,1,.06-.46l2.08-7.75a.21.21,0,0,1,.22-.18C54.21,170.11,54.29,170.19,54.29,170.35Z"/><path class="cls-6" d="M62.54,175.74a3.91,3.91,0,0,1-1.35,2.89,4.14,4.14,0,0,1-2.93,1.26,2.62,2.62,0,0,1-1.87-.71,2.43,2.43,0,0,1-.74-1.83A3.9,3.9,0,0,1,57,174.47a4.18,4.18,0,0,1,2.93-1.26,2.58,2.58,0,0,1,1.87.7A2.41,2.41,0,0,1,62.54,175.74Zm-.48,0a2,2,0,0,0-.6-1.49,2.18,2.18,0,0,0-1.54-.56,3.7,3.7,0,0,0-2.59,1.12,3.41,3.41,0,0,0-1.2,2.53,2,2,0,0,0,.6,1.49,2.17,2.17,0,0,0,1.53.56,3.76,3.76,0,0,0,2.61-1.13A3.41,3.41,0,0,0,62.06,175.75Z"/><path class="cls-6" d="M70.51,173.46a.21.21,0,0,1-.24.24H69a1.66,1.66,0,0,1,.53,1.29,2.54,2.54,0,0,1-.55,1.56,3.23,3.23,0,0,1-1.3,1,2,2,0,0,1,1.14,1.91,3.23,3.23,0,0,1-1.12,2.41A3.5,3.5,0,0,1,65.2,183a2.21,2.21,0,0,1-1.59-.6,2,2,0,0,1-.63-1.55c0-.61.1-.91.32-.91s.25.08.25.23a1.77,1.77,0,0,1,0,.34,1.31,1.31,0,0,0,0,.34A1.54,1.54,0,0,0,64,182a1.75,1.75,0,0,0,1.25.47,3.07,3.07,0,0,0,2.14-.93,2.78,2.78,0,0,0,1-2.07,1.58,1.58,0,0,0-.49-1.21,1.76,1.76,0,0,0-1.25-.46,1.84,1.84,0,0,1-1.31-.5,1.7,1.7,0,0,1-.52-1.27,2.67,2.67,0,0,1,.92-2,2.87,2.87,0,0,1,2-.87h2.58C70.43,173.21,70.51,173.29,70.51,173.46ZM69,175a1.24,1.24,0,0,0-.38-.93,1.37,1.37,0,0,0-1-.35,2.39,2.39,0,0,0-1.68.73,2.18,2.18,0,0,0-.78,1.63,1.21,1.21,0,0,0,.39.93,1.37,1.37,0,0,0,1,.35,2.37,2.37,0,0,0,1.68-.73A2.17,2.17,0,0,0,69,175Z"/><path class="cls-6" d="M73.26,173.45s0,.05,0,.06l-1.66,6.2a.21.21,0,0,1-.22.18c-.17,0-.25-.08-.25-.24s0-.05,0-.07l1.66-6.19a.24.24,0,0,1,.48.06Zm1-2.89a.51.51,0,0,1-.18.39.57.57,0,0,1-.41.16q-.45,0-.45-.42a.52.52,0,0,1,.18-.4.57.57,0,0,1,.41-.18A.4.4,0,0,1,74.29,170.56Z"/><path class="cls-6" d="M81.05,174.36c0,.16-.08.24-.25.24a1.79,1.79,0,0,1-.3-.23,3.39,3.39,0,0,0-.65-.44,2.31,2.31,0,0,0-1-.23,3.68,3.68,0,0,0-2.59,1.12,3.41,3.41,0,0,0-1.2,2.53,2,2,0,0,0,.6,1.49,2.17,2.17,0,0,0,1.53.56,3.2,3.2,0,0,0,1.27-.29c.18-.08.57-.28,1.16-.61a.22.22,0,0,1,.24.25.24.24,0,0,1-.1.19,3.32,3.32,0,0,1-1.19.68,4,4,0,0,1-1.38.27,2.61,2.61,0,0,1-1.87-.71,2.4,2.4,0,0,1-.75-1.83,3.88,3.88,0,0,1,1.35-2.88,4.16,4.16,0,0,1,2.93-1.26,2.51,2.51,0,0,1,2.14,1A.24.24,0,0,1,81.05,174.36Z"/><path class="cls-6" d="M88.7,174.14c0,.06-.23,1-.71,2.77s-.74,2.72-.78,2.8-.13.18-.22.18-.25-.08-.25-.24a9.9,9.9,0,0,1,.26-1,3.77,3.77,0,0,1-2.77,1.28,2.3,2.3,0,0,1-1.68-.64,2.14,2.14,0,0,1-.67-1.64,4.09,4.09,0,0,1,1.52-3.06,4.67,4.67,0,0,1,3.18-1.34,3.9,3.9,0,0,1,1.24.24C88.41,173.64,88.7,173.87,88.7,174.14Zm-.51.07a2.3,2.3,0,0,0-1.61-.51,4.2,4.2,0,0,0-2.84,1.2,3.59,3.59,0,0,0-1.38,2.71,1.7,1.7,0,0,0,.53,1.29,1.88,1.88,0,0,0,1.34.5,3.18,3.18,0,0,0,1.69-.52,3.86,3.86,0,0,0,1.24-1.27,7.35,7.35,0,0,0,.6-1.65C87.9,175.38,88.05,174.8,88.19,174.21Z"/><path class="cls-6" d="M92.8,170.35v.07l-2.08,7.74a1.4,1.4,0,0,0,0,.34.78.78,0,0,0,.31.7,2.31,2.31,0,0,0,.57.21c.21.05.31.13.31.24a.21.21,0,0,1-.24.24,1.41,1.41,0,0,1-1-.39,1.34,1.34,0,0,1-.41-1,1.82,1.82,0,0,1,.06-.46l2.08-7.75a.21.21,0,0,1,.22-.18C92.72,170.11,92.8,170.19,92.8,170.35Z"/><path class="cls-6" d="M202.62,170.36a.21.21,0,0,1-.24.24h-5l-1.11,4.16h3.82a.21.21,0,0,1,.24.24c0,.17-.08.25-.24.25h-4L195,179.71a.21.21,0,0,1-.22.18c-.17,0-.25-.08-.25-.24s.16-.65.47-1.84l1.86-6.88c0-.15.09-.36.17-.64a.25.25,0,0,1,.23-.18h5.16A.22.22,0,0,1,202.62,170.36Z"/><path class="cls-6" d="M208.8,174.14c0,.06-.24,1-.72,2.77s-.74,2.72-.78,2.8-.13.18-.22.18-.25-.08-.25-.24a9.9,9.9,0,0,1,.26-1,3.77,3.77,0,0,1-2.77,1.28,2.3,2.3,0,0,1-1.68-.64,2.14,2.14,0,0,1-.67-1.64,4.06,4.06,0,0,1,1.52-3.06,4.67,4.67,0,0,1,3.18-1.34,3.9,3.9,0,0,1,1.24.24C208.5,173.64,208.8,173.87,208.8,174.14Zm-.52.07a2.3,2.3,0,0,0-1.61-.51,4.2,4.2,0,0,0-2.84,1.2,3.59,3.59,0,0,0-1.38,2.71,1.7,1.7,0,0,0,.53,1.29,1.88,1.88,0,0,0,1.34.5,3.18,3.18,0,0,0,1.69-.52,3.86,3.86,0,0,0,1.24-1.27,7.35,7.35,0,0,0,.6-1.65C208,175.38,208.14,174.8,208.28,174.21Z"/><path class="cls-6" d="M212.4,173.45s0,.05,0,.06l-1.66,6.2a.21.21,0,0,1-.22.18.22.22,0,0,1-.25-.24.64.64,0,0,1,0-.07l1.66-6.19a.21.21,0,0,1,.22-.18C212.32,173.21,212.4,173.29,212.4,173.45Zm1-2.89a.51.51,0,0,1-.18.39.57.57,0,0,1-.4.16c-.31,0-.46-.14-.46-.42a.5.5,0,0,1,.19-.4.55.55,0,0,1,.4-.18A.4.4,0,0,1,213.43,170.56Z"/><path class="cls-6" d="M218.52,174.24c0,.15-.09.23-.26.23s-.15-.13-.34-.38a.91.91,0,0,0-.78-.39,1.72,1.72,0,0,0-1.08.41,1.88,1.88,0,0,0-.65.95l-1.25,4.65a.21.21,0,0,1-.22.18c-.17,0-.25-.08-.25-.24s.09-.41.28-1.13.54-2,1-3.58l.42-1.55a.22.22,0,0,1,.23-.18.21.21,0,0,1,.24.24,1,1,0,0,1-.05.25,2.21,2.21,0,0,1,1.36-.49,1.69,1.69,0,0,1,.89.28A.91.91,0,0,1,218.52,174.24Z"/><path class="cls-6" d="M231.86,170.36a.21.21,0,0,1-.24.24H228.7c-.19.76-.73,2.81-1.65,6.17l-.59,2.17c0,.17-.1.43-.2.77a.25.25,0,0,1-.23.18.21.21,0,0,1-.24-.24c0-.05.19-.8.58-2.26l1.83-6.79h-2.78a.21.21,0,0,1-.24-.24.22.22,0,0,1,.24-.25h6.2A.22.22,0,0,1,231.86,170.36Zm-3.33-.25h0Z"/><path class="cls-6" d="M234.48,174.24c0,.15-.09.23-.26.23s-.15-.13-.34-.38a.91.91,0,0,0-.78-.39,1.67,1.67,0,0,0-1.07.41,1.84,1.84,0,0,0-.66.95l-1.25,4.65a.21.21,0,0,1-.22.18c-.17,0-.25-.08-.25-.24s.09-.41.29-1.13.53-2,1-3.58l.42-1.55a.24.24,0,0,1,.48.06.74.74,0,0,1-.06.25,2.23,2.23,0,0,1,1.36-.49,1.66,1.66,0,0,1,.89.28A.89.89,0,0,1,234.48,174.24Z"/><path class="cls-6" d="M242.1,174.14c0,.06-.24,1-.72,2.77s-.74,2.72-.78,2.8-.13.18-.22.18-.25-.08-.25-.24.09-.4.26-1a3.77,3.77,0,0,1-2.77,1.28,2.3,2.3,0,0,1-1.68-.64,2.14,2.14,0,0,1-.67-1.64,4.09,4.09,0,0,1,1.52-3.06,4.69,4.69,0,0,1,3.18-1.34,3.9,3.9,0,0,1,1.24.24C241.8,173.64,242.1,173.87,242.1,174.14Zm-.52.07a2.3,2.3,0,0,0-1.61-.51,4.2,4.2,0,0,0-2.84,1.2,3.59,3.59,0,0,0-1.38,2.71,1.7,1.7,0,0,0,.53,1.29,1.9,1.9,0,0,0,1.34.5,3.18,3.18,0,0,0,1.69-.52,3.76,3.76,0,0,0,1.24-1.27,7.35,7.35,0,0,0,.6-1.65C241.29,175.38,241.44,174.8,241.58,174.21Z"/><path class="cls-6" d="M251.36,170.35s-.13.54-.39,1.51l-2.12,7.85a.2.2,0,0,1-.22.18c-.17,0-.25-.08-.25-.24s.09-.39.27-1.06a3.68,3.68,0,0,1-2.78,1.3,2.34,2.34,0,0,1-1.69-.64,2.18,2.18,0,0,1-.66-1.65,2.76,2.76,0,0,1,.1-.77,5,5,0,0,1,1.73-2.55,4.49,4.49,0,0,1,2.87-1.07,2.91,2.91,0,0,1,1.74.49l.92-3.41a.21.21,0,0,1,.22-.18C251.27,170.11,251.36,170.19,251.36,170.35Zm-1.53,3.85a2.24,2.24,0,0,0-1.61-.51,4.11,4.11,0,0,0-2.58,1,4.35,4.35,0,0,0-1.55,2.29,2.43,2.43,0,0,0-.09.65,1.71,1.71,0,0,0,.53,1.31,1.92,1.92,0,0,0,1.34.49,3.16,3.16,0,0,0,2-.76,3.7,3.7,0,0,0,1.23-1.81S249.37,176,249.83,174.2Z"/><path class="cls-6" d="M257.48,174.52a2.08,2.08,0,0,1-1.24,1.83c-.77.44-2,1.06-3.73,1.86a1.93,1.93,0,0,0,2,1.19,2.46,2.46,0,0,0,.78-.18,2.77,2.77,0,0,1,.77-.17c.15,0,.23.08.23.25s-.26.32-.77.44a4.25,4.25,0,0,1-1,.15,2.62,2.62,0,0,1-1.87-.71,2.43,2.43,0,0,1-.74-1.83,3.9,3.9,0,0,1,1.34-2.88,4.18,4.18,0,0,1,2.93-1.26,1.34,1.34,0,0,1,1,.37A1.26,1.26,0,0,1,257.48,174.52Zm-.48,0a.79.79,0,0,0-.82-.83,3.79,3.79,0,0,0-2.63,1.11,3.43,3.43,0,0,0-1.21,2.55,2.56,2.56,0,0,0,0,.39l3.65-1.82A1.52,1.52,0,0,0,257,174.53Z"/><g class="cls-7"><path class="cls-3" d="M169.58,158.07c0,3.25-11.25,5.88-25.13,5.88s-25.12-2.63-25.12-5.88,11.25-5.87,25.12-5.87S169.58,154.83,169.58,158.07Z"/><path class="cls-8" d="M166.83,160.57c0-2.23-9.94-4-22.21-4s-22.21,1.81-22.21,4,10,4,22.21,4S166.83,162.81,166.83,160.57Z"/><line class="cls-9" x1="124.63" y1="156" x2="124.63" y2="164.38"/><line class="cls-9" x1="126.63" y1="156" x2="126.63" y2="164.38"/><line class="cls-9" x1="128.63" y1="156" x2="128.63" y2="164.38"/><line class="cls-9" x1="130.63" y1="156" x2="130.63" y2="164.38"/><line class="cls-9" x1="132.64" y1="156" x2="132.64" y2="164.38"/><line class="cls-9" x1="134.64" y1="156" x2="134.64" y2="164.38"/><line class="cls-9" x1="136.64" y1="156" x2="136.64" y2="164.38"/><line class="cls-9" x1="138.64" y1="156" x2="138.64" y2="164.38"/><line class="cls-9" x1="140.64" y1="156" x2="140.64" y2="164.38"/><line class="cls-9" x1="142.64" y1="156" x2="142.64" y2="164.38"/><line class="cls-9" x1="144.64" y1="156" x2="144.64" y2="164.38"/><line class="cls-9" x1="146.64" y1="156" x2="146.64" y2="164.38"/><line class="cls-9" x1="148.64" y1="156" x2="148.64" y2="164.38"/><line class="cls-9" x1="150.64" y1="156" x2="150.64" y2="164.38"/><line class="cls-9" x1="152.64" y1="156" x2="152.64" y2="164.38"/><line class="cls-9" x1="154.64" y1="156" x2="154.64" y2="164.38"/><line class="cls-9" x1="156.64" y1="156" x2="156.64" y2="164.38"/><line class="cls-9" x1="158.64" y1="156" x2="158.64" y2="164.38"/><line class="cls-9" x1="160.64" y1="156" x2="160.64" y2="164.38"/><line class="cls-9" x1="162.64" y1="156" x2="162.64" y2="164.38"/><line class="cls-9" x1="164.64" y1="156" x2="164.64" y2="164.38"/></g><path class="cls-3" d="M68.36,46.83a9.71,9.71,0,0,1,6-1.94,9.3,9.3,0,0,1,5.17,1.92,15.26,15.26,0,0,1,4,4.71,23.47,23.47,0,0,1,2.43,6.34,19.73,19.73,0,0,1,.31,6.61,22.34,22.34,0,0,1-1.65,6.11,21.93,21.93,0,0,1-7.49,9.19,10.61,10.61,0,0,1-5.41,1.76,10,10,0,0,1-5.41-1.32,13.57,13.57,0,0,1-4.57-4.42,20.4,20.4,0,0,1-2.9-7.55,30,30,0,0,1-.67-7.44A14,14,0,0,1,63,50.69,33.86,33.86,0,0,1,68.36,46.83Zm-2,1.89a7,7,0,0,0-2.92,2.8A12.23,12.23,0,0,0,62,55.91a20.14,20.14,0,0,0,0,5.43,27.84,27.84,0,0,0,1.48,6,21.73,21.73,0,0,0,2.63,5.25,11.88,11.88,0,0,0,3.19,3.18,9.28,9.28,0,0,0,3.76,1.42,15.53,15.53,0,0,0,4.35,0,5.64,5.64,0,0,0,3.3-2.53,13.27,13.27,0,0,0,1.89-4.83,20.67,20.67,0,0,0,.26-6,19.43,19.43,0,0,0-1.62-6.13,22.66,22.66,0,0,0-2.91-4.76,14.67,14.67,0,0,0-3.67-3.34A9.54,9.54,0,0,0,70.57,48,7.85,7.85,0,0,0,66.4,48.72Z"/><path class="cls-3" d="M93.86,37.17a3.73,3.73,0,0,1,1,1.45,17,17,0,0,1,.81,2.32c.22.83.41,1.62.56,2.36s.27,1.26.33,1.57l1.5,8-.11-.61,1.84-1.35a24.15,24.15,0,0,1,2.09-1.37,12,12,0,0,1,2.13-1,5.14,5.14,0,0,1,2-.31,13,13,0,0,1,3.32.79,11.57,11.57,0,0,1,3,1.66,10.08,10.08,0,0,1,2.28,2.5,9.28,9.28,0,0,1,1.28,3.3,9.6,9.6,0,0,1-.56,5.85,12.76,12.76,0,0,1-3.22,4.39c-.57.43-1.23,1-2,1.65a16.77,16.77,0,0,1-2.44,1.78,7.5,7.5,0,0,1-2.78,1.35,9,9,0,0,1-3,.26,8,8,0,0,1-2.88-.8A6.51,6.51,0,0,1,96.61,69a2,2,0,0,0-.44-.89,2,2,0,0,1-.43-.85L91.68,45.79a4.14,4.14,0,0,0-.5-1.32,4.08,4.08,0,0,0-.86-1.06,2.92,2.92,0,0,0-1.12-.64,2.58,2.58,0,0,0-1.33-.07c-.32.06-.5,0-.56-.11a.68.68,0,0,1,0-.52,3.23,3.23,0,0,1,.33-.68c.15-.24.29-.45.42-.64a12.33,12.33,0,0,0,2.2-1.41l1.47-1.26a5.78,5.78,0,0,1,1.1-.79A1.26,1.26,0,0,1,93.86,37.17Zm6.5,27.94a5.54,5.54,0,0,0,1,1.31A6.85,6.85,0,0,0,103,67.56a7.23,7.23,0,0,0,2,.69,6,6,0,0,0,2.27,0,4.09,4.09,0,0,0,2.67-1,5.63,5.63,0,0,0,1.52-2.32,9.87,9.87,0,0,0,.54-3.08,15.65,15.65,0,0,0-.26-3.3,9.84,9.84,0,0,0-1.49-2.72,11.27,11.27,0,0,0-2.49-2.43,10.27,10.27,0,0,0-3.2-1.57,7.61,7.61,0,0,0-3.65-.17,3.93,3.93,0,0,0-2.13,1.92,5.45,5.45,0,0,0-.07,2.94L99,57.75l.47,2.5Z"/><path class="cls-3" d="M121.41,50.05c-.32,0-.36-.18-.11-.6A5.74,5.74,0,0,1,122.63,48,12.18,12.18,0,0,1,125,46.57a8.11,8.11,0,0,1,3-.8,7,7,0,0,1,2.91.36,5.18,5.18,0,0,1,2,1.39,6.47,6.47,0,0,1,1.24,2.16,9.45,9.45,0,0,1,.53,2.63l.57,8.77a6,6,0,0,0,.56,2.44A3.54,3.54,0,0,0,137,64.79a3,3,0,0,0,1.19.53,7.48,7.48,0,0,0,1,.13c.24,0,.36,0,.36.07s-.2.16-.6.38a1.6,1.6,0,0,1-.39.75,7,7,0,0,1-1,1.14,6.21,6.21,0,0,1-1.42,1,2.47,2.47,0,0,1-1.57.27A2.57,2.57,0,0,1,133,68a7.07,7.07,0,0,1-1.12-2.88,18,18,0,0,1-4.93,3,8.41,8.41,0,0,1-3.86.61,4.18,4.18,0,0,1-2.58-1.21,4,4,0,0,1-1.09-2.45A6.17,6.17,0,0,1,120,62a9.34,9.34,0,0,1,2.54-3.2,12.83,12.83,0,0,1,2.61-1.61q2.11-1.09,5.33-2.7a7.09,7.09,0,0,0-.58-2.36,8,8,0,0,0-1.34-2.18,6.86,6.86,0,0,0-1.91-1.54,4.07,4.07,0,0,0-2.22-.5,3.78,3.78,0,0,0-1.81.6A2.89,2.89,0,0,0,121.41,50.05Zm9.17,5.66a17,17,0,0,0-4.94,2.55,7.12,7.12,0,0,0-2.19,2.64,2.66,2.66,0,0,0,0,2.26,2.71,2.71,0,0,0,1.65,1.39,4.72,4.72,0,0,0,2.71,0,7.87,7.87,0,0,0,3.2-1.91Z"/><path class="cls-3" d="M150.65,45.06l6.36.86a.56.56,0,0,1,.13.6,2,2,0,0,1-.41.71,3.63,3.63,0,0,1-.76.67,6.13,6.13,0,0,1-.95.55l-4.46-.13-.34,11.52A5.55,5.55,0,0,0,152,63.37a5.3,5.3,0,0,0,3.28,1.13c.65-.34,1.11-.39,1.37-.16s.22.51-.14.82l-3.93,3a7.42,7.42,0,0,1-3.76-.49,4.25,4.25,0,0,1-1.91-1.81A7.76,7.76,0,0,1,146,63.3c-.13-1-.24-2-.34-2.92l.35-12.19a2.87,2.87,0,0,0-1.32-.23c-.56,0-1.08,0-1.56.08a4.7,4.7,0,0,1-1.11,0q-.37-.09.12-.6l4.59-4.33a4.12,4.12,0,0,1,.92-1.08A13.43,13.43,0,0,1,149,40.91a4.25,4.25,0,0,1,1.22-.64c.35-.1.53,0,.52.33Z"/><path class="cls-3" d="M163.56,49.73c-.31,0-.31-.24,0-.61A5.73,5.73,0,0,1,165.14,48a11.85,11.85,0,0,1,2.61-1,8.12,8.12,0,0,1,3.15-.21,7,7,0,0,1,2.79.9,5.26,5.26,0,0,1,1.74,1.74,6.5,6.5,0,0,1,.82,2.35,10.08,10.08,0,0,1,0,2.69l-1.09,8.72a6,6,0,0,0,.1,2.5,3.69,3.69,0,0,0,.81,1.46,3.13,3.13,0,0,0,1.07.74,9.34,9.34,0,0,0,.9.3c.24.06.35.11.35.14a2.22,2.22,0,0,1-.66.26,1.72,1.72,0,0,1-.52.66,7.58,7.58,0,0,1-1.23.93,6.76,6.76,0,0,1-1.59.73,2.4,2.4,0,0,1-1.59,0,2.53,2.53,0,0,1-1.26-1.3,7,7,0,0,1-.57-3,17.65,17.65,0,0,1-5.4,2,8.32,8.32,0,0,1-3.91-.12,4.12,4.12,0,0,1-2.3-1.67,4,4,0,0,1-.62-2.61,6.19,6.19,0,0,1,1.19-3,9.34,9.34,0,0,1,3.09-2.67,12.32,12.32,0,0,1,2.87-1.09c1.52-.46,3.44-1,5.74-1.66a7.24,7.24,0,0,0-.13-2.43,8.11,8.11,0,0,0-.91-2.39A6.79,6.79,0,0,0,169,49.08a4.06,4.06,0,0,0-2.09-.92,3.85,3.85,0,0,0-1.89.25A3,3,0,0,0,163.56,49.73ZM171.51,57a17.1,17.1,0,0,0-5.33,1.59,6.86,6.86,0,0,0-2.64,2.19,2.69,2.69,0,0,0-.42,2.22,2.76,2.76,0,0,0,1.36,1.67,4.76,4.76,0,0,0,2.68.47,7.68,7.68,0,0,0,3.49-1.28Z"/><path class="cls-3" d="M187.22,39a10.85,10.85,0,0,0,.93-.65l.72-.58A7.15,7.15,0,0,1,191,36.61a3.18,3.18,0,0,1,1.86,0,3.11,3.11,0,0,1,1.45,1,4,4,0,0,1,.77,1.82A6.63,6.63,0,0,1,194.9,42l-6.35,24.94a2.81,2.81,0,0,0,1.34,3.43,5.7,5.7,0,0,0,1.75.64c.64.13,1.22.23,1.73.3a4.19,4.19,0,0,1,1.14.26c.26.1.24.29,0,.55a10.24,10.24,0,0,1-1.23.22l-1.43.14c-.49,0-1,.08-1.44.14s-.88.13-1.23.21a5.08,5.08,0,0,1-1.77-.2,5.47,5.47,0,0,1-1.88-1,4.35,4.35,0,0,1-1.34-1.78,4.42,4.42,0,0,1-.12-2.76l5.41-23.82a2.53,2.53,0,0,0-.21-2.09,3.74,3.74,0,0,0-1.16-1.1l-1-.58Q186.65,39.32,187.22,39Z"/><path class="cls-3" d="M204.62,57.36c-.31-.11-.26-.3.12-.59a5.93,5.93,0,0,1,1.77-.79,11.91,11.91,0,0,1,2.77-.44,7.8,7.8,0,0,1,3.12.44A6.94,6.94,0,0,1,215,57.43a5.17,5.17,0,0,1,1.34,2.07,6.46,6.46,0,0,1,.32,2.47,9.46,9.46,0,0,1-.53,2.63l-2.85,8.31a6,6,0,0,0-.42,2.47A3.55,3.55,0,0,0,213.3,77a3.13,3.13,0,0,0,.9.94,7.9,7.9,0,0,0,.82.49c.22.11.32.17.31.21a2.61,2.61,0,0,1-.7.11c0,.12-.26.3-.64.54a7.64,7.64,0,0,1-1.4.66,6.46,6.46,0,0,1-1.7.38,2.38,2.38,0,0,1-1.55-.36,2.51,2.51,0,0,1-1-1.52,7.14,7.14,0,0,1,.08-3.1,17.78,17.78,0,0,1-5.71.88,8.38,8.38,0,0,1-3.79-.92A4.18,4.18,0,0,1,197,73.17a4,4,0,0,1-.06-2.68,6.15,6.15,0,0,1,1.77-2.67,9.25,9.25,0,0,1,3.57-2,12.29,12.29,0,0,1,3-.48q2.37-.2,6-.43a7.39,7.39,0,0,0,.37-2.41,7.88,7.88,0,0,0-.4-2.53,6.87,6.87,0,0,0-1.16-2.15,4,4,0,0,0-1.86-1.32,3.8,3.8,0,0,0-1.9-.15A2.93,2.93,0,0,0,204.62,57.36Zm6.27,8.76a16.68,16.68,0,0,0-5.53.45,7,7,0,0,0-3,1.6,2.66,2.66,0,0,0-.87,2.08,2.71,2.71,0,0,0,1,1.92,4.76,4.76,0,0,0,2.52,1,7.84,7.84,0,0,0,3.69-.54Z"/></g></svg>