<svg id="Layer_1" data-name="Layer 1" xmlns="http://www.w3.org/2000/svg" viewBox="0 0 139.21 28.9"><defs><style>.cls-1{fill:#31322f;}.cls-1,.cls-2,.cls-3{fill-rule:evenodd;}.cls-2{fill:#306e9a;}.cls-3{fill:#1f4066;}</style></defs><title>whiteArtboard 1logo_afterpay</title><g id="Full.H.logout_wishlist" data-name="Full.H.logout wishlist"><g id="Top-Nav---logged-out"><g id="afterpay_logo" data-name="afterpay logo"><path id="Fill-1" class="cls-1" d="M68.62,14.51A3.43,3.43,0,1,0,65.19,18,3.51,3.51,0,0,0,68.62,14.51ZM70.1,9.6a7,7,0,0,1,0,9.82,6.87,6.87,0,0,1-4.91,2,4.77,4.77,0,0,1-3.29-1.31L61.76,20v7.79L58.24,28.9v-21h3.52V8.9l.14-.15a4.42,4.42,0,0,1,3.29-1.16A7,7,0,0,1,70.1,9.6Z"/><path id="Fill-4" class="cls-1" d="M76.9,14.51A3.43,3.43,0,1,0,80.33,11,3.51,3.51,0,0,0,76.9,14.51Zm-1.48,4.91a6.93,6.93,0,0,1,0-9.82,6.87,6.87,0,0,1,4.91-2A4.75,4.75,0,0,1,83.61,8.9l.15.11V7.85h3.52V21.16H83.76v-1l-.15.14a4.35,4.35,0,0,1-3.28,1.17A7,7,0,0,1,75.42,19.42Z"/><polyline id="Fill-7" class="cls-1" points="90.79 28.9 93.96 21.19 88.64 7.85 92.54 7.85 95.85 16.14 99.22 7.85 103.09 7.85 94.6 28.9 90.79 28.9"/><path id="Fill-10" class="cls-1" d="M6.8,9.83a4.68,4.68,0,1,0,4.65,4.68A4.66,4.66,0,0,0,6.8,9.83Zm0,11.45a6.85,6.85,0,0,1-4.82-2A6.84,6.84,0,0,1,2,9.69a6.82,6.82,0,0,1,4.81-2,7,7,0,0,1,4.37,1.79l.28.24V8h2.16V21H11.45V19.26l-.28.23A7,7,0,0,1,6.8,21.28Z"/><path id="Fill-11" class="cls-1" d="M17.51,21V10.06h-2V8h2V4.19A4.18,4.18,0,0,1,21.76,0h2.71l-.54,2H21.82a2.24,2.24,0,0,0-2.15,2.21V8h4.1v2h-4.1V21H17.51"/><path id="Fill-12" class="cls-1" d="M31.9,21a4.24,4.24,0,0,1-4.24-4.24V10.06h-2V8h2V0h2.15V8h4.1v2h-4.1v6.63A2.3,2.3,0,0,0,32,19h2.11l.55,2H31.9"/><path id="Fill-13" class="cls-1" d="M41.19,9.92a4.26,4.26,0,0,0-3.85,3l0,0-.12.25h8L45,12.89A4.19,4.19,0,0,0,41.19,9.92Zm0,11.31a5.82,5.82,0,0,1-4.37-2,6.67,6.67,0,0,1-1.76-4.09,3.89,3.89,0,0,1,0-.59A7.34,7.34,0,0,1,35.2,13a6.89,6.89,0,0,1,1.62-3.15,5.93,5.93,0,0,1,8.78,0A6.59,6.59,0,0,1,47.22,13,8.43,8.43,0,0,1,47.37,15H37.1v.23a4.41,4.41,0,0,0,4,4.06,5.27,5.27,0,0,0,3.29-1.35L46.22,19a7.54,7.54,0,0,1-1.6,1.3A7.44,7.44,0,0,1,41.19,21.23Z"/><path id="Fill-14" class="cls-1" d="M49.49,21V8h2.16V9.66l.3-.33c.76-.84,3-1.53,4.5-1.59l-.52,2.15a4.31,4.31,0,0,0-4.28,4.18V21H49.49"/><path id="Fill-16" class="cls-2" d="M121.71,11.53l3.78-2.19c-.42-.73-.31-.55-.69-1.25s-.26-1,.58-1q3.63,0,7.27,0c.72,0,.89.31.53,1q-1.8,3.16-3.63,6.3c-.39.67-.74.67-1.14,0s-.31-.5-.76-1.26l-3.77,2.18a3.18,3.18,0,0,0,.25.46c.93,1.62,1.35,2.39,2.31,4a2.88,2.88,0,0,0,4.9.26,6,6,0,0,0,.41-.62q3.44-5.94,6.85-11.89a4.71,4.71,0,0,0,.54-1.29,2.85,2.85,0,0,0-2.79-3.49c-4.9,0-9.8,0-14.7,0a2.88,2.88,0,0,0-2.6,4.22c.32.64.7,1.24,1.06,1.86l1.6,2.76"/><path id="Fill-18" class="cls-3" d="M110.82,23.77V19.42h-1.41c-.83,0-1-.29-.6-1,1.2-2.09,2.4-4.17,3.62-6.24.36-.61.68-.67,1.08,0,1.2,2.08,2.41,4.16,3.6,6.25.38.67.2,1-.56,1h-1.46v4.36h5.1a2.85,2.85,0,0,0,2.66-4.07,5,5,0,0,0-.32-.66q-3.39-5.91-6.79-11.8a4.57,4.57,0,0,0-.84-1.11,2.83,2.83,0,0,0-4.38.66c-2.46,4.19-4.91,8.4-7.31,12.62a2.86,2.86,0,0,0,2.33,4.33c.7,0,3.73,0,5.29,0"/></g></g></g></svg>