<svg xmlns="http://www.w3.org/2000/svg" viewBox="0 0 604.29 526.98"><defs><style>.cls-1{fill:#cd0067;}.cls-2{fill:#fff;}</style></defs><title>whiteArtboard 2logo_ideal</title><g id="Layer_2" data-name="Layer 2"><rect x="67.18" y="296.62" width="96.85" height="160.82"/><path d="M171.35,216.22a54.83,54.83,0,1,1-54.83-54.82A54.84,54.84,0,0,1,171.35,216.22Z"/><path d="M347.48,0H0V527H347.48v-.1c75.91-1,136-19.89,178.71-56.2,51.89-44.15,78.21-113.86,78.21-207.19,0-44.62-6.92-84.63-20.57-118.94-13.06-32.82-32.36-60.73-57.36-83-44-39.12-105.83-60.28-179-61.48Zm-6.57,35c67.34,0,123.47,18.25,162.31,52.77,43.91,39,66.18,98.14,66.18,175.72C569.4,417.24,494.66,492,340.91,492H35V35Z"/><path class="cls-1" d="M331.35,457.62H208.5v-380H326.39c102.45,0,211.51,40.43,211.51,190.5,0,158.66-109.06,189.51-211.51,189.51Z"/></g><g id="Layer_3" data-name="Layer 3"><path class="cls-2" d="M187.33,175.7h33.73q11.4,0,17.39,1.75a30.64,30.64,0,0,1,13.78,8.42A40,40,0,0,1,261,200.69q3,8.76,3,21.61a59.89,59.89,0,0,1-2.81,19.46,40.26,40.26,0,0,1-9.78,16.15,32.51,32.51,0,0,1-13,7.3q-6.12,1.94-16.34,1.93H187.33Zm18.43,15.5v60.44h13.82a50.64,50.64,0,0,0,11.18-.87,17.09,17.09,0,0,0,7.47-3.8q3-2.67,4.85-8.8T245,221.45q0-10.57-1.87-16.24a20.87,20.87,0,0,0-5.25-8.84,17.64,17.64,0,0,0-8.57-4.29q-3.87-.87-15.18-.88Z"/><path class="cls-2" d="M184.83,173.2v96.44h37.22c7,0,12.79-.69,17.09-2.05a35,35,0,0,0,14-7.89,43,43,0,0,0,10.41-17.13,63,63,0,0,0,2.94-20.27c0-8.8-1.05-16.35-3.13-22.42A42.53,42.53,0,0,0,254,184.15a33.16,33.16,0,0,0-14.88-9.1c-4.27-1.24-10.19-1.85-18.1-1.85Zm36.23,5c7.33,0,12.95.56,16.69,1.65a28.19,28.19,0,0,1,12.66,7.74,37.64,37.64,0,0,1,8.18,13.9c1.9,5.56,2.86,12.56,2.86,20.81a58,58,0,0,1-2.67,18.64,38.13,38.13,0,0,1-9.16,15.18,30.25,30.25,0,0,1-12,6.71c-3.8,1.2-9,1.81-15.57,1.81H189.83V178.2Z"/><path class="cls-2" d="M203.26,188.7v65.44h16.32a52.09,52.09,0,0,0,11.8-.95,19.72,19.72,0,0,0,8.53-4.36c2.34-2.11,4.16-5.36,5.56-9.93,1.33-4.37,2-10.07,2-17.45s-.65-13-2-17a23.5,23.5,0,0,0-5.91-9.87,20.23,20.23,0,0,0-9.75-4.92c-2.77-.62-7.92-.93-15.71-.93Zm10.82,5c9.11,0,13,.45,14.64.82a15.24,15.24,0,0,1,7.39,3.67A18.47,18.47,0,0,1,240.7,206c1.16,3.5,1.75,8.7,1.75,15.45s-.59,12.15-1.76,16c-1.11,3.62-2.5,6.21-4.13,7.68a14.79,14.79,0,0,1-6.4,3.23,49.54,49.54,0,0,1-10.58.79H208.26V193.7Z"/><path class="cls-2" d="M284.81,267.14V175.7H352.5v15.5H303.25v20.25h45.81V227H303.25v24.69h51v15.5Z"/><path class="cls-2" d="M282.31,173.2v96.44h74.44v-20.5h-51V229.45h45.81V209H305.75V193.7H355V173.2Zm67.69,5v10.5H300.75V214h45.81v10.5H300.75v29.69h51v10.5H287.31V178.2Z"/><path class="cls-2" d="M457.5,267.14H437.42l-8-20.75H392.91l-7.57,20.75H365.75l35.53-91.44h19.66Zm-34-36.25L410.91,197l-12.35,33.87Z"/><path class="cls-2" d="M399.57,173.2,362.1,269.64h25l7.57-20.75h33.06l8,20.75h25.49L422.63,173.2Zm19.67,5c1.17,2.92,32.07,80.2,34.57,86.44H439.13l-8-20.75h-40s-6.55,18-7.57,20.75H369.4c2.41-6.2,32.44-83.47,33.59-86.44Z"/><path class="cls-2" d="M395,233.39h32.13l-16.23-43.61Zm15.95-29.14,9,24.14H402.13Z"/><path class="cls-2" d="M472.93,267.14V176.45h18.43v75.19H537.3v15.5Z"/><path class="cls-2" d="M470.43,174v95.69H539.8v-20.5H493.86V174Zm18.43,5v75.19H534.8v10.5H475.43V179Z"/></g></svg>