<svg id="Layer_1" data-name="Layer 1" xmlns="http://www.w3.org/2000/svg" viewBox="0 0 116.19 121.08"><defs><style>.cls-1{fill:#fff;}.cls-1,.cls-2,.cls-3,.cls-5{fill-rule:evenodd;}.cls-2{fill:#bbb53d;}.cls-3{fill:#ca585f;}.cls-4{fill:none;stroke:#2c2e30;stroke-miterlimit:2.61;stroke-width:3.05px;}</style></defs><title>icon-thuiswinkel-waarborg</title><polygon class="cls-1" points="25.29 31.63 57.36 9.26 90.17 32.92 57.55 53.62 25.29 31.63"/><polygon class="cls-2" points="57.73 68.41 57.55 55.84 90.72 34.77 90.72 68.59 57.73 68.41"/><polygon class="cls-3" points="25.48 68.22 25.48 35.32 57.18 55.1 57.18 68.59 25.48 68.22"/><path class="cls-4" d="M24.92,24.78,57.36,1.86,90.17,24.78M24.56,32.55,57.36,9.26,90.9,32.36M25.11,69V34L57.54,55.1,90.35,34V69Zm32.25,0V54.73"/><path class="cls-5" d="M7.15,84.67H3.85v6.84c0,1.66.73,2,1.65,2A2.55,2.55,0,0,0,7.15,93l.18,1.47a4.24,4.24,0,0,1-2.2.56c-1.28,0-2.75-.56-2.75-3.14V84.67H0V83.19H2.38V80.05H3.85v3.14h3.3v1.48Z"/><path class="cls-5" d="M9.35,76.17H11V85a4.52,4.52,0,0,1,3.84-2c2.76,0,4.22,1.48,4.22,4.43v7.21H17.41V88.37c0-2.59-.73-4.07-2.93-4.07-.37,0-3.48.37-3.48,4.44v5.91H9.35V76.17Z"/><path class="cls-5" d="M31,94.65V92.8h-.18A4.16,4.16,0,0,1,27.12,95c-2.93,0-4.4-1.66-4.4-4.62V83.19h1.65v6.29c0,2.58.74,4.06,3.12,4.06.37,0,3.48-.37,3.48-4.44V83.19h1.47v8.87c0,.74.18,1.67.18,2.59Z"/><path class="cls-5" d="M37.39,80.05a1.24,1.24,0,0,1-1.1-1.3,1.18,1.18,0,0,1,1.1-1.1c.55,0,1.28.55,1.28,1.1a1.39,1.39,0,0,1-1.28,1.3Zm-.74,3.14H38.3V94.65H36.65V83.19Z"/><path class="cls-5" d="M48,86a2.62,2.62,0,0,0-2.38-1.66c-1.1,0-2.39.55-2.39,1.85,0,1.11.73,1.48,2.2,1.85l1.65.37a3.17,3.17,0,0,1,2.75,3.14c0,2.4-2.2,3.51-4.4,3.51a5.45,5.45,0,0,1-4.4-2.22l1.47-1.11a3.48,3.48,0,0,0,2.93,1.85c1.28,0,2.75-.74,2.75-2,0-1.11-1.1-1.48-2.2-1.85l-1.47-.37c-.91-.18-2.93-.74-2.93-3,0-2.41,2-3.33,4.21-3.33a3.86,3.86,0,0,1,3.67,2L48,86Z"/><polygon class="cls-5" points="52.96 83.19 55.53 92.43 58.65 83.19 60.29 83.19 63.23 92.43 65.98 83.19 67.81 83.19 64.14 94.65 62.49 94.65 59.38 85.23 56.45 94.65 54.62 94.65 50.95 83.19 52.96 83.19"/><path class="cls-5" d="M71.11,80.05a1.26,1.26,0,0,1-1.29-1.3,1.23,1.23,0,0,1,1.29-1.1,1.18,1.18,0,0,1,1.1,1.1,1.24,1.24,0,0,1-1.1,1.3Zm-.92,3.14h1.65V94.65H70.19V83.19Z"/><path class="cls-5" d="M77.15,83.19A6.17,6.17,0,0,1,77.34,85a4.31,4.31,0,0,1,3.85-2c2.75,0,4.21,1.48,4.21,4.43v7.21H83.75V88.37c0-2.59-.73-4.07-3.11-4.07-.19,0-3.3.37-3.3,4.44v5.91H75.69V85.78a13.49,13.49,0,0,0-.18-2.59Z"/><polygon class="cls-5" points="90.72 88.36 96.03 83.19 98.41 83.19 92.91 88.36 99.15 94.65 96.58 94.65 90.72 88.55 90.72 94.65 89.07 94.65 89.07 76.17 90.72 76.17 90.72 88.36"/><path class="cls-5" d="M101.9,89.29a4.4,4.4,0,0,0,4.21,4.25,4.89,4.89,0,0,0,3.66-2l1.1.92A5.52,5.52,0,0,1,106.11,95a5.76,5.76,0,0,1-5.87-6.1A5.56,5.56,0,0,1,105.93,83a5.31,5.31,0,0,1,5.5,5.54v.74ZM109.59,88a3.47,3.47,0,0,0-3.66-3.7,4.16,4.16,0,0,0-4,3.7Z"/><polygon class="cls-5" points="114.54 76.17 116.19 76.17 116.19 94.65 114.54 94.65 114.54 76.17"/><polygon class="cls-5" points="10.08 103.89 12.65 113.13 12.83 113.13 15.76 103.89 17.41 103.89 20.53 113.13 23.09 103.89 24.92 103.89 21.44 115.17 19.61 115.17 16.68 105.93 16.5 105.93 13.56 115.17 11.73 115.17 8.25 103.89 10.08 103.89"/><path class="cls-5" d="M34.27,108.33V108c0-2-.92-3-2.75-3A4.53,4.53,0,0,0,28,106.3l-1.1-1.11a6.69,6.69,0,0,1,4.95-1.67,3.77,3.77,0,0,1,4,4.07v5.18c0,.74.18,1.84.18,2.4H34.64a5.57,5.57,0,0,1-.19-1.85,4.07,4.07,0,0,1-4,2.22c-2,0-3.85-1.11-3.85-3.33,0-3.7,4.22-3.88,7-3.88Zm-.73,1.29c-1.65,0-5.32,0-5.32,2.4,0,1.48,1.47,2,2.75,2,2.2,0,3.3-1.66,3.3-3.7v-.74Z"/><path class="cls-5" d="M46.92,108.33V108c0-2-.92-3-2.94-3a5.09,5.09,0,0,0-3.48,1.3l-.92-1.11a6.24,6.24,0,0,1,4.77-1.67,3.91,3.91,0,0,1,4.22,4.07v5.18a10,10,0,0,0,.18,2.4H47.1c0-.56-.18-1.11-.18-1.85a4.09,4.09,0,0,1-4,2.22c-2,0-3.84-1.11-3.84-3.33,0-3.7,4.39-3.88,7.14-3.88ZM46,109.62c-1.46,0-5.13,0-5.13,2.4,0,1.48,1.28,2,2.56,2,2.39,0,3.49-1.66,3.49-3.7v-.74Z"/><path class="cls-5" d="M52.41,107.4a27,27,0,0,0-.18-3.51h1.65v2a3.73,3.73,0,0,1,3.67-2.4c.36,0,.91,0,1.1.19l-.19,1.48h-.91a3.4,3.4,0,0,0-3.48,3.69v6.29H52.41V107.4Z"/><path class="cls-5" d="M60.29,96.87h1.47v8.87h.18a5.46,5.46,0,0,1,4.4-2.22,6,6,0,1,1,0,12,5.46,5.46,0,0,1-4.4-2.22h-.18v1.85H60.29V96.87ZM66.34,105a4.53,4.53,0,1,0,0,9.06,4.21,4.21,0,0,0,4.22-4.44c0-2.59-1.65-4.62-4.22-4.62Z"/><path class="cls-5" d="M80.45,115.54a6,6,0,1,1,6-5.92,5.85,5.85,0,0,1-6,5.92Zm0-10.54c-2.56,0-4.21,2-4.21,4.62a4.22,4.22,0,1,0,8.43,0C84.67,107,83,105,80.45,105Z"/><path class="cls-5" d="M89.62,107.4c0-1.1-.19-1.84-.19-3.51h1.65v2a3.73,3.73,0,0,1,3.67-2.4,2.27,2.27,0,0,1,1.1.19l-.19,1.48h-.91a3.56,3.56,0,0,0-3.67,3.69v6.29H89.62V107.4Z"/><path class="cls-5" d="M97.86,117.57a5.32,5.32,0,0,0,4.4,2c3.12,0,4.4-2,4.4-4.43v-2h-.18a4.75,4.75,0,0,1-4.22,2,5.83,5.83,0,1,1,0-11.65,4.87,4.87,0,0,1,4.22,2.22h.18v-1.85h1.47v11.28c0,2.4-.92,5.91-6,5.91a6.77,6.77,0,0,1-5.32-2.22l1.1-1.29Zm4.59-3.88a4.16,4.16,0,0,0,4.21-4.25,4.21,4.21,0,0,0-4.21-4.44,4.32,4.32,0,0,0-4.22,4.44,4.17,4.17,0,0,0,4.22,4.25Z"/></svg>