<svg id="svg895" xmlns="http://www.w3.org/2000/svg" viewBox="0 0 640.01 395.64"><defs><style>.cls-1{fill:#ff5f00;}.cls-2{fill:#eb001b;}.cls-3{fill:#f79e1b;}</style></defs><title>whiteArtboard 1logo_mastercard</title><rect id="rect887" class="cls-1" x="224.84" y="42.31" width="190.42" height="311"/><path id="path889" class="cls-2" d="M244.45,197.84A197.5,197.5,0,0,1,320,42.36C234.11-25.13,109.78-10.23,42.28,75.66S-10.3,285.87,75.58,353.37a197.79,197.79,0,0,0,244.41,0,197.5,197.5,0,0,1-75.54-155.53Z"/><path id="path891" class="cls-3" d="M621.11,320.4V314h2.75v-1.32h-6.54V314h2.58v6.37Zm12.69,0v-7.69h-2l-2.3,5.5-2.31-5.5h-2v7.69h1.43v-5.82l2.14,5h1.48l2.15-5v5.82Z"/><path id="path893" class="cls-3" d="M640,197.84c0,109.23-88.55,197.77-197.78,197.77A197.8,197.8,0,0,1,320,353.31c85.89-67.49,100.79-191.83,33.3-277.71A197.53,197.53,0,0,0,320,42.31C405.86-25.2,530.2-10.32,597.71,75.55A197.77,197.77,0,0,1,640,197.78Z"/></svg>