<?xml version="1.0" encoding="utf-8"?>
<!-- Generator: Adobe Illustrator 25.4.1, SVG Export Plug-In . SVG Version: 6.00 Build 0)  -->
<svg version="1.1" id="Laag_1" xmlns="http://www.w3.org/2000/svg" xmlns:xlink="http://www.w3.org/1999/xlink" x="0px" y="0px"
	 viewBox="0 0 354.2 269.8" style="enable-background:new 0 0 354.2 269.8;" xml:space="preserve">
<style type="text/css">
	.st0{fill:#009FE2;}
</style>
<path class="st0" d="M195.8,0h158.4v136.1c0,22.6-4.1,41.4-12.2,56.4s-18.7,27.4-31.6,37.3c-13,9.9-27.4,17.8-43.3,23.9
	c-15.9,6-31.6,11.4-47.2,16.1l-23.3-42.4c11.8-4.5,21.9-9,30.2-13.6c8.4-4.6,15.2-9.6,20.5-15s9.2-11.6,11.7-18.5
	c2.5-7,3.7-15.1,3.7-24.6h-66.8L195.8,0L195.8,0z M0,0h158v136.1c0,22.6-4.1,41.4-12.2,56.4c-8.1,15-18.6,27.4-31.5,37.3
	c-12.8,9.9-27.2,17.8-43.1,23.9c-15.9,6-31.6,11.4-47.2,16.1L0.3,227.4c11.8-4.5,21.9-9,30.2-13.6c8.4-4.6,15.2-9.6,20.5-15
	s9.2-11.6,11.7-18.5c2.5-7,3.7-15.1,3.7-24.6H0V0z"/>
</svg>
